<svg xmlns="http://www.w3.org/2000/svg" viewBox="0 0 1629.94 1138.24"><defs><style>.cls-1{fill:#94ffea;}.cls-2{fill:#fc32c3;}</style></defs><g id="Calque_2" data-name="Calque 2"><g id="jeux"><g id="Calque_3" data-name="Calque 3"><path class="cls-1" d="M1629.94,1102.78c-3.25-1.23-6.67-2-10-3.09-1.38-.46-3.18-.43-3.83-2.1-2.78-7.07-9.09-9-15.47-9.26-9.89-.32-20.2-2.68-27.14,9.05-4.94,8.36-9,7.45-12.38-.33-.9-2-.41-4.19-.48-6.29a12.35,12.35,0,0,0-3.17-8.61c-2.94-3.22-6.41-5.54-9.89-7.92-5.09-3.48-7.37-7.47-5.76-14.1,1.45-6,1.88-12.75-2.86-17.76-7.93-8.4-16.45-16.18-28.17-19.11-3-.76-5.44-2.59-6.28-5.44-2.42-8.2-9.7-12.09-16.2-13a237.62,237.62,0,0,1-25-5.1c-7.13-1.84-14.77-1.52-21.64-4.69-4.9-2.27-10.09-2-15.22-1.68-5.58.35-11.14,1.1-16.7,1.73a12.65,12.65,0,0,0-8.28,4.19c-4.41,4.79-9.13,9.31-13.71,13.95-1.33,1.34-2.79,2.77-4.67,1.12a9.55,9.55,0,0,0-9.45-1.93c-7.64,2.74-9.69-.68-12.21-7.35-2.26-6-7.71-10.68-11.59-16-4.9-6.79-13.14-11.22-14.77-20.28-.93-5.13-4.32-7.45-8.53-9.73-3.94-2.14-8.09-3.09-12.25-4.37-4.94-1.51-9-4-10.36-10-2.23-10.07-11.47-13.72-19-18.83a3.61,3.61,0,0,0-1.8-.19c-3.05,0-2.92-1.32-1.47-3.35a17.27,17.27,0,0,0,3.33-9.78c0-6.49,3.43-11.2,7.47-15.58,1.79-1.95,3.42-3.89,4.15-6.42,3.56-12.38-3.4-26.19-15.91-30.12-5.12-1.6-9.16-4.29-13.3-7.38-5.07-3.78-9.18-9.2-15.47-11s-11.85-4.58-17.59-7.36c-10.1-4.89-20.7-3.54-31.07-1.43-3.55.72-7,2.77-10.6,4-2.81.95-5.55,2.62-6.32,5.46-1.33,4.89-5.07,8-8.14,11.32-3.42,3.69-8.25,7.11-13.48,6.71-10.73-.82-21.44,0-32.14-.6a4.76,4.76,0,0,0-1.81.06c-11.46,4.11-22.85-.06-34.24-.53-7.45-.32-14.77-1.31-21.94,1.39-3.1,1.17-6.27,1-9.45.78-4.28-.27-7.62-1.69-8.35-6.58a7.22,7.22,0,0,0-4.33-6c-5.88-2.41-10.87-6.42-16.59-9.11-4.63-.18-7.74-3.5-11.47-5.54l-4.8-.16c-8.74.32-16.67,2.75-22.51,9.62-6.13,7.22-14.27,10.43-23.11,12.47-1.21,1.11-2.4,1.3-3.55-.09h0c-1.09-.52-2.11-1.19-1.66-2.57.37-1.14,1.47-1.2,2.51-1.15v0a.93.93,0,0,1,.93-.92v0a.92.92,0,0,1,.92-.93l0,0c.24-.85.2-2,.76-2.5,5.36-4.61,3.83-10.64,3.53-16.42,0-.44-.37-.88-.34-1.3a62.21,62.21,0,0,0-4.84-29l0,0-.91-1h0c-2.31-2.29-4.34-4.75-4.6-8.19h0c-2.13-.32-2.28-2.06-2.62-3.66l-1.87-2.42-1-1.28,0,0-1-1,0,0-3.76-.94c-4.84.11-9.65.51-14.47.77s-7.85,2.74-8.09,6.91c-.75,13.06-7.86,23.86-11.91,35.73-1,2.87-2,5.61-2.15,8.72a7.92,7.92,0,0,1-4.57,7.31c-1.19,1-2.35,1.23-3.45-.13l0,0c-1.28,0-2-.52-1.87-1.84l0,0a.93.93,0,0,1-.94-.94l0,0a1.56,1.56,0,0,1-1.82-1l0,0c-4.43-3.47-3.49-8.6-2.36-12.55a64.39,64.39,0,0,0,.49-33l0,0-1.1-.89c-5.63-3-11.92-1.71-17.84-2.84H879.1c-4.9.49-9.51-1.26-14.28-1.79-.81,0-1.62,0-2-.9l.05,0a1.81,1.81,0,0,1-1.86-1l0,0-1-.93,0,.05c-2,.1-3-.72-2.78-2.77h0c-3.16-3.46-4.3-7.61-4.64-12.21-.31-4.16-1.15-8.29-1.76-12.43v0c-2.91-3.55-5.51-7.25-6.39-11.89l0,0c-.9-.31-1.06-1-1-1.84l0,0-.94-.95,0,0-.95-1,0,0-1-.94,0,0-.94-.94,0,0-.95-.94,0,0c-.32-.31-.64-.62-1-.94l0,0a1.54,1.54,0,0,1-1.84-1l0,0-.95-.93,0,0a.92.92,0,0,1-.94-.92l0,0c-1.32.09-1.94-.53-1.85-1.85l0,0-1-.94,0,0a1.8,1.8,0,0,1-1.82-.94l-32.86-21.74-1.22-1h-.35a2.13,2.13,0,0,1-2.07-1l0,0-1-.91,0,0a1.77,1.77,0,0,1-1.88-1l.06,0c-.76,0-1.56,0-1.87-.94l0,0-3.67-.4c2.56-2.58,5.37-3.46,8-4.69,9.26-3,18.83-3.39,28.46-3.26,2.28-1.73,2.82-5,5.56-6.32l0,0,.86-1c7.54-2.67,15.35-2.94,23.23-2.65,4.09.15,8.17.29,11.87-2.2,1-.67,2.64-.61,4-.57a32.87,32.87,0,0,0,17.12-3.79c3-1.59,6.13-1.14,9.27-.81l5.47-.84c10.86.49,21.61-1.06,32.41-1.77a12.24,12.24,0,0,0,5.46-2c3.61-2.11,7.17-4.31,10.75-6.47l.92-.88.72-.76c.32-1,.78-1.84,2-1.89l0,.05,1-1,0,0,1-.95,0,0c1.59-3.11,3.6-5.74,7.31-6.45l0,0a1.77,1.77,0,0,1,1.88-1.83l0,0c1-4.53,4.14-6.85,8.24-8.25l0,0,.94-.94,0,0c.17-2.23,2-2.39,3.58-2.94,1.23-.93.43-3.39,2.68-3.54l.11.09-.06-.88a1.63,1.63,0,0,1,1.88-1l0,0a.87.87,0,0,1,.9-.93h0l.92-.91h0l.92-.91,0,0c.8-2.76,2.94-3.9,5.48-4.58v0l.92-.9h0l.91-.91h0l.93-.91h0a4.49,4.49,0,0,1,3.64-3.67l0,0,.92-.92h0a.91.91,0,0,1,.92-.92h0l.92-.92h0l.91-.92h0l.92-.92h0l.92-.92h0l.92-.92h0l.92-.93h0l.92-.92,0,0c1.24-4.44,1.69-9.3,6.36-11.9l0,0c0-.44-.16-1.06.07-1.32,4.82-5.28,3.22-11.81,3.69-18,.32-4.19,1.72-8.12,5.35-10.81v0c-.09-1.37,0-2.61,1.81-2.76v0c0-1.9.53-3.41,2.74-3.67v0c-.07-2,.67-3.29,2.73-3.67v0l.92-.92h0a.87.87,0,0,1,.91-.91h0c.32-3,2.15-4.9,4.54-6.41v0c-.1-1.39.16-2.54,1.84-2.74v0c0-1.89.53-3.4,2.72-3.68l0,0c1.82-7.37,6.43-12.57,12.76-16.44v0a6.22,6.22,0,0,1,3.64-5.49v0a13.71,13.71,0,0,1,5.46-10.05v0a1.45,1.45,0,0,1,1-1.82h0c.82-2.21,2.09-4,4.53-4.6v0c2-5.38,3.68-10.93,7.33-15.54.11-3,0-6.09,2.71-8.21V488c-.16-1.08-.25-2.14.92-2.78l0,0c-.07-2.34-.09-4.67,1.87-6.42l0,.05c0-1-.13-2.12,1-2.78l0,.05a74.31,74.31,0,0,0-.9-18.24l0,0c-1.16-.64-1-1.72-.94-2.78l0,0c-.94-.31-.95-1.08-.92-1.87l0,.05c-.86-.36-.9-1.12-.93-1.89l0,.06a1.93,1.93,0,0,1-.94-1.88l0,.05a1.86,1.86,0,0,1-1-1.86l0,.05c-.83-.37-.93-1.11-.94-1.88l0,.05c-1.07-.67-1-1.74-1-2.78l0,.05c-2.79-3.78-1.48-8.39-2.49-12.53-.19-.8.75-1.17,1.56-1.24h-.07c.21-1.54-.43-3.27,1-4.53a123.7,123.7,0,0,1,4.95-19.19c3.43-10.14,4.28-20.65,5-31.17.49-6.94,3.11-13.24,5.35-19.59,1.8-5.12,4.19-10,5-15.45a9,9,0,0,1,3.33-5.78h0l.93-.92,0,0c0-1.23.2-2.4,1.77-2.61l.3-.28a.9.9,0,0,1,.36-.41c4.15-1.8,6.68-5.7,10.75-7.86,5-2.65,9.8-1.63,14.77-1.58l5.86.05,5.43-.95c6-3.14,12.68-4.6,19.21-6.1a15.71,15.71,0,0,0,6.33-3.06l.94-.93,0,.06c.25-3.94,2.06-7.17,4.59-10.08l0,0a5.84,5.84,0,0,0,.11-.73,25.76,25.76,0,0,1,3.43-6.55l3.78-6.56c1-5.06,5.91-7.41,8.14-11.78,3.75-7.39,11.59-11.69,15.52-19.09l1-.92,0,.06c.07-1-.1-2.11.95-2.79l0,.06c.09-1,0-2.09,1-2.8l0,.06c.15-1.47-.39-3.28,1.85-3.7l0,0,.9-.91.12-1.08,7.23-10.81,0,.06c.31-.63.63-1.25.94-1.88l0,0c.16-3.22.39-6.42,3.68-8.25l0,0a3.4,3.4,0,0,1,1-2.6c3.16-6.11,9.74-8.76,14-13.74,6-7.08,12.87-13.34,18.4-20.81.39-.53,1.22-.74,1.84-1.11,2-2.13.35-6.24,4.09-7.4l0,.05c0-.32,0-.64,0-1l4.72-5.58c.4-1.52.69-3.13,2.61-3.52l0,0c2.29-6,1.93-12.68,5.41-18.27.17-4.59,3.89-7,6.37-10.12a36.7,36.7,0,0,0,8.23-22,31.08,31.08,0,0,1,3-12.61c.19-1.19.84-2.56.48-3.54-1.4-3.8.52-6.2,2.75-8.9,3.94-4.77,7.28-10,12.42-13.72,4.28-3.08,5.93-8.54,10.09-11.62A36.61,36.61,0,0,0,1323,42.51a37.8,37.8,0,0,1,8.78-18.06,32.76,32.76,0,0,0,7-13.65,14.86,14.86,0,0,1,3.88-6.5c1-1.16,3.81-1.4,3-3.36-.66-1.72-3-.49-4.56-.8a2.26,2.26,0,0,0-.45,0q-128.57,0-257.11-.08c-3.61,0-5.55,1.19-7.62,4.11-4.5,6.36-9,12.66-16.67,16.18a24.54,24.54,0,0,0-11.53,11.82c-3.11,6.39-5.75,13.32-10.2,18.67-6.89,8.27-10.57,18-14.79,27.47-3.68,8.29-7.52,16-16.08,20.63-6.65,3.58-11.71,9.58-18.32,13.37-1.47.85-1.85,2.69-2.73,4.08-6.6,10.43-9.12,23.1-17.84,32.34a68.21,68.21,0,0,0-1.47,21.54c.43,4-1.34,8.24-2.3,12.32-1.33,5.62-2.69,11.15-.11,16.85.57,1.26.31,3,.12,4.51-1.15,9,.82,18,2.48,26.49s4.35,17.55,9.27,25.27c1.57,2.46,1.4,4.7-.35,6.67-5.51,6.17-7.24,13.8-8.56,21.58-.28,1.69-.51,3.28-1.89,4.44.07,1.63.47,3.3-.82,4.69A107.42,107.42,0,0,0,957.44,315c-1.28,6.1-5.89,9.48-11,12.44-14.86,8.63-23.61,22.69-32.19,36.83-1.53,2.52-4.11,4.59-4.06,7.94a8.48,8.48,0,0,1-1.14,5.3,15.42,15.42,0,0,1-3.68,7.6c-8.22,9.68-10.83,21.36-9.36,33.45.71,5.8,1.35,11.55,1.5,17.38.05,1.22.1,2.44.16,3.66a8,8,0,0,1,.65,7c-1.78,5.65-1.8,11.9-4.15,17.11-3.52,7.75-3.47,15.88-4.94,23.86a42.88,42.88,0,0,0,.82,18.89c.95,3.67-.86,7.17-.7,10.83a205.66,205.66,0,0,1-1.1,29c0,1.5,0,3,0,4.49,1.51,5.75,1,12,4.44,17.28,1,1.63,1.66,3.53,2.61,5.23,3.46,6.17,6.56,12,3.56,19.76-1.67,4.36-.45,9.85-.45,14.83a12.9,12.9,0,0,1-1.09,6.17c0,1.68,0,3.36,0,5.05,1,.92,1,2.17.91,3.38-.29,7.42.43,14.79,1.07,22.17a10.85,10.85,0,0,1-2.51,8.41,23,23,0,0,0-3,4.54c-4.25,8.53-12.16,10.66-20.59,11.72-2,.26-3.91.6-5.44,2-3.67,3.22-8.58,4.29-12.42,7.23a4.89,4.89,0,0,1-3.92.78c-6.94-1.26-13.81-1.44-20.65.79-1.53.49-3.31.23-5,.31a13,13,0,0,1-5.75,1.9c-3.24,5.87-8.72,6-14.61,6.61a79.14,79.14,0,0,0-28.11,8c-7.72,4-15,2.12-22.38.12-9.58-2.59-18.87-6.22-28.78-7.56h-4.87c-10.18,3.65-17.74,10.58-24,19.17-5,6.85-9,14.24-13.14,21.58a56.76,56.76,0,0,1-16,17.58c-4.72,3.41-10.46,3.66-16.11,1.78-1.09.08-2.19.17-3-.8h-.25l-.23,0c-.81,0-1.59-.08-2-.91l0,0c-.79,0-1.51-.1-1.88-.94l0,0c-.78,0-1.5-.11-1.84-1l0,0a1.81,1.81,0,0,1-1.81-1h0a1.75,1.75,0,0,1-1.88-1.79l0,0a4.3,4.3,0,0,1-3.66-3.67h0c-3.85-4.16-3.59-7.25.85-10.11v0a.89.89,0,0,1,.92-.92h0a.91.91,0,0,1,.92-.92h0l1-1c1.44-.54,1.79-2.52,3.53-2.65l1-.06,0,0a1.51,1.51,0,0,1,1-1.85l-.05,0c.89-8.28-.24-16.67,1.87-24.91,1.7-6.63,2.28-13.61,7.24-19l0,.1.93-1,0,0c2.92-9.19,4.77-18.52,3.67-28.23v.08c-1.8-1.86-3.61-3.72-5.41-5.59l0,0-1.23-.93c-6-4.34-12.86-4.18-19.63-3.54-6.56.61-10.57,5.58-14.36,10.28-6,7.41-11.53,15.16-17.51,22.57-2.42,3-3.67,6.59-5.78,9.73-5.08,7.6-12.87,10.77-21.86,8.59-.58-.15-1.19-.22-1.78-.33-3-.53-5.46,1.25-8.16,2-10.2,5.38-17.58,12.86-20.25,24.64-.94,4.15-4.48,7.68-5.62,11.82-3.73,13.52-15.55,14.46-26.06,17.22-7.31,1.92-14.15-1.63-21.1-3.19-5.24-1.18-10.4-1.86-15.71-.75a4.31,4.31,0,0,1-2.2,0c-5.33-1.83-10.64-3.72-15.94-5.61a3.32,3.32,0,0,1-2.54-3.36c.07-6-2.48-11.45-3.91-17.13-.65-2.58-2.54-3.67-5.13-3.52-2.87.18-3.63,2-3.87,4.62-.54,5.9-1.54,6.37-6.61,3.31-3.87-2.34-7.52-5-11.16-7.7-7.63-5.67-16.84-6.41-26-5.44-2.41.25-4.8.48-7.21.54-1,4.31-4.71,4.74-8.09,5.63.29,2.84-2.09,4.31-3.41,6.21-7.69,11.09-5.84,22.29-.76,33.58,1,2.21,2.43,4.2,3.52,6.36,5.46,10.78,4,15.09-3.72,24.46-8.17,9.93-18.85,15.2-30,20.39a49,49,0,0,0-20.18,16.79,58.22,58.22,0,0,1-15.1,14.78c-2.61,1.75-5.81,1.47-8.7,2.27a6.78,6.78,0,0,1-3.85.79c-9.49,5.34-19.33,4.3-29.19,1.39a92.76,92.76,0,0,0-13.3-2.41c-8.64-1.23-17.15-3.38-26-2.79-3.62,1.34-8.48.1-10.9,3.64-3.61,5.31-7.71,10.53-8.23,17.42a31.61,31.61,0,0,1-2.25,10.14c-1.55,3.66-2.84,3.74-5.22.62a55.85,55.85,0,0,0-5.39-6.72c-7.32-7-18.43-4.27-20.6,5.09a184.93,184.93,0,0,0-3,18.32c-.88,6.76-1.37,13.63-5.23,19.54-9.12,14-14.92,29.76-23.38,44.1-8.06,13.67-13,29.1-23.65,41.32-2.39,2.75-3.78,6.12-5.41,9.39-3.88,7.81-6.38,16.33-12.21,23.2-2.32,2.73-3,6.44-3.18,10.24-.33,6.3,1.62,12.31,1.75,18.48.1,4.57.69,8.39,4.31,11.86,4.31,4.14,4.17,8.48.45,12.35-4.34,4.53-9.15,8.16-15.66,9.38-5,.94-10,2.63-14,6.17-5.38,4.78-11,9.28-16.34,14.14-11.7,10.64-26.74,16.29-40.39,24C21.68,1128.15.6,1138,0,1138H25c4.42.28,2.6.82,6-2,5.76-4.77,13.91-8.65,21-11.07a25.2,25.2,0,0,0,9.85-6.21c4.07-4,8.45-7.94,14.78-8l0,.07c-.08-.82,0-1.57.94-1.86l0,0a1,1,0,0,1,1-1l0,0,.88-1c0-1.42,1.57-1.65,2-2.75a2.74,2.74,0,0,1,2.58-2.62l.08-.09c1.18-3.48,4.85-3,7.25-4.5l0,0c4.69-5,11.38-5.25,17.31-7.29h0c1.92-3,4.06-5.68,7.32-7.29l0,0a2.18,2.18,0,0,1,.93-2l.77-.8c4.42-6.51,4.91-13.55,2.88-21l0,0a7.11,7.11,0,0,1-2.78-6.41l0,0c-.89-.33-1-1-.92-1.86l0,0c-.15-.06-.34-.07-.42-.17-3.3-4.17-4.07-16.23-1.34-20.54a2.31,2.31,0,0,1,1.75-1.26l0,0c-.07-1.37.11-2.59,1.84-2.77l0,0c-.07-1.39.2-2.54,1.85-2.77l0,0a1.86,1.86,0,0,1,1-1.87l0,0c.51-1.53.79-3.24,2.75-3.69l0,0c4.21-11,7.58-22.35,13.74-32.53.64-1.07,1.28-2.09,2.7-2.16l0,0c0-1.37.18-2.55,1.84-2.77l0,0a1.9,1.9,0,0,1,1-1.86l0,0c.38-1.47,1.07-2.63,2.77-2.77l0,0c0-2.09,0-4.18,2.76-4.59v0a.91.91,0,0,1,.92-.94v0l.92-.94,0,0a19,19,0,0,1,2.82-7.21,5.59,5.59,0,0,1,1.79-3.76l0,.06c0-.77.08-1.53.94-1.88l0,.05c0-.8,0-1.56.94-1.87l0,0c-.08-.82,0-1.57.94-1.87l0,0c-.11-.84,0-1.56.93-1.87l0,.05c0-.8,0-1.55.95-1.88l0,0c-.06-.81,0-1.58.94-1.86l0,0c-.48-2.47,1-4.35,2-6.37-.07-6.43,4.26-11,7-16.23,1.12-2.11,2.15-4.64,4.72-5.71l0,0c0-.8.08-1.51.93-1.85l0,0c-.06-1.56.2-3,1.84-3.67v0c2-6.43,3.95-12.92,6.21-19.28,2.36-6.6,3-13.48,3.87-20.32.3-2.29.56-4.49,2.67-5.92,4,.61,6,3.76,7.21,6.86,2.95,7.53,8.34,9.74,15.79,8.58a5.85,5.85,0,0,1,.72-.07h0a2,2,0,0,1,1.86-1.79v0c.32-7.61,4.3-14.28,5.55-21.65a42,42,0,0,1,1.11-5.71c.53-1.64,1.07-3.56,3.39-3.68v0c1.13-2.85,3.78-3,6.23-3.55a93.55,93.55,0,0,1,29.88,4.41c10.55,3.44,21.61,6.06,32.81,1.11,3.5-1.55,7.55-1.9,11.34-2.79,1.24-.29,2.66.28,3.73-.79.08-.13.15-.35.25-.37,12.78-2.12,20.12-11.66,28.12-20.39a57.26,57.26,0,0,1,15.46-12.23c6.77-3.62,13.46-7.3,20.43-10.58,3.56-1.67,6.18-5.28,8.64-8.58,1.17-1.58,2.19-3.3,4.37-3.67a8.37,8.37,0,0,1,2.91-4.13c1.67-3.77,4.71-6.51,7.25-9.63a46.39,46.39,0,0,0,.05-18.15l0,0-.95-1,0,.05c-.35-.61-.7-1.22-1-1.83-5.15-4.39-5.28-6.22-2.65-13,3.46-8.86,10.22-14.86,17.09-20.81a6.11,6.11,0,0,1,6.78-1c7,3,13.79,6.23,18.77,12.37,3.21,4,8.29,5.22,12.41,7.9,3,2,6.26,3.47,9,6,5.25,4.7,12.29,5.65,18.74,7.5,11.07,3.17,22.57,1.78,33.91,1.91,1.67-1.65,3.18-.93,4.64.32a18.46,18.46,0,0,1,7.2-1.24l.07,0a3.18,3.18,0,0,1,2.66-.93h0a1.79,1.79,0,0,1,1.81-.91v0l.94-.88h0a11.15,11.15,0,0,1,7.28-2.78v0l1-.9,0,0a1.87,1.87,0,0,1,1.85-.94l0,0,.94-.93,0,0,.94-.94,0,0c.31-.32.63-.63.94-.94l0,0,.94-.93h0c.37-2.05,1.78-2.72,3.67-2.76l0,0A10.13,10.13,0,0,1,549,737.8v0c-.09-1.38.16-2.54,1.84-2.76l0,0c-.07-1.38.21-2.52,1.84-2.77v0a1.77,1.77,0,0,1,1-1.85l0,0c.19-1,.64-1.81,1.83-1.86v0c0-2.07,0-4.13,2.74-4.59v0c2.46-5.26,4.53-10.74,7.48-15.7,3.08-5.18,9-5.39,14.25-6.55l2.23-.33,1.55-.24.07,0a3,3,0,0,1,2.62-.92,1.86,1.86,0,0,1,.87-.14,8.34,8.34,0,0,1,5.6-2.56h0l1.84-.93,0,0a4.09,4.09,0,0,1,3.67-1.86l0,0c3.68-3.07,7.3-6.16,9-10.91a3,3,0,0,1,2.88-1.86l0,0,.93-.93,0,0a1.63,1.63,0,0,1,1-1.84l0,0c.13-1.1.62-1.84,1.83-1.87v0l.93-.93,0,0c-.1-1.39.09-2.6,1.84-2.76v0a1.64,1.64,0,0,1,1-1.84l0,0c.3-1.53,1-2.67,2.74-2.78l0,0c-.13-1.42.24-2.5,1.84-2.77v0l.93-.93,0,0c.84-6.83,6.08-10.13,11-13.71l0,0a1.72,1.72,0,0,1,1.81-1v0l.87-.76c6.3.2,10,3.41,11.39,9.28a5.61,5.61,0,0,1-.79,4.59c-7.7,13.12-12.23,27.43-11.9,42.51.16,7.64-2.86,11.64-8.28,15.38C620,727,618.17,735.83,622.45,744c1.39,2.66,3.2,5.09,4.82,7.62l1.41,2.56c3.21.15,5.37,2.59,8.12,3.78,14.37,6.26,28,6.39,40.84-3.86,2.83-2.26,5.94-4.18,8.92-6.25l1.13-.94,0,0,.94-.94,0,0c.32-.31.63-.63.94-.94l0,0a.91.91,0,0,1,.93-.93l0,0a.91.91,0,0,1,.92-.94l0,0a1.91,1.91,0,0,1,1-2c.21-.25.43-.49.63-.74.62-2.12,3.06-2.64,3.94-4.53a8.33,8.33,0,0,1,5.4-6.47v0c.41-3.13,1.71-5.71,4.58-7.3h0c-.11-2,.53-3.4,2.73-3.67v0c0-1.93.52-3.42,2.75-3.66v0c.46-4.95,5.14-5.72,8.11-8.18,2.38-4.59,5.63-5.86,10.41-3.87,5,2.1,10,4.34,15,6.5a27.84,27.84,0,0,0,10.63,1.86c13.24.34,25.77,3,36.24,11.86a3.82,3.82,0,0,1,3.69,1.54c7.44,3.89,13.65,9.4,19.64,15.14a56.23,56.23,0,0,0,11.13,8.43c4.85,2.78,9,6.6,11,12.18,2.11,6.09,5.23,11.89,5.46,18.54.15,1.12.31,2.23.46,3.34a18,18,0,0,1,2.42,3.23c3.55,7.77,10,10.39,18,11.7,9.63,1.57,19.26,1.63,28.92,1.78,2.82,0,4.39,1.41,5.07,4.21a24.13,24.13,0,0,1-.14,13c-1.81,5.77-2,11.56-2,17.45a15.91,15.91,0,0,1-.8,3.53l1.11,4.35c5.46,9,13.21,12.67,23.62,10.3a2.82,2.82,0,0,1,2.65-1.12v0c.58-1.87,1.59-3.3,3.68-3.62h0c.09-4,2.33-7.66,2.14-11.8a2.68,2.68,0,0,1,2.42-2.8v0c-.38-3.94,1.23-7.19,2.91-10.69,3.47-7.25,7.33-14.44,7.31-22.93,0-6.45,5.66-8.9,12.5-5.74,7.33,9.62,14.73,19.18,14.89,32.13a110.65,110.65,0,0,0,.39,11.78c.45,3.74-2.74,6.34-5.49,7.72-5.31,2.66-7.26,6.82-5.7,11.87,1.51,4.84,5.54,8.06,10.68,9.39a22.2,22.2,0,0,0,2.7.38l3.77,0a83.6,83.6,0,0,1,12.44-4.23,25.21,25.21,0,0,0,11.3-6.46c3.72-3.53,7.54-7.14,11.88-9.79,3.19-1.94,7.24-4.17,11-.19,1.06,1.12,2.78,1,4.24,1.41,2.86.78,5.94,1.36,7.6,4.32,1.61.44,3.41.55,4.78,1.38,3.6,2.17,9.23,2,10.11,7.4,1,6.28,5.12,8.51,10.61,9.25,6,.81,12.35,1.72,18.06-.25,8.78-3,17.36-1.53,26-.51,9.67,1.15,19.28,2.13,29,.17,8.86-1.79,18-1,26.63,0,15.27,1.75,26.94-5.58,33.37-17,4.88-8.67,13-9.77,20.69-11.73,7-1.78,14.08.19,20.42,4.23a29,29,0,0,0,9.11,4.06c5.92,1.3,10.27,4.81,14.75,8.49,5.57,4.56,10.74,9.64,18.36,11.29,4.22.91,7.45,4.52,10.61,7.58,1.51,1.46,1.25,3.31.39,5.07-3.08,6.37-3.85,13.71-8.25,19.56a7.35,7.35,0,0,0-1.22,4.32c.14,6.16-2.44,11.11-6.28,15.65a12.17,12.17,0,0,0-2.87,9.32c.21,2.28,1.31,4.06,3.6,3.87,6-.51,11.43.32,15.4,5.43.08.1.28.1.43.14,5.57,1.47,7.56,6.1,8.46,10.87.63,3.37,2.4,5.18,4.61,7.36,4.15,4.11,9.51,4.83,14.63,6.59s10.77,3.52,12.23,10.15c1.36,6.18,5.22,10.76,9.84,14.9,6.47,5.8,10.11,13.93,16.17,20.13,1.24,1.28,1.63,3.56,2,5.46a93,93,0,0,1,1.81,10.72c.25,2.61,1.52,3.14,3.83,3.37,3.35.34,4.86-2,6.78-3.88,4.54-4.44,5.8-4.46,11.22-1.89,4.51,2.14,9.38,2.08,13.32-1.17a98.57,98.57,0,0,0,10.39-9.47c3.23-3.55,5.64-8.54,11.37-9.19,10.36-1.17,20.73-2.65,30.66,2.19a17.35,17.35,0,0,0,2.65.62c5,1.4,10.56.09,15.12,2.5,5.92,3.13,12,3.41,18.44,3.86,6.62.46,12.25,3.68,15.29,10.25,1.84,4,4.58,7.32,9,8.38,10.82,2.57,18.47,9.89,26.06,17.23a8.17,8.17,0,0,1,2.23,7.91,61.57,61.57,0,0,0-1.18,14.92,6.26,6.26,0,0,0,2.47,5.09c3.1,2.44,6,5.15,9.3,7.3,5.64,3.71,8.73,8.31,8.4,15.45-.33,6.9,6.92,13.13,13.66,13.77,8.08.76,12-5.23,15.48-10,4-5.44,8.53-6.81,14.23-6.3,4.31.37,9.28.72,11.46,5.25,1.86,3.87,4.43,5.74,8.54,6.27,2.22.28,4.34,1.29,6.54,1.85,3.92,1,5.87,3.51,7.19,7.33"/><path class="cls-2" d="M1362.41,459.51a10.42,10.42,0,0,1,.54-7.8c1.38-3.08,3.31-4.18,5.87-1.64,5.29,5.27,12.94,7.66,16.9,14.79,1.08,1.95,5.49,3.36,8.75,2.57,9.87-2.41,19.27-6.35,28.89-9.57,2.34-.78,2.24-1.89.85-3.66-3.83-4.87-7.56-9.84-11.28-14.81-.79-1.06-2.94-2.09-1-3.69,2.14-1.8,2.88.69,3.76,1.8,3.84,4.87,7.55,9.86,11.31,14.79,3.52,4.61,4.7,4.73,9.09,1a40.34,40.34,0,0,1,4.62-3.66,45.24,45.24,0,0,0,19.54-24.83c1.16-3.48,4.91-3,6.52-5.73,3.1-5.2,6.62-10.16,10-15.19,1.86-2.76,4-5.34,5.71-8.2s3.85-3.26,6.48-1.82a5.83,5.83,0,0,0,7.15-.61c2.7-2.22,5.5-.54,8.25-.07.58.1,1.08.62,1.65.7,6.08.84,12.32.72,18,3.65a4.05,4.05,0,0,0,3.79-1c3.58-5.06,9.86-4.72,14.47-7.63a5.91,5.91,0,0,1,2.41-1.14c1.76-.09,4.1-1,5.16.56s-.94,2.89-1.91,4.17a14.23,14.23,0,0,0-3.21,7.33c-.57,5.55-4.53,9.5-7.4,13.89-1.89,2.89-1.87,4.41,1.61,5.68,2.83,1,5.41,2.78,8.22,3.9,3.2,1.29,4,3.29,2.84,6.46-2.17,6-2.61,12.05-.27,18.11a18.53,18.53,0,0,0,2,4.54c2.72,3.71,3.06,7.53.66,11.79-9.08,16.12-18.57,31.93-28.93,47.3-7.34,10.9-12.75,23.08-19.38,34.48-4.72,8.11-9.87,16-15.15,23.77-2.53,3.73-7,5.16-10.84,7.27-1.31.73-2.38,0-3.18-1-4.46-5.57-9.26-7.54-17-5.51a35.33,35.33,0,0,1-25-3c-6.48-3.26-6.75-2.9-11.29,3.06-1.58,2.06-2.45,2.15-3.86-.16-1.81-3-4.21-4.36-7.44-1.53-.74.65-2.12,1.32-2.89,1-7.83-2.67-13,3.14-18.53,6.37-4.78,2.79-8.5,3.61-13.73,1.65-7.3-2.75-14.92-3.75-22.5,0a10.77,10.77,0,0,1-7.06.51c-2.71-.59-5.72-.83-8.23,1.34-1.52,1.32-3.35,1.22-5.13.34-3.49-1.72-6.1-.72-8.89,2-2.35,2.25-5.59,3.56-8.4,5.34-2,1.29-3.33.75-4.22-1.42-2.15-5.18-4.48-10.28-6.52-15.5-1.7-4.38-4-8.22-8.25-10.48-2.54-1.36-2.46-3-1.45-5.21.89-1.92,1.72-3.88,2.51-5.85,2.4-5.94,2.39-5.94-3.92-8-4.17-1.38-8.31-2.89-12.53-4.1-2.67-.77-3.29-2.22-2.54-4.72.43-1.44.41-3,.9-4.43,1.46-4.27,1-7.46-4.18-8.35-2.31-.4-3-1.86-2.35-4,1.24-3.9,2.57-7.77,3.87-11.65.7-2.09,1.91-2.11,3.89-1.49,3,.94,5.51,3.15,9,3.14,2.6,0,4.23-.65,5.26-3.19,1.53-3.8,3.53-7.4,5-11.2,1-2.48,2.32-2.73,4.5-1.79q5.41,2.35,10.92,4.52c3.27,1.3,5.79,1.15,6.88-3.05.92-3.5,2.41-6.85,3.67-10.26.86-2.33,2-4.41,4.57-5.32,3.47-1.21,3.47-4.66,4.54-7.4.83-2.12,1.11-3.33,4.3-1.65,5.37,2.83,11.15,4.57,17.55.83C1359.34,465.13,1363.09,465.26,1362.41,459.51Z"/><path class="cls-2" d="M966.83,147.76a68.19,68.19,0,0,0-1.47,21.54c.44,4-1.33,8.23-2.3,12.31-1.32,5.62-2.68,11.16-.11,16.85.58,1.27.31,3,.12,4.51-1.14,9,.83,18,2.49,26.49s4.35,17.55,9.27,25.28c1.56,2.45,1.4,4.69-.36,6.66-5.51,6.17-7.23,13.8-8.55,21.58-.29,1.69-.51,3.28-1.9,4.45-11.82-4.34-23-10.17-34.51-15.21a10.46,10.46,0,0,0-9.93.32,65.5,65.5,0,0,1-10.06,4.19,10.43,10.43,0,0,1-11.27-2.67c-3.08-3.14-5.94-6.5-8.89-9.76-4.93-5.46-11.54-4.68-15.12,1.95-1.1,2.05-2.2,4-4.21,5.19-.62.38-1.62,1.14-1.9.94-3.9-2.69-5.68.94-8,2.62-3.21,2.28-6.32,4.7-9.5,7a12.17,12.17,0,0,1-2.08.87c1.73-5.88,4.69-10.64,6.9-15.7,1.21-2.79.38-3.72-2.3-5.33-7.63-4.57-15.7-8.59-22.15-15-1.21-1.19-1.1-2.35-.3-3.67,1-1.55,1.9-3.11,2.78-4.7,1.48-2.68,2.91-4.67,5.19-.57,1.34,2.41,2.78,2,4.6.15,5.74-5.91,4.6-11.18-3.17-14-.79-.29-1.56-.48-2.09.15-2.46,2.88-4.4,1.22-6.47-.54-.9-.77-2.11-1.18-3.1-1.88-2.89-2-5.49-2.41-7.27,1.29-1.75-.81-1.18-2.25-1.36-3.32-.72-4.26-2-7.65-7.47-6.37a3.84,3.84,0,0,1-3.33-1.17c-1.51-1.29-4.56-2-3.36-4.6s3.52-1.34,5.41-.19c1.51.92,2.57.11,3.52-1,1.08-1.31.43-2.41-.67-3.05-3.56-2.09-4.82-4.52-2.34-8.41,1.18-1.86-1.08-5.45,1-6.28,2.4-1,2.66,3.13,4.65,4.1s4.16,1.34,5.32-1.3c.5-1.13.88-2.31,2-2.93,1.92-1.05,4.72-1.09,5.1-3.92.5-3.74,1-7.54-.55-11.2-.3-.69-.94-1.47-.82-2.08,1.36-6.65-3.61-8.93-7.91-11.78-14.8-9.79-28.86-20.61-43-31.31-2.87-2.18-1.67-3.44.24-5.26,3.48-3.34,4.29-11.22,1.69-15.15-1-1.53-2.8-1.57-4.38-2.1a7.16,7.16,0,0,1-2.76-12.16c.51-.51,1.25-1.18,1.25-1.77,0-5.84,3.52-10.89,3.62-16.67,0-3.24.74-6.44-2.4-9.2-2.33-2-1.82-5.5-.09-7.89,1.31-1.82,1.47-3.14.38-4.87-1.42-2.27-.13-4.43.38-6.57,2.08-8.7,2.66-8.15,8.9-14.48,4.06-4.13,8.34-9,8.38-15.7,0-1.87-.15-3.91,2.68-3.6,3.23.34,1.35,2.29,1,3.65-.61,2.57,1.46,2.93,3,3.84,2.8,1.68,7.53,2,5.25,7.38-.19.45.39,1.52.91,1.94,5.51,4.45,7.76,11.63,13.72,15.83,4.09,2.88,7.53,6.32,9.58,11.58C832,65.62,840.8,69.53,847,75.66c2.36,2.33,5.12,4.26,7.68,6.39.46.39,1.2.91,1.17,1.33-.4,6.72,5.5,7.61,9.47,10,9.38,5.6,18.95,10.87,28.5,16.16a23,23,0,0,1,5.75,4.41c5.27,5.64,11.39,9.9,18.93,11.95,15.24,4.14,28.64,12.35,42.63,19.24C963,146,964.93,146.88,966.83,147.76Z"/><path class="cls-2" d="M322.49,521.88c.68.25,1.25.42,1.79.66,6,2.7,6.14,2.76,9.19-3.07,1.14-2.17,2.18-2.74,4.78-2.5,4.69.42,9-.94,13.66-2.64,5.47-2,11.12-4.48,17-5.53,2.62-.47,5.54-.64,6-4.32.2-1.54,1.67-2.06,3-2.5,4.61-1.56,8-4.63,11-8.35,4.32-5.36,9.66-9.6,15.16-13.7,1.91-1.42,3.13-1,4.71.44,5.35,4.93,10.92,9.63,16.18,14.66,7.89,7.57,15.87,15,25,21.13,2.1,1.4,3.6,2.68.15,4.3s-4.75,5.13-5.82,8.39c-2,6.11-5,11.62-8.1,17.21-2.76,4.93-4.81,10.33-7.24,15.5-3.94,8.4-9.94,15.19-15.1,22.64-6,8.69-10.58,18-11.83,28.61a6.77,6.77,0,0,1-1.73,4.13c-3.92,3.93-5.31,8.91-6.73,14.12-2.87,10.5-4.82,21.23-8.53,31.52-2.45,6.79-1.07,14.11-2,21.17a85.24,85.24,0,0,0-.34,17.58c.47,5.61-4.29,8.85-8.93,5.62-7.34-5.11-15.92-4.25-23.83-6.37-3.41-.92-7.42.69-11.22.78s-6.29-1.4-7.88-4.81c-1.91-4.1-3.66-8.27-8.91-9.53-1.46-.34-3-2.32-3.62-3.89-1.44-3.54-3.91-4.29-7.25-3.67-2.52.47-5,1-7.57,1.4-1.07.18-2.26,1.86-3.16.4s-1-3.58.28-4.7c6.18-5.23,4.56-10.76,1-16.51-1-1.68-1.6-3.37.68-4.62s1.92-2.89.93-4.95c-4.39-9.19-4.35-9.24-13.08-4.47-4.39,2.4-8.79,4.81-13,7.48-2.55,1.61-4.13,1.12-5.52-1.34-.44-.78-1.17-1.39-1.67-2.15-2-3-3.84-3.28-7.35-1.39-5.17,2.79-11,3-16.27-.66-2.62-1.81-3.54-4.07-1.58-7,2.59-3.82,3.09-7.88,1-12.06a3.31,3.31,0,0,1,1-4.43c3-2.7,4.26-6.39,4.58-10.14a13.52,13.52,0,0,1,6.69-10.77c3.28-2.05,4.19-4.63,3.56-8-1.07-5.83.92-9.6,6.83-11.15,4.12-1.07,6-4.66,7.6-8a21.34,21.34,0,0,1,15.06-12c4.26-1,6.87-2.81,5.2-7.75-.43-1.26-.26-2.71-.54-4-.64-3-1-4.72,3.48-5.71,4.88-1.07,10-4.06,10.73-10.33.19-1.59.86-2.46,2.25-1.93,3.75,1.41,6.9.74,9.39-2.35s.94-6.33.33-9.55C322,522.62,322.17,522.48,322.49,521.88Z"/><path class="cls-2" d="M561.81,691.32c-10.2,5.38-17.59,12.87-20.26,24.64-.94,4.15-4.47,7.68-5.61,11.82-3.73,13.53-15.55,14.46-26.07,17.22-7.3,1.92-14.14-1.63-21.09-3.19-5.24-1.18-10.4-1.86-15.71-.75a4.35,4.35,0,0,1-2.21,0c-5.33-1.82-10.63-3.72-15.93-5.61a3.32,3.32,0,0,1-2.55-3.35c.08-6-2.47-11.45-3.9-17.13-.65-2.59-2.55-3.68-5.13-3.52-2.87.17-3.63,2-3.87,4.62-.54,5.89-1.54,6.36-6.61,3.3-3.88-2.34-7.52-5-11.16-7.7-7.63-5.67-16.84-6.4-26-5.44-2.4.26-4.79.48-7.2.54-.68-17.06-1.11-34.07,4.3-50.65,2.24-6.89,3.9-14,5.45-21.06,1.19-5.38,2.19-10.67,6.7-14.52a6.1,6.1,0,0,0,1.57-3.69c2-16.19,11-28.79,20.54-41.31a81,81,0,0,0,12.66-24.38,13.86,13.86,0,0,1,1.87-3.6,47.11,47.11,0,0,0,6.7-13.85,26.7,26.7,0,0,1,2.45-5.86c2.8-4.71,7.64-6.05,12.14-3.1,6.26,4.12,12.74,7.59,20.22,8.85,4.28.72,6.66,4,9.31,6.88,10.32,11.1,20.68,22.16,30.76,33.47,7.46,8.37,15.56,16.14,22.56,24.94,1.9,2.39.9,4.21.4,6.27s-2.5,1.41-3.82,1.31c-9.79-.73-19.57-1.64-29.35-2.39a60.91,60.91,0,0,0-10.45-.22c-3.11.31-4.86,2.69-3,5.51,4.39,6.61,8.37,13.48,16,17.46,5.89,3.09,8.52,9.59,12.25,14.85.75,1,0,2.06-.79,2.81-1.45,1.39-2.12,2.87-1.23,4.88s-.86,2.66-2,3.53c-6.5,5-13,10-19.57,14.76-2.33,1.7-3.43,3.68-2,6.16s.72,7.26,5.91,6.62c1.07-.13,2.7-.7,3.2.81.39,1.18-.68,2.24-1.4,3.19-2.38,3.13-4.83,6.22-7.16,9.39-.49.66-1.21,1.58-.43,2.45.57.63,1.39.24,2.13.07,6.14-1.46,12.74-.25,18.6-3.32,1.72-.9,2.05.47,2.43,1.66.29.88.66,1.79,1.75,1.8s1.52-.86,1.78-1.76c1.58-5.5,5.34-9.43,9.38-13.16.56-.52,1.3-1,1.57-1.64,1.72-4.1,3.3-8.06,8.91-4.19,1.1.76,2.14-.69,2.61-1.89,2.17-5.56,5.6-1.22,8.18-.73,3.13.6,2.77,3.45,1.25,5.42C557.17,683.22,560.76,687.12,561.81,691.32Z"/><path class="cls-2" d="M575.51,455.7c0-.31,0-.67-.09-.9-3.89-6.28.92-5.18,4.35-5.06a6.42,6.42,0,0,0,4.46-1.84c1.81-1.44,3.41-3,6.4-2,2.68.83,4-2.2,5.53-4,3.57-4.35,7.8-5.3,12.5-2.22,1.65,1.08,2.5.47,3.44-.63,1.18-1.38,2.25-2.85,3.41-4.25,1.64-2,3-3.24,5.11-.1s4.63.71,6.64-.71c2.6-1.83,4.88-3.47,5.61,1.45a2.4,2.4,0,0,0,1.76,1.92c6.87,2.34,11.28,7.61,15,13.3,3.24,4.93,8.55,7.38,12.37,11.71,6.49,7.35,12.64,15.15,20.46,21.3,2.39,1.89,2.36,7.46.26,9.68-5.2,5.5-11.25,10.45-15.35,16.67-4.66,7.08-11.14,11.75-17.3,17A7.94,7.94,0,0,0,648,529.3c-4.6,9.58-12.86,16-20.1,23.29a9.57,9.57,0,0,0-3.2,8c.25,3.78,0,7.59.07,11.38,0,2-.79,2.89-2.78,2.41-10-2.42-20.23-2.11-30.32-1.49-11.74.71-23.4,2.62-35.11,3.84-5.55.58-8.49,5-12.38,8-2,1.56-3,1.57-4.79-.34-11.06-12.07-22.25-24-33.4-36-4-4.33-8.21-8.52-12.05-13a20.13,20.13,0,0,0-11.51-6.77c-6.49-1.42-12.18-4.49-17.55-8.29-3.53-2.5-3.91-7.83-.07-9.85,7.88-4.14,12.67-11.16,15.46-18.71A80.62,80.62,0,0,1,499,462c6.91-6.88,13.91-13.7,20.77-20.66,1.78-1.8,4.83-2.42,7.37-3.38,1.95-.74,3,.45,3.92,2.12,3.45,6.44,8.44,11.8,12.53,17.8a3.43,3.43,0,0,0,3.39,1.79,5,5,0,0,1,4.17,1.4c4.49,4.28,9.08,3.38,13.65.17,1.34-.94,2,.06,2.63.82,2.28,2.8,3.92,2,5.47-.74C573.88,459.53,575.53,458,575.51,455.7Z"/><path class="cls-2" d="M232,826.27c2.41-3.64,4.89-7.24,7.24-10.92,3.75-5.87,3.28-11.2-1.45-16.24-3.05-3.27-4.18-7.44-5.05-11.53-1.31-6.24-6.16-9.53-10.18-13.56a2.9,2.9,0,0,0-2.09-.65c-9.15.91-16.55-4.31-24.59-7.15-4.73-1.67-5.54-4.18-3.87-8.58.71-1.88-.38-2.46-1.66-3.08q-26.61-13-53.23-25.92-10-4.89-20-9.83c-1.11-.54-2.06-1-1.89-2.67.68-6.54,5.45-11.63,12.17-13.1a19.78,19.78,0,0,0,11.3-6.78c3.12-3.75,7.94-4.75,12.09-6.57,2.71-1.19,3.7-2.57,3.29-5-.59-3.5-1.91-7-5.18-8.71-5.42-2.74-7-8-9.6-12.72a4.75,4.75,0,0,1-.23-3.94c4.7-15.1,10.4-29.72,19.16-43,4.75-7.23,12.38-10.78,19.41-14.49,2.66-1.41,8-1.77,12.62,0,5,1.9,10.88,1.39,16.38,1.93a3.89,3.89,0,0,1,.91,0c6.68,2.57,13.71,4.51,19.91,8,5.3,2.94,8.59,2.64,10.42-3.22,2-6.43,3.45-12.85.37-19.46a11.76,11.76,0,0,0-3.62-4.56c-3.26-2.45-4.32-6.16-5.84-9.58-.86-1.94,5.09-7.21,7.56-6.39,6.72,2.25,14.08,1.53,20.55,5.08,4.65,2.54,5.77,6.88,1.7,10.29-2.09,1.76-1.54,3.94-1.3,5.88.74,6-.86,10.65-6.44,13.68-1.79,1-2.45,3-2.77,5-.76,5-1.86,9.8-5.51,13.65-2.37,2.49-2.38,5.55-1.1,8.49,1.19,2.76,1.15,5.24-.59,7.69a1,1,0,0,0-.18.42c-.22,5.42-2.5,8.48-8.39,9.23-3,.4-4,5.75-1.2,7.39,8,4.67,6.68,12.63,7.72,19.65.58,3.9,1.64,6.53,5.29,8.65,6.92,4,13.85,8.12,19.84,13.6a7.08,7.08,0,0,1,2.65,4.46c.79,5.59,3.54,10.31,7.07,14.52,1.66,2,2.06,3.69.56,5.64-5.4,7-4.13,13.67.25,20.84a87.58,87.58,0,0,1,9.76,22.91c1.39,5.14,4.63,9.69,4.14,15.5a38,38,0,0,1-2,9.29c-3.22,9.36-2.67,19.41-5.4,28.89-1.05,3.65-2.25,3.6-5.84,3.35-10-.71-19.88-4.33-30.06-1.83-1.19.29-3,.53-3,1.64-.28,8-6.17,3.52-9.42,4.85Z"/><path class="cls-2" d="M465.63,990.05c-1.61-2.38-2.2-4.48-.62-6.35,2.69-3.16,2-6.18-.06-9.12-2.52-3.53-2.78-6.85.17-10.26,1.64-1.89.87-3.54-.66-5.2-5.76-6.24-11.36-12.61-17.17-18.8-1.7-1.81-2.5-3,.42-4.19,2.24-.91,2.22-2.53,1.25-4.47-1.63-3.3-2-6.63.15-9.91.75-1.12.46-2.19-.07-3.41-4.29-9.81-10.91-18-17.8-26-2.17-2.53-4.26-5.14-6.56-7.54-2-2.08-1.73-3.34.63-5,3.21-2.31,6.93-3,10.51-4.12,1.88-.6,2.78.57,3.64,1.91,3.28,5.07,7.85,8.73,12.79,12.09,2.1,1.44,3.54,1.56,5.64,0,4.36-3.26,8.07-6.25,7.5-12.83-.39-4.51-2-6-5.92-5.76s-5.8-1.59-7.3-4.82c-1-2.25-.49-3.36,1.64-4.18,6.3-2.43,10.34-7,12.89-13.21a45.35,45.35,0,0,1,9.92-15.6c.89-.87,1.21-1.64.58-2.78-2.28-4.12-1.6-8.87-2.75-13.24-.7-2.65.32-4.54,3.18-3.69,8.38,2.51,11.71-2.48,15.1-8.83,4.65-8.66,5-8.57-3.33-13.91-.89-.57-1.75-1.17-3.36-2.25,7.52-4.16,12.89-10.23,18.56-16,2.9-2.94,4-6.4,9.8-1.64,5.52,4.56,6.45,9.48,7.13,15.12a14.39,14.39,0,0,0,7.61,11.59c2.17,1.21,3.65,2.48,3.61,5.21a6.42,6.42,0,0,0,1.18,3.86c4,5,4,10.92,4.1,16.78.07,3.27.22,6.3,2.8,8.79a6.13,6.13,0,0,1,1.68,5.06c-1.13,7.17,3.52,11.36,8.34,14.52,7.92,5.19,10.15,12.68,10.95,21.22.37,4,1.06,7.67,4.07,10.78,1.46,1.51,4.12,3.94-.22,5.88-1.58.71-.26,1.87.57,2.38,5,3,10.11,5.9,16,2.47,2-1.17,3-.13,3.74,1.08,2.88,5.08,8.29,7.64,11.71,12.28,3.53,4.81,5.48,4.58,11,2.16,1.88-.82,4.12-4.29,6.11-1.27,2.33,3.52-2.13,4-3.79,5.34a107.46,107.46,0,0,1-11.24,7.72c-2.28,1.44-3,3-1.12,5.08s1.14,3.48-.65,4.88c-2.73,2.15-4.16,6.48-9.14,4.86-1.57-.51-2.81,1.62-3.86,2.85-1.92,2.23-3.63,3-5.8.3-.69-.87-1.55-2.39-2.83-1.82-1.55.67-.82,2.45-.77,3.7.37,8.75.23,17.49.05,26.25-.24,12.08-2.92,23.67-5.8,35.26-.31,1.25-.67,2.94-2.24,3.14s-1.9-1.45-2.4-2.4A63.54,63.54,0,0,1,561,994.9a23.2,23.2,0,0,0-6.58-9.63q-19.38-17.91-38.61-36c-2.25-2.13-4.16-2-6.48-.6-8.24,4.84-16.53,9.59-24.73,14.49-3.39,2-6.64,4.25-10.45,5.48-1.91.62-3.45,1.65-1.93,4,1.83,2.78.8,5.06-.82,7.52C469.37,983.17,467.71,986.42,465.63,990.05Z"/><path class="cls-2" d="M1311.16,430.57c2.22-.33,4.48-.55,6.68-1,2.66-.58,3.57.35,2.3,2.71-2.39,4.43-.33,7,3.28,9.28,1.79,1.12,3.3,2.68,5,3.86a4.58,4.58,0,0,1,2,5.53c-.62,2.34-1.14,4.7-1.78,7-.56,2-1.82,4.07,1.78,4.74,1.35.24.32,7.36-1.78,8.22-6.05,2.47-6.89,8.06-8.71,13.09-2.41,6.64-2.35,6.64-8.86,3.75-3-1.35-6.21-2.44-9.25-3.8-2.6-1.17-3.84-.21-4.83,2.23-1.77,4.35-3.91,8.55-5.66,12.9-.92,2.3-2.21,2.54-4.19,1.61q-4.31-2-8.65-4c-2.3-1.05-3.93-.84-4.81,2-1.91,6.23-3.87,12.46-6.18,18.55-1.2,3.15-.28,4.7,2.7,5.13,5,.73,5.41,3.44,4.35,7.75-2.2,8.94-2,9,6.92,11.75,2.45.76,4.92,1.48,7.39,2.21,5.51,1.63,5.51,1.62,3.15,6.6-.52,1.1-1,2.21-1.46,3.34-3,7.65-3,6.12-11.08,5.86-9.75-.3-18-4.32-26.81-6.91-3.26-1-4.67-2.05-4.38-6.21.44-6.32,1.35-12.65,1.2-19-.08-3.81,2-7,3.16-10.37.84-2.37.3-3.65-1.92-4.69-7.83-3.67-15.61-7.45-23.41-11.19-.82-.39-1.73-1.06-2.56-.49-1.24.86-.28,2.06.14,2.84,1.43,2.7.39,4.48-1.64,6.31-2.6,2.34-5,4.9-7.43,7.4-2,2.06-3.46,3.85-7.23,2-2.31-1.15-6.3.52-8.14,3.61s-3.53,6.36-5.15,9.62c-1,2-2.43,3-4.72,2.53s-2.26-2.13-2.21-3.87c0-1.13-.21-2.25-1.4-2.6-5.15-1.51-10.22-4.12-15.76-1.31a10.44,10.44,0,0,1-3.78,1.41c-2.21.13-4.94,1.06-6.52-.82s1.21-3.33,1.83-5.05c2-5.6,2.52-11.49,3.72-17.24.3-1.44-.61-2.24-1.84-2.76-1.54-.64-3.08-1.28-4.61-1.94-2.36-1-4.31-1.51-1.73-4.94,2.45-3.26,2.34-7.68,1.38-11.82-.73-3.15-1.17-6.22,1.43-9,1.52-1.61,1.22-3.52-.79-4.57-3.61-1.87-3-4.18-1.3-7.06,5.59-9.2,11-18.5,16.56-27.72,4.09-6.79,10.6-11.64,14.82-18.34.93-1.48,2.07-.58,3.09.18,2.43,1.81,4.89,3.57,7.33,5.38,1.83,1.35,3.3,1.25,4.45-.91.78-1.47,2.17-2.78,2.47-4.31,1.88-9.72,9.08-16.68,13-25.36,3.77-8.41,6.15-9,14.54-5.68,5.54,2.19,5.71,2.25,7.75-3.3,1-2.61,2.46-3.09,5-3.49,6.16-1,12.41-.19,18.53-1.52,3.82-.83,7,1.24,10.25,2.9,13.29,6.69,25.68,14.82,38,23.08,2.86,1.92,3,3,.55,5.29-5.08,4.75-8.83,10.58-12.61,16.37-1.31,2-1.38,3.28,1.66,3.33A57,57,0,0,1,1311.16,430.57Z"/><path class="cls-2" d="M771.64,146.42c-.07-1.95.1-3.22-.82-4.21-1.51-1.61-3.35-3.49-.54-5.15,2.46-1.44,4.28-5.39,8.44-1.89,12.88,10.83,26.93,20.11,40.72,29.72,1.32.91,2.65,1.54,1.67,3.53-.77,1.57.51,2.5,1.41,3.51,2.39,2.69,2.45,6.2,2.71,9.4.28,3.5-4,3-5.78,5-1.09,1.29-2.05-.53-2.74-1.38-1.76-2.17-2.93-5.39-6.71-3.87-4.22,1.68-3.92,6-3.52,8.91.76,5.57-1.53,9.63-4.52,13.57-3.14,4.13-2.83,7,1.16,10.32,2.85,2.36,5.45,4.75,9.6,4.29,1.93-.22,2.23,1.72,2.57,3.19.51,2.21.84,4.46,2.64,6.14s4.06,2.38,6,.39c1.37-1.43,3.24-2.54,4-.81,1,2.18,4.8,3.34,2.83,6.76-1.82,3.15-3.5,6.38-5.33,9.53-1.58,2.74-1,4.59,1.55,6.58,4.64,3.65,9.17,7.32,14.45,10.16,2.81,1.51,3.68,5.87,7.76,6.49,1.08.16.37,1.52,0,2.33-2.89,6.35-5.72,12.72-8.69,19-2.12,4.5-6.54,6.68-10.25,9.45-18.7,13.94-37.56,27.67-56.23,41.64-3.23,2.41-5.22,2.08-7.12-1.24a15.58,15.58,0,0,0-2.11-3c-1.77-1.85-1.79-3.3.52-4.76a13.12,13.12,0,0,0,3.37-3c1.73-2.26,1.85-4.41-1-6.06-4.06-2.37-8.07-4.82-12.12-7.21a4.39,4.39,0,0,0-2.05-.85c-10.07,0-11.93-8.6-15.63-15-1.42-2.48-3.42-4.17-5.27-6.1-1.63-1.69-2.52-2.75.08-4.48,3.13-2.09,5.9-4.72,8.9-7,2.62-2,3.45-3.88-.11-5.7-4.9-2.52-6.72-8.68-12.35-10.37-5.2-1.57-8.15-5.37-9.92-10.31-.51-1.43-1.25-3-2.9-3.28-4.49-.8-6.6-3.89-8-7.77-.16-.43-.35-1-.69-1.16-5.72-2.5-2.94-5.86-1.51-9.73,2.67-7.23,4.73-14.73,2.48-22.59-.6-2.12-1.5-4.12-3.64-5-3.47-1.35-2.4-3.11-1.21-5.63,4-8.56,12.23-12.79,18.87-18.64,8.92-7.85,17.41-15.95,21-27.89.93-3.09,3-5.25,6.81-3.16a10.19,10.19,0,0,0,9.61.34c2.37-1.1,4.68-.64,7.09,0C770.15,150.27,772.42,149.69,771.64,146.42Z"/><path class="cls-2" d="M817.11,901c-.59,2.23-.34,3.42,2.52,3.83,4,.58,7.83,1.61,10.54-2.64.37-.58,1-1.32,1.81-.56.38.36.79,1.18.63,1.55-1.32,3,4.51,4,1.62,8.25-3.76,5.53-7.55,11.28-9.31,18.06-1.52,5.84-.73,11.72-1.16,17.55-.23,3.17,3.81,3.75,5.7,5.69,2.44,2.52,2.37,3.87.42,6.3-2.26,2.84-4.09,6-6.23,9-.67.92-.92,3.09-2.87,1.78-1.4-.95-3.37-1.71-2.17-4.24,1.31-2.76-.08-4.54-2.53-5.85-1.05-.56-2.06-.88-2.86.13-3.16,4-5.26,1.27-7.46-1.09-2.83-3-5.5-2.68-8.19.56-2.16,2.6-1.5,4.07,1.12,5.66a90.26,90.26,0,0,1,14.65,10.75c2.19,2,2.32,3.52.41,5.63a11.17,11.17,0,0,1-5,3.69c-3.9,1.17-7.77,2.47-11.62,3.83-2.09.74-4.43,1.22-6.23.3-4.37-2.2-7.4-1.45-10.28,2.54-2.22,3.08-5.29,3.38-8.86,1.45-6.66-3.6-13.63-6.64-20.27-10.27-3.4-1.86-7.27-2-10.63-3.87a44.7,44.7,0,0,1-10-7.79c-1.64-1.63-2.91-4.54-6.22-2-1,.78-2.4-.93-3.47-1.7a123.6,123.6,0,0,0-19.82-12c-2.69-1.24-4-.84-5.34,1.78-2.42,4.89-5.29,9.55-7.64,14.47-1.41,3-2.62,2.83-4.76.79a86.47,86.47,0,0,0-7.65-6.38c-5.62-4.21-6.15-6.74-2-12.75,3-4.37,6.08-8.73,9.46-12.82,2.14-2.57,1.78-4.26-.3-6.6-4.64-5.22-8.84-10.83-13.55-16-2.45-2.68-1.89-4,.73-6,4.75-3.54,9.16-7.52,13.87-11.1,2.35-1.79,2.86-3.28.49-5.32-.68-.59-1.12-1.47-1.8-2.05-2.78-2.35-2.35-4,.89-5.47s3.28-3.08.59-5.52c-10.7-9.7-8.14-11.89,1.85-19.08,3.71-2.68,7.35-4.14,11.77-3.13a19.12,19.12,0,0,0,13.61-2c3.8-2,7.25-2.56,9.95,2.18,3.37,5.89,9.78,8.68,14.56,13.17,2.19,2.06,3.77.3,5.11-.86,4-3.44,8.52-4.19,13.56-3.81,1.94.14,3.68.82,3.75,2.55.23,6.21,5.14,7.86,9.25,10.63,4.53,3.06,8.56,4.18,12.79-.24,1.31-1.38,2.56-.78,3.89.39,8.37,7.41,18.68,11.81,28,17.79a4.12,4.12,0,0,0,3.87.67Z"/><path class="cls-2" d="M221,967.43c5.76,5.72,12.6,8.29,19.73,10.34a8.17,8.17,0,0,0,5.66-.18c18.18-7.11,34.63-17.42,51.33-27.31,12.87-7.62,25.79-15.17,39.37-23.16a41.35,41.35,0,0,1-.93,6.28c-.86,2.67-.89,4.59,2.31,5.64,2.38.78,1.44,2.85,1.35,4.65-.42,8.79-5.17,16-8.34,23.84-1.71,4.2-3.48,8.39-5.28,12.56-1.3,3-.49,4.72,2.93,4.8,16.73.39,30.7,8.42,44.77,16.15,2,1.12,3.72,2.72,6.09.91.88-.67,1.66-.31,2.49.23,6.22,4.06,12.53,8,17.47,13.7,2,2.3.91,3.25-.91,4.61-9.22,6.87-18.33,13.9-27.59,20.73-4.81,3.55-8.1,8.51-12.28,12.63-2.33,2.31-4.58,4.44-6.88,0-.26-.51-1-1.3-1.2-1.21-5.22,2.69-8.52-2.92-13.08-3a5.24,5.24,0,0,1-3-.78c-4.48-3.56-10.12-3.62-15.24-5.12-3.22-.94-5.61,2.11-8.3,3.35-4.18,1.92-11.18,2.39-14.89-.62-2.9-2.35-5.29-1.82-8.7-1-8.48,2.13-17.69,5.72-25.81.75-5-3.06-9.32-5-15-3.92-.28.06-.78,0-.87-.13-2.71-4.94-8.88-4.76-12.37-8.37-1.51-1.56-2.61-1.71-4.29-.89-2.86,1.4-5.7,2.86-8.61,4.15-1.91.84-4.09,2.38-6,1.26-4.31-2.49-7.4-.69-10.27,2.24-2.35,2.39-4.54,2.48-6.39-.3-2.22-3.32-4.76-.78-6.94-.39-5.4,1-6.51.48-4.34-4.21,3.75-8.06,5.19-16.63,7.35-25.08.47-1.85,1.74-3.51,2.66-5.24.78-1.47,2.37-3,2.27-4.38-.55-7.56,5.21-8.65,10.27-10.34a37.42,37.42,0,0,0,10.4-5.51c3.45-2.56,1.52-6.45,1.24-9.69C221,973.06,220.47,970.73,221,967.43Z"/><path class="cls-2" d="M585.38,699.41a2,2,0,0,1,.87-.14c2.11-.31,4.36-.33,5.59-2.56h0c.76,0,1.49-.09,1.84-.92l0,0c1.58.09,3-.12,3.67-1.86l0,0c7.42-1,8.64-7.85,11.89-12.77l0,0,.93-.93,0,0a1.69,1.69,0,0,0,.95-1.85l0,0c1.26,0,1.83-.65,1.83-1.87v0l.93-.93,0,0a2.62,2.62,0,0,0,1.84-2.76v0c.86-.34,1-1,1-1.85l0,0c1.85,0,2.64-1,2.73-2.78v0A2.6,2.6,0,0,0,621,665.7v0l.93-.93,0,0c3-3.42,5.43-7.41,9-10.38,1-.84,2.09-1.77,2-3.33l0,0c.78,0,1.49-.13,1.81-1v0l.86-.75c6.3.19,10,3.4,11.39,9.27a5.53,5.53,0,0,1-.79,4.59c-7.69,13.12-12.22,27.43-11.9,42.51.17,7.64-2.86,11.64-8.27,15.38-6.94,4.79-8.79,13.66-4.51,21.83,1.38,2.66,3.2,5.09,4.81,7.62a13.94,13.94,0,0,0-9.61,7.65c-1.5,3.11-4.37,5-6.68,7.38s-2.47,4.57-2,7.8c1.83,11.63,9.14,20.27,15.24,29.57a18.44,18.44,0,0,1,3.27,10.65c-.07,6.37-.16,12.76.08,19.12.14,3.37-.93,4.29-4.33,4.48-10.68.63-21.5-.26-32,2.57a12.32,12.32,0,0,0-4.86,2.3c-2.36,2-3.42,3.88-.34,6.08,2.89,2.08,2,3.86-.35,5.66-3,2.31-5.87,4.78-8.89,7.05-2.65,2-3.53,4.14-2.1,7.4,1.26,2.89,1.81,6.08,2.86,9.07a4.38,4.38,0,0,1-.38,3.89c-1.91,3.4-3.12,3.31-5.84.49-3.7-3.84-4.35-8.81-4.56-13.46-.47-10.14-6.81-16.2-13.85-21.82-3.27-2.6-5.11-5.36-4.84-9.6.11-1.6,0-3.64-.94-4.8-4.48-5.74-3.14-12.71-4.35-19.11-.41-2.13-1.38-4-1.89-6-1.7-6.72-4-12.48-11-15.92-3.68-1.82-3-7-3.53-10.82-.67-5.13-1.49-9.57-7.07-12-3.18-1.41-4.92-4.83-5.08-8.61a14,14,0,0,0,6.5-1.83l.07,0c1,0,2.08.27,2.66-.93h0a1.61,1.61,0,0,0,1.81-.9v0l.94-.89h0c2.81.07,5-1.52,7.28-2.78h0l1-.9,0,0c.78,0,1.51-.08,1.85-.94l0,0,.94-.94,0,0,.93-.94,0,0,.94-.94,0,0,.94-.94h0c1.87-.06,2.92-1.22,3.67-2.76l0,0a12.41,12.41,0,0,0,5.5-7.31v0a2.6,2.6,0,0,0,1.83-2.76v0a2.62,2.62,0,0,0,1.84-2.77v0c.86-.34,1-1.06.95-1.85l0,0a1.62,1.62,0,0,0,1.84-1.86v0c1.32-1.28,2.57-2.61,2.74-4.59v0c4.07-2.72,5-7.42,7-11.4,2.2-4.51,5.26-7.55,10.19-8.7,1.65-.39,3.65-.16,4.58-2.15l2.23-.32c.65.78,1.15.63,1.55-.24l.07,0C583.73,700.32,584.83,700.66,585.38,699.41Z"/><path class="cls-2" d="M115.74,1079.58l.76-.8c6.21-3.91,7.78-15.31,2.89-20.94l0,0a9.36,9.36,0,0,0-2.78-6.42l0,0c0-.77-.09-1.5-.92-1.86v0c-.81-7.32-3.73-14.64,0-22l0,0a2.73,2.73,0,0,0,1.84-2.77l0,0a2.74,2.74,0,0,0,1.84-2.77v0c.83-.36.94-1.08.94-1.86l0,0c2.18-.29,2.47-2,2.76-3.69l0,0c2-.89,2.55-3,3.23-4.7,4-10.19,7.63-20.51,13.2-30v0a2.8,2.8,0,0,0,1.84-2.77l0,0c.83-.36,1-1.08,1-1.86l0,0c1.84,0,2.14-1.55,2.77-2.77l0,0c1.25-1.33,2.58-2.61,2.76-4.58v0l.92-.94,0,0,.93-.94,0,0c2.5-1.4,2.54-4.18,3.59-6.4.35-1.52,1.31-2.9,1-4.57l0,.06c.91-.32.93-1.1.94-1.88l0,.05c.84-.36.92-1.1.94-1.87l0,0a1.87,1.87,0,0,0,.94-1.87l0,.05a2,2,0,0,0,.94-1.87l0,0a1.86,1.86,0,0,0,.94-1.87l0,0a1.87,1.87,0,0,0,.95-1.86l0,0c1.59-3.55,3.25-2.78,5.61-.49,5.14,5,10.86,8.48,18.6,6.19,2.46-.73,5.15-.73,6,2.9.53,2.22,2.31,1.52,3.68.81,6.58-3.43,12.86-6.78,16.28-14.31,2.51-5.52,8.48-9,11.09-14.81a45.76,45.76,0,0,1,3.59-6.31,6.48,6.48,0,0,1,9.68-1.87,17.11,17.11,0,0,1,3.27,3.15c4.48,5.51,10.36,6.62,16.84,5.16,4.6-1,8.29-.45,11.2,3.58.94,1.32,2.62,2.08,3.68,3.34,2.27,2.72,5,5.39,2.55,9.46-1.69,2.77.42,4.48,1.88,6.38,5.39,7,5.29,6.83-2.24,11.33a148.66,148.66,0,0,1-24.56,11.83c-7.05,2.6-13.46-1.27-19.17-5.44-2.56-1.87-4.81-4.15-7.25-6.18-1.77-1.47-2.56-1.23-3.32,1.26-1.74,5.66.46,11.31-.37,17a5.82,5.82,0,0,1-2.52,4.55c-4.42,3.41-10.2,3.73-14.84,6.75-2.16,1.4-3.5,2.59-3.2,5.29.18,1.62.28,3.34-.95,4.77-5.15,5.95-5.66,13.51-7.23,20.72-.39,1.76-.56,3.75-1.51,5.18-4.77,7.24-5.63,16-5,23.58.61,7.16-.55,13.53-1.57,20.22a10.89,10.89,0,0,1-3.62,6.64,82.89,82.89,0,0,0-15.68,18.77c-2.48,4.17-7.39,5.06-11.24,7.35-3.59,2.13-6.82,4.41-12,2.27-3.55-1.45-8.44-.57-12.32,3.09-2.83,2.66-6.61,4.53-9.77,7.1-1.39,1.13-3.47,1.22-5.61.55-4.6-1.45-9.39-2.29-14-3.58-2.31-.65-3.82.2-5.16,1.84-2.84,3.46-6.85,5.47-10.24,8.25-.77.62-1.74,1.55-2.83,1s-.6-1.89-.69-2.89c-.34-3.76-.63-7.52-.94-11.29v.07a1.81,1.81,0,0,0,.94-1.86l0,0,.94-1,0,0,.88-1c0-1.42,1.56-1.65,2-2.75,1.76,0,2.5-1,2.58-2.62l.09-.08c2.26-1.74,5.52-1.89,7.24-4.51l0,0c5.68-2.66,11.84-4.18,17.32-7.29h0a12,12,0,0,0,7.32-7.3v0C115.69,1081.15,115.76,1080.39,115.74,1079.58Z"/><path class="cls-2" d="M833.79,961.59c1.33,4.23,3.63,8.17,2.76,12.89a2.43,2.43,0,0,0,.58,2.52c2.63,2.14,1.79,3.43-1,4.22-1.56.43-1.72,1.59-1.6,2.84.7,7.57-1.27,14.73-3.28,21.87-.63,2.23-.29,3.29,2.22,3.77a32.25,32.25,0,0,1,11.86,4.4c2.19,1.42,4.14.38,6.06-.32,2.55-.94,4.68-.91,6.53,1.36.83,1,2.11,2.47,3.32.85,3-4,6.54-2.78,10.59-1.32-2.3,4.12-4.6,8.15-6.79,12.25-.59,1.11-1.77,2.2-.72,3.73.7,1,2.68,1.83,1.48,3.35a36,36,0,0,1-5.78,5.79c-1.61,1.27-7.31-2-8.29-4.63-.84-2.24-1.11-4.67-2.69-6.67-1.42-1.8-2.32-1.62-3.24.29-.79,1.64-2.22,3.27-2.25,4.93-.12,7.09-6.08,9-10.37,12.49-3.72,3-8.82,4.72-10.41,9.75-1.09,3.48-2.09,6.13-6.39,6.72-3.35.46-6.49,2.64-9.68-.46-1.34-1.3-2.42-.1-3.47.85-6.63,6-15.73,6.88-22.86,1.38-6.36-4.9-13.57-7.75-20.73-11-3.56-1.62-6.83-.42-10.18-.74-9.57-.92-19.13-3.56-28.86-1.32a3.34,3.34,0,0,1-1.8,0c-4.54-1.77-8.89-4.73-14.09-2-.2.1-.81-.38-1.11-.7-7.85-8.3-18-6.14-27.63-5.93a17.76,17.76,0,0,0-2.67.46c-4.67.85-7.65-.48-9-5.56a164.53,164.53,0,0,0-5.82-16.24,17.39,17.39,0,0,0-4.08-6.52c-2.36-2.26-1.7-4.83,0-7s3.9-.38,5.75.34a6,6,0,0,1,2,1.84c2.27,2.69,4,2.82,5.53-.76,3.16-7.24,8.49-12.86,14.13-18.22,1.33-1.26,2.85-2.56,1.94-4.67s-2.75-2.5-4.9-2.55c-1.52,0-4.29,1-4.34-.9-.09-2.82,1.89-5.66,4.08-7.28,1.71-1.26,3.38,1.14,4.65,2.58s.38,4,2.84,5.55c3.07-5.65,6.07-11.33,9.22-16.93,5.29-9.41,2.62-8.29,12.81-3.22a50.31,50.31,0,0,1,11.17,7.76c3.66,3.32,8.85,2.75,12.52,6.17,5.21,4.85,11.57,7.65,18.6,9.68,6.72,1.95,13,5.76,19.22,9.08,6.58,3.49,8,3.67,13.38-1.62,2.43-2.4,4.64-3.11,7.61-1.59a6.69,6.69,0,0,0,5.7,0c3.69-1.37,7.47-2.48,11.2-3.77,6.65-2.3,12.51-5.39,13-13.58,0-.26.12-.7.27-.74,6.84-1.77,7.56-9,11.73-13.12C832.73,961.85,833.08,961.83,833.79,961.59Z"/><path class="cls-2" d="M650.88,642c-6-4.34-12.85-4.17-19.62-3.54-6.57.61-10.57,5.58-14.37,10.28-6,7.41-11.52,15.16-17.5,22.57-2.42,3-3.67,6.59-5.78,9.74-5.08,7.59-12.87,10.76-21.86,8.58-.59-.15-1.19-.22-1.79-.33-5.75-2.06-6.32-3.2-4.75-9.44.36-1.47.73-2.94,1-4.43.4-2.34-.63-4.47-1.17-6.65-.84-3.44-3.4-1.12-5.2-1.43-1.63-.29-3.2-.88-4.82-1.28-8.11-2-14.43,1.51-17.85,8.76a21.73,21.73,0,0,1-11.37,11c-3.84,1.6-6.83,5.24-11.55,4.7-.79-.09-1.78,1-2.35-.28-.45-1,.4-1.65.9-2.4,1.76-2.65,3.45-5.34,5.21-8,1.64-2.46.62-3.25-1.9-3.22-1.52,0-3.05-.08-4.56,0-2,.12-3.61-.22-4.29-2.41s.44-3.51,2-4.67c6.27-4.77,12.47-9.62,18.88-14.19,2.58-1.84,4.67-3.48,3.14-7a1.7,1.7,0,0,1,.37-2.08c3.42-3,1.53-5.58-.43-8.3-2.39-3.31-4.57-6.78-7-10.05a16.92,16.92,0,0,0-6.89-5.69c-5.39-2.35-8.08-7.62-11.24-12.18-1.52-2.19,1.07-1.88,2.13-1.81,6,.36,12.06.93,18.09,1.32,7.39.47,14.75,1.82,22.18,1.3,2.88-.2,5.05-.08,4.4-5.25-.7-5.64-3-9.44-6.35-13.21-2-2.25-.33-3.45,1-4.92,4.74-5.13,11.12-6.57,17.56-7.45,10.77-1.45,21.58-3.09,32.41-3.46,7.92-.28,15.95,1.09,23.87,2.2,6.5.91,7,.74,7.07-5.77,0-6.92.88-7.57,7.31-5,13.93,5.58,27.8,11.3,41.73,16.87,3,1.19,4.58,2.65,2.81,6-2.92,5.54-1.82,9.55,3.6,13.43,6.17,4.42,5.56,11.75-.69,15.91-2.13,1.42-3.43,3.42-4.85,5.3a12.81,12.81,0,0,1-4.32,3.9c-4.52,2.25-8.31,4.8-10.85,9.67-2,3.82-6.84,3.94-11,3.72l0,0Z"/><path class="cls-2" d="M1380,638.57c-10.11-3.46-16.73,4-24.37,7.68-8.06,3.85-15.84,8.25-24.29,11.3a40.63,40.63,0,0,0-19.16,14,36,36,0,0,1-8.86,8.44c-2,1.34-4.53,2.67-5.48,4.65-2.42,5-5.71,2.65-7.24.46-4.85-7-12.45-10-18.92-14.63-5.25-3.76-5.61-6.38-1-10.86a76.28,76.28,0,0,1,7.17-6.29c8.85-6.63,12.39-16.63,16.83-26.07.89-1.89.15-3.1-1.52-4.13A22.44,22.44,0,0,1,1285,615c-2-3.4-6.78-4.93-10-4.42-5.61.91-9.27-2.14-13.45-4.16-3.59-1.74-6.43-2.92-8.08,2.06-.62,1.87-2.26,1.89-3.79,1.58a36.7,36.7,0,0,1-5.23-1.5c-1.5-.55-4,.5-4.06-2.47,0-2.49,1.53-4,3.51-4.87,8.68-3.77,15.95-9,20-17.93,1.43-3.14,3.06-5.18,6.67-2.09,1.84,1.58,3.33.63,3.89-1.73,1-4.41,2.25-8.78,3.15-13.22.43-2.12,1-2.82,3.3-2.07,3.6,1.17,7.12,3.83,10.94-.72,1.19-1.42,4.43,1.47,5.56,3.9,4,8.65,8.15,17.28,12,26,1.28,2.92,1.94,4,4.31.77,3.71-5.06,10.55-5.84,14.88-10.19.33-.33,1.51-.1,2.13.19,3.12,1.49,6-.3,8.83-.45,12.49-.61,24.93-7.71,37.53-1,4.08,2.18,7.41,1.7,11.18-1.15,3.94-3,8.56-5.07,12.93-7.47,1.54-.84,3.22-.55,4.88-.14,1,.25,2.5.78,3,.32,4.46-3.87,6.74-.44,8.88,2.66,1.7,2.45,2.61,2.17,4.24-.11,5.12-7.15,5.32-7.39,13.51-4.1,8.62,3.46,17,4.64,26,1.24,4.2-1.6,7.24,1,9.71,4.19,1.09,1.39.62,2.52-.77,3.41-8.49,5.41-14.67,13.49-22.7,19.48-10.67,8-20.89,16.53-31.38,24.75-3.82,3-8.68,3.48-13.15,4.82-6.93,2.06-14.18,3.16-20.49,7.06A10.73,10.73,0,0,1,1380,638.57Z"/><path class="cls-2" d="M380.37,712.39c.29,2.83-2.1,4.3-3.41,6.2-7.69,11.09-5.84,22.3-.76,33.59,1,2.2,2.43,4.19,3.52,6.35,5.45,10.78,4,15.09-3.72,24.46-8.18,9.93-18.86,15.2-30,20.39a49,49,0,0,0-20.18,16.79A58.1,58.1,0,0,1,310.71,835c-2.6,1.74-5.81,1.47-8.7,2.26a25.34,25.34,0,0,0-1.65-9.34c-1.65-4.59-1.05-8.76,1.13-13.08a42.6,42.6,0,0,0,3.8-10.67c1.28-6.47-1.18-12-6-16.33-4.2-3.84-7.4-8-6.71-14.18A4.78,4.78,0,0,0,292,771c-5.53-10.09-7-21.93-13.86-31.46-3.43-4.76-3.84-9.8-.32-14.79,3.22-4.57,2.47-8.58-1.17-12.68a22.79,22.79,0,0,1-5.94-13c-.36-3.5-3.35-5.28-5.71-7.36-5.38-4.73-11.7-8.1-17.83-11.71a7,7,0,0,1-3.81-5.73c-.44-4.2-1.3-8.36-1.71-12.57-.27-2.82-1.81-4.72-3.67-6.56-.82-.81-2.18-1.56-1.53-3s2.12-.84,3.27-.88,2.69-.49,3.51.49c5.28,6.34,12,3.37,18.16,2.62,6.55-.81,7.8-.11,7.13,6.62-.06.6-.45,1.26.17,1.65,1.28.81,2.33-.16,3.32-.73,6.86-3.89,13.65-7.9,20.53-11.74,1.36-.76,2.83-2.95,4.67-.67s0,3.17-1.55,4.27c-2.13,1.56-1.34,3.49-.42,5.27,1.41,2.69,2.93,5.31,4.47,7.92,1.09,1.84,1,3-.92,4.52-6,4.74-4,15.66,3.16,18.45,1.82.71,2.6.05,2.85-1.61.48-3.22,2.81-3.83,5.5-4.29,2.86-.49,3.35,1.73,4.68,3.33,1.86,2.24,3.6,4.46,7.1,5.13,3,.58,4,4.31,5,7.07,1.54,4.29,3.92,6.76,8.82,6.37,8.33-.66,16.62.49,24.92.94a10.93,10.93,0,0,1,6.33,2.22C371.14,712.55,375.71,712.38,380.37,712.39Z"/><path class="cls-2" d="M1169.17,572.17c-1,2.73-1.75,6-3.27,9-3.67,7.06-.63,12.76,3.18,18.41.51.76,1,1.51,1.54,2.26,2.53,3.68,6.16,6.91,5,12.13-1.74,7.84-1.08,16.45-7.73,22.68-3.78,3.54-6.43,7.55-4.36,13.26.68,1.86.6,4-2.27,5.12s-4-.38-5.2-2.17c-2.41-3.69-6.44-4.91-10-6.8a3.64,3.64,0,0,0-3.89.49c-5.35,3.79-11.58,5.09-17.81,6.37a38.88,38.88,0,0,0-24.93,16.77c-1.5,2.18-2.41,1.73-3.65-.07-2.71-4-5.79-5.25-9.49-1.12-.09.11-.27.14-.4.21-7.31,4.21-9.09,3.93-13.11-3.15-5.32-9.36-10.35-18.89-15.46-28.37-.6-1.12-1.48-2.17-.36-3.72,3.45-4.77,3.23-8.07-.52-12.52-.2-.23-.43-.44-.63-.67-6.11-7.16-6.23-7.25-.84-15,2.31-3.31,2.71-5.36-1.06-8.13-6.16-4.51-5.87-4.78-1.07-10.57q24.78-29.87,49.44-59.86c1.7-2.07,2.59-2.55,4.44-.39,2.36,2.75,3.46,7.52,8.88,5.92.33-.1,1.38,1.8,1.91,2.86,6.36,12.88,16.76,21.64,29,28.52,2.13,1.2,4.28,1,6.6.44,6.07-1.47,11,.6,15,5.25A3.52,3.52,0,0,1,1169.17,572.17Z"/><path class="cls-2" d="M308.27,848.32c.08-.13.15-.35.25-.36,12.78-2.12,20.11-11.67,28.11-20.4a57.31,57.31,0,0,1,15.47-12.23c6.77-3.62,13.45-7.3,20.42-10.57,3.57-1.68,6.19-5.28,8.64-8.58,1.18-1.59,2.2-3.31,4.37-3.68,13,6.67,25.2,14.52,37.28,22.65,2.11,1.42,4,.92,5.88-.32a86.2,86.2,0,0,0,14.46-11.73,10.25,10.25,0,0,1,16.09,2.48,11.86,11.86,0,0,0,5.23,5.54c7.1,3.28,6.94,10.12,6.47,15.56-1,11.73-7.15,21.5-15.49,29.77-2,2-4.6,2.9-7.18,3.82-2.14.78-2.86,2-1.57,4.14A68.33,68.33,0,0,1,450,870.9c1.11,2.43,2.66,3.76,5.56,3.81,2.26,0,4.56.16,5.32,3.58.68,3.14-.78,4.41-2.67,6.05-2.2,1.91-4.09,1.75-6.38.07-4.59-3.37-9-6.79-9.63-13-.2-1.84-1.7-3-3.22-1.93-4.09,2.89-9.15,3.23-13.4,5.49-4.51,2.4-9.12,4.62-12.81,8.51-5.09,5.36-12.46,6.69-19,9.4-15.62,6.48-29.93,15.41-44.69,23.49-.93.5-1.81,1.14-2.77,1.56s-2,1.72-3.29.85-1.21-2.43-.67-3.72c1.09-2.62.4-5.1-.41-7.54-2.73-8.26-3.3-17.35-9.65-24.21a94.53,94.53,0,0,0-12.64-11,17.87,17.87,0,0,1-6.87-9.79C311.46,857.68,309.79,853,308.27,848.32Z"/><path class="cls-2" d="M230.51,846.38a93.88,93.88,0,0,1,29.88,4.41c10.54,3.44,21.61,6.06,32.8,1.11,3.51-1.55,7.55-1.89,11.35-2.79,1.06,3.31,2.63,6.55,3.1,9.94,1.35,9.81,8,15.49,15.17,21,11.8,9.09,15.13,21.59,15.22,36,0,5.5-2.18,7-6,9.24-15.47,9-30.8,18.17-46.14,27.37-2.38,1.43-4.05,1.29-5.87-.89-2.93-3.51-6.34-6.72-2.42-11.68,1-1.29.65-2.86-.61-4.11-4-4-7.67-8.29-12-11.81-3.7-3-8.67-1.71-12.75-1-5.91,1-9.76-1.38-13-5.35-5.65-6.85-13.86-7.11-17.92.64-5.06,9.64-13.68,16.6-18.42,26.36-1.56,3.22-5,4.28-7.89,5.83-.69.38-1.63.66-2.13.08-2.87-3.32-6.7-2.46-10.22-2.25-5.46.34-10.12-.88-14.05-4.93-1.44-1.47-3.54-2.3-5.34-3.42-.19-2.12.56-3.92,1.28-5.92,2.09-5.81,6.69-10.18,8.66-16v0a1.77,1.77,0,0,0,.93-1.85l0,0c1.66-.69,2-2.08,1.84-3.67l0,0c1.3-.49,1.51-1.71,2-2.81,6.43-13.53,8.32-28.18,10.72-42.71,4,.61,6,3.76,7.22,6.86,3,7.53,8.34,9.74,15.78,8.58.3.61.52.36.73-.07h0a1.64,1.64,0,0,0,1.86-1.8l0,0c1.34-1,1.42-2.52,2-3.92,3.37-8.84,4.46-18.36,8.11-27.12l0,0Z"/><path class="cls-2" d="M908.1,376.56a15.55,15.55,0,0,1-3.68,7.6c-8.22,9.68-10.83,21.35-9.36,33.44.7,5.8,1.34,11.55,1.49,17.38-2,.26-4.15,0-5.53-1.49-5.53-6-12.59-9.91-19.2-14.44a60.14,60.14,0,0,1-10.32-9.58c-2.53-2.78-5.19-3.39-8.52-1.93-1.52.67-3.24,1-4.58,2-8.79,6.06-18.34,10.63-28.09,14.86-6.11,2.65-11.3,6.73-17.07,12,1-4.28,1.74-7.34,2.57-10.37.7-2.56-.22-3.1-2.51-2.25-.85.31-1.73.56-2.56.92-6.28,2.71-6.4,2.76-9-3.83-2.23-5.72-5-11.31-5.44-17.59,0-.45-.32-1-.14-1.33,3.54-6.48-2.81-7.21-5.8-9.7-1.48-1.23-3.34-2-4.68-3.53-3.34-3.77-3.1-6.39.89-9.47a11.54,11.54,0,0,1,2.13-1.69c3.23-1.44,2.68-3.29.94-5.61s-4.19-4.47.1-6.83c1.51-.84.2-2.11-.47-3.08-2.59-3.73-5-7.64-7.85-11.13-1.92-2.33-1.42-3.43.74-5q31.18-22.77,62.26-45.67c5.73-4.22,11.36-8.56,17.07-12.8a22.35,22.35,0,0,1,4.22-2.63,3.31,3.31,0,0,1,3.44.57c1.19,1,.86,2.16.23,3.28-2.37,4.17-2.28,10.07-8.26,11.7-.26.07-.69.46-.65.53,2.4,5.44-2.68,6-5.23,8.41-3.25,3.09-2.61,7.89.54,11,1.93,1.93,2.67,5,6.31,5.09,1,0,.22,1.82-.08,2.79-.77,2.51.05,4.05,2.63,4.79,1.59.45,3.1,1.23,4.66,1.79,5.34,1.93,6.38,3.67,5.16,9-.56,2.43-3,4.81-1.2,7.26,2.25,3,4.81,5.89,8.41,7.49,5.54,2.46,11,5.13,16.65,7.32,5.35,2.08,9.61,5.68,13.93,9.2C904.12,376.43,905.86,377.09,908.1,376.56Z"/><path class="cls-2" d="M1200.2,242.68l.12-1.07c4.37-2.3,6.91-5.82,7.23-10.82l0,.06c.86-.35.84-1.15,1-1.88l0,.05c2-2.41,2.55-5.46,3.68-8.26l0,.05c.8-.69,2.4-1.08,1-2.6,3.17-6.11,9.75-8.76,14-13.74,6-7.08,12.86-13.34,18.39-20.8.4-.54,1.22-.75,1.84-1.11,2.14-.43,3.79.6,5.45,1.74,7.25,5,14.55,9.87,21.78,14.88a17,17,0,0,1,3.64,3.39c3.39,4.34,3.27,4.76-1.95,6.73-1.84.69-3.66,1.41-2.78,3.72,1,2.75-.51,4.1-2.14,5.81-2.45,2.55-5.74,4.3-6.62,8.37-.4,1.88-2.85.68-4.39.28-1.86-.49-3.6-.51-3.34,2.05.31,3,.36,6.19,1.64,8.75,2.93,5.86,1.59,10.69-2.27,15.33-.59.7-1.23,1.32-1,2.38,2.33,12.62,9.07,22.21,20.17,28.56a7.64,7.64,0,0,1,3.39,4c7.91,17.88,15.71,35.8,23.75,53.62,1.33,3-.39,4.13-1.94,5.75s-2.93,3-5.43,1.53c-7-4.22-14.71-5.28-22.77-4.66-3.11.24-8.75-4.92-9.19-8-.12-.88,0-2.19-.5-2.58-6.47-4.93-11-12.68-20.5-13.21a188.37,188.37,0,0,1-19.3-2.52c-3.82-.61-6.28,1.33-8.83,3.64-2.21,2-4.5,3.64-5-1.44a7.4,7.4,0,0,0-5.91-6.7,14.33,14.33,0,0,1-9.46-7.87,14.13,14.13,0,0,0-11-7.88c-4.48-.77-11.38-9.34-11.67-13.74,1-5.06,5.91-7.41,8.13-11.78,3.76-7.39,11.59-11.69,15.53-19.09,1.47.91.68-.58,1-.91l0,0c1.06-.68.88-1.77.95-2.79l0,.06c1.18-.64.79-1.81,1-2.8l0,.06c1.3-.89,1.49-2.34,1.85-3.7l0,0C1199.61,243.29,1199.9,243,1200.2,242.68Z"/><path class="cls-2" d="M443.76,926.38c-1.33,3,2.05,7.84-3.66,10-1.77.67.07,2.88,1.2,4.09,5.93,6.31,11.78,12.68,17.83,18.87,2,2,2.83,3.62.69,6.1s-2.17,5.29-.07,8.2,3.57,6.08.47,9.81c-1.89,2.27.22,5.25.81,7.83.85,3.77.6,7.14-1.87,10.32-1.25,1.61-2,1.53-3,0-1.25-1.9-2.6-3.73-3.78-5.68-4.12-6.82-11-8.74-18.1-9.94-2.69-.45-4.28,1.9-6.09,3.49-3.29,2.88-5.78,6.12-11.08,6.92-4,.6-7.61,5.18-10.85,8.52-1.51,1.54.61,4,.87,6,.17,1.44,1.36,3-.65,3.94-1.81.8-2.6-.74-3.59-2-5.62-6.83-13.42-10.8-20.61-15.55-.25-.16-.57-.42-.82-.38-8.75,1.46-14.66-5.16-21.85-8-8.48-3.33-16.67-7.25-25.94-7.73-3.25-.16-2.85-1.9-1.93-4,3.11-7.08,6.09-14.22,9.33-21.24a24.79,24.79,0,0,0,2.6-11.38,11.77,11.77,0,0,1,4.36-10,15.41,15.41,0,0,0,4.42-6.26c.87-2.27.72-4.48-1.79-5.28-3.28-1.06-2-1.95-.17-3C367.91,910.25,385.08,899.9,404,893a40.26,40.26,0,0,0,12.69-7c1.78-1.54,2.87-1.08,4.12.42,6.41,7.68,13.08,15.17,19.15,23.1C443.56,914.23,443.27,920.36,443.76,926.38Z"/><path class="cls-2" d="M1167.71,651.81c-.68-4.59-.91-8.56,2.55-11.72,7-6.36,7.45-15.08,9.16-23.55,1.28-6.31-.6-10.83-4.14-15.82-8.13-11.45-7.88-11.63-3.28-24.79,2.59-7.43-.31-13-8.3-15-4.45-1.11-8.82-2.35-13.79-1.25-3.71.82-6.88-2.75-9.84-5-8.84-6.62-16.4-14.43-20.9-24.75-.87-2-1.81-3.09-4.45-2.61-3.79.7-4.13-3.67-6.45-5.33-2.11-1.51.2-3,.94-4.2,1.33-2.19,3.08-4.14,4.46-6.31,2-3.14,5-4.76,8.45-4.33,7.36.92,13.2-2.26,19-6a37.81,37.81,0,0,1,5.27-2.68c1.54-.66,2.33-1,3.38,1.46,1.35,3.17,5.51,4,8.75,5.1s3.72,2.63,3,5.76c-1.33,6.08-2,12.3-7.44,16.54-1.64,1.27-1.3,2.58.71,3.34,5.73,2.18,11.45,4.17,17.47.84,2.7-1.49,5.67-.87,8.5-.59,1.85.18,3.66,1,2.52,3.61s.35,3.45,2.71,3.78,4.74.94,7.11,1.41c2.18.44,3.41-.8,4.36-2.51,1.46-2.66,2.93-5.31,4.37-8,2-3.75,5-5,9-3.35,2.19.88,3.4-.51,4.7-1.81,4.72-4.74,9.53-9.38,14.1-14.27,1.36-1.45,2.27-2.05,4.16-1.05,4.15,2.21,8.39,4.26,12.63,6.31,1.63.78,2.34,1.61,1.45,3.52-2.62,5.63-2.84,11.71-2.88,17.77a81.27,81.27,0,0,1-.92,13.13c-.53,3.07.45,4.87,3.8,5.94,7.2,2.32,14.14,5.47,21.35,7.77,3.9,1.24,4.81,3.05,3.32,6.64a19.34,19.34,0,0,0-.81,4c-.32,1.89-1.16,2.77-3,1.56-3.07-2-4.7-.19-6.12,2.28-1,1.71-2.09,3.34-3,5.08-2.39,4.52-5.35,7.94-10.51,10-9.33,3.73-15,10.79-15,21.38,0,2.16-.31,4-3,4.21-.49,0-1.29.56-1.35,1-1,6.15-4.85,3.4-8,2.57-1.46-.39-2.86-1-4.31-1.45s-2.58-.77-1.83-2.76c1.26-3.34-1-4.07-3.61-4.77-6.48-1.79-11.58-.89-15.32,5.58-2.63,4.55-6.33,8.49-9.73,12.56-2,2.39-3.84,4.84-7.15,6-2.7,1-4.18,3.83-5.3,6.57A17.4,17.4,0,0,1,1167.71,651.81Z"/><path class="cls-2" d="M1034.93,839.11c-4.63-.17-7.75-3.5-11.47-5.54,3.46-1.56,3.32-5.24,4.73-8,1-1.92.54-3.41-.86-4.94a21.63,21.63,0,0,1-3.54-4.7c-.74-1.5-1.92-3,.66-4.87,2.43-1.8,1.64-5.62,1.57-8.63-.14-7.25,3.88-12.24,9-16.57,1.06-.9,2.38-1.63,2.57-3,.6-4.53,3.32-5.52,7.35-5s7.25-2.06,10.5-3.83a8,8,0,0,1,7.7-.32c3.47,1.51,7.07,2.75,10.51,4.33,2.33,1.06,4.18,1.16,5.07-1.59,1-2.94,2.76-3.23,5.15-2,3.31,1.77,4.26-.27,5-2.9,2.14-8,4.46-16,6.37-24.12.6-2.54,1.94-4.11,4.13-4,6.1.22,8.86-3.5,9.15-8.52s3.22-6.92,6.66-8.69c3-1.53,3.76-3.2,2-6.06-1.23-2-2.45-3.91.51-5.73,1-.63.67-2.26.29-3.42a77.36,77.36,0,0,0-3.17-9c-1.37-2.93-2.41-5.37.8-7.89,2.26-1.77-.56-4.26.32-6.45,1.73-4.34,1.3-8.94,1.43-13.48.11-3.58-.13-6.91-2.68-9.75-2-2.2-.63-3.55,1.5-4.47a54.25,54.25,0,0,1,10.33-3.37c5.47-1.13,10.82-2.32,15.76-5.4,4.25-2.65,7.65.75,10.08,3.72,2.83,3.46,5,7,10.22,3.87,1.47-.87,2.15.48,2.17,1.9.12,7.85,5,13.24,10.11,18.13,8.47,8.18,12.86,18.58,17.35,29,.77,1.79.27,2.39-1.41,2.86s-3.09,1.25-4.68,1.72c-3.47,1-4.62,3.66-3.64,6.65,1.1,3.35-.26,4.46-3.05,5.11-1,.24-2,.61-3.07.79-2.5.46-5.36-.93-7.52.72-4.41,3.35-7.66,8.08-8.36,13.33-.8,6-4.54,8.73-8.92,11.43-.13.08-.28.29-.36.26-5.77-2.15-6.84,3.32-9.48,6-3,3.07-6.94,1.57-10.36,2.55-4.6,1.31-9.65,1.23-13.25,5.18-.49.55-1.68.47-2.55.66a12.81,12.81,0,0,0-2.09.44c.1,3.46-3.72,6-3,9,1,3.93-1.06,5.49-3.73,5.81-5.64.65-7.79,5.37-8.15,9-.51,5.12-3.44,7.51-6.62,10.14s-6.88,4.37-7,9.63c-.11,3.59-4.29,4.54-7.34,2.22-3.7-2.8-5.23-2-8,1.58a31.89,31.89,0,0,1-9.19,8,23.59,23.59,0,0,0-6,4.29c-1.83,2-4.84,1-7.35.44-2.32-.52-4.71-1.32-4.61,2.55,0,.85-.66,1.19-1.37,1.59-2.94,1.68-5.92,3.32-4.28,7.69C1037.15,838.64,1035.86,839,1034.93,839.11Z"/><path class="cls-2" d="M1068.92,497.15c8.31,2.74,16,6.36,21.53,13.62,2.16,2.84,5.32,4.94,8.09,7.3,2.17,1.84,2.81,3.32.6,6-12.32,14.76-24.41,29.71-36.6,44.58-5.75,7-11.51,14.06-17.36,21-2,2.33-2,4.24.54,6.06a6.48,6.48,0,0,1,.67.62c6.22,5.75,6.35,5.88,0,12.07-2.64,2.59-2.26,4.57-.13,7,2.33,2.59,4.64,5.2,6.87,7.88,3,3.64,2.81,5.79-1.38,7.6-2.39,1-1.6,2.07-.87,3.41,6.27,11.43,12.47,22.91,18.92,34.26,2.07,3.65,2.25,5.73-2,8.22-5.58,3.27-10.74,5-16.74,1.58-4.52-2.58-8.48-1.85-11.37,2.58-3.41,5.22-7.8,5-12.93,3-4.65-1.82-9.49-3.17-14.22-4.81-2.21-.77-4-.9-5.53,1.39s-4.21,3.89-1.78,7.06c1.22,1.59.81,3.09-.53,4.48-3.37,3.49-7,6.68-9.85,10.72-1,1.44-2.3,1.6-3.91.45-5.27-3.74-5.45-5.53-.3-9.56,2-1.59,3.38-2.44.32-4.51-2.54-1.72.49-2.62,1.26-3.65,1.62-2.13,4.9-3.3,2.76-7.12-3.81-6.79-2.68-7.85-10.17-3.93-1.34.7-2.83,1.1-4.19,1.76-1.89.9-3.56.83-4.84-1a4,4,0,0,1,.19-5.41c2.48-2.67,5-5.32,7.71-7.76s2.74-4.65,0-7.18c-2.33-2.15-5.42-4.15-1.8-8.07,1.24-1.34.49-3.8-1.81-4.87-1.35-.62-2.88-1.11-3.51-2.71l.1.09,1-.87.81-1,0,0,.9-.92h0l.92-.91h0l.93-.91,0,0c2.78-.38,4.17-2.42,5.47-4.57l0,0,.91-.9h0l.92-.91h0l.93-.91h0c1.67-.77,3.71-1.18,3.65-3.67l0,0,.91-.92h0l.91-.92h0l.92-.92h0l.92-.92h0l.92-.92h0l.92-.92h0l.92-.92h0l.93-.92h0l.92-.93,0,0c3.61-3.17,4-8,6.36-11.9l0,0c2.11-1.91,4.74-3.88,4.54-6.86-.57-8.22,1.28-15.85,4.56-23.26l0,0a2.44,2.44,0,0,0,1.81-2.77v0c1.61-.7,2.73-1.77,2.73-3.67v0c1.6-.72,2.76-1.76,2.73-3.68l0,0,.92-.92h0l.92-.91h0a8.06,8.06,0,0,0,4.53-6.41l0,0a2.42,2.42,0,0,0,1.83-2.74v0c1.61-.71,2.72-1.78,2.71-3.68l0,0q6.35-7.77,12.68-15.55c.16-.19.06-.59.09-.89v0a6.42,6.42,0,0,0,3.64-5.49v0a22.77,22.77,0,0,0,5.46-10l0,0a1.56,1.56,0,0,0,1-1.82l0,0a5.07,5.07,0,0,0,4.54-4.61v0A23.16,23.16,0,0,0,1068.92,497.15Z"/><path class="cls-2" d="M984.38,963.43c-3.17,4.84-7.93,4.86-11.69,4.79-10.14-.19-18.91,3.25-27.53,7.94-8.4,4.56-17,8.81-25.5,13.15-2.84,1.45-5.74,2.75-7.83,5.34a5.35,5.35,0,0,1-4,2c-9.41.2-17,5-24.79,9.45-5.39,3.08-11.11,3.25-17,2.78-1.52-.13-3-.62-4.25.69-.3.31-.82.77-1.11.69-7.73-2.14-16.29,1.14-23.62-3.67-1.27-.84-1.32-1.63-1.08-3,.94-5.19,2.49-10.28,2.39-15.67a3.85,3.85,0,0,1,2.39-4,4.92,4.92,0,0,0,2.39-7.19c-2.89-4.54-3.17-9.7-4.75-14.51-2-6.1-2.92-12.68-9.54-16-.76-.38-.75-1.24-.78-2-.39-8.29.13-16.3,5.28-23.43a65.5,65.5,0,0,0,7.89-13.21,4.62,4.62,0,0,1,5.66-2.64c2.43.62,4.5.06,6.64-.44,4.58-1.07,9.1-2.41,13.84-.84a3,3,0,0,0,1.81.05c9.23-3.42,15,3.07,21.48,7.48,2.38,1.62,4.65,3.4,7.07,5,1.47,1,3.08,2.28,4.57-.22.85-1.43,1.77-.46,2.54.3s1.67,1.78,2.58,2.58c3.75,3.36,4.33,5.37,2.37,10.1-.71,1.72.15,2.54,1.13,3.51,8.37,8.37,16.61,16.89,25.62,24.6,3.65,3.12,7.84.34,11.69,0,8.27-.69,16.47-2.11,24.71-3.14,1.43-.17,3.34-.62,4.12,1.06.9,1.93-1.38,1.9-2.25,2.72s-.71,1.87-.23,2.87c.82,1.68,1.74,3.32,3.92,3.32C980.18,963.87,981.81,963.64,984.38,963.43Z"/><path class="cls-2" d="M1067.9,428.64a10,10,0,0,1,6.88,3.3,16.16,16.16,0,0,0,12,5c1.22-.06,2-.42,2.18-1.77s.82-2.1,2.1-1.25c3.6,2.4,5.55.66,6.93-3,3.71,4.05,8.28,6.3,12.61,8.89,2.5,1.51,5.88-1,7.28-5.18.33-1,.24-2.18.73-3.07,1.09-2,2.48-3.68,4.93-1.5.79.71,2.23,1.95,2.63,1.38,2.76-4.05,8.87-3.44,11.09-7.52,5.37-9.86,10.15-20,15.22-30.07,1.4-2.78,1.52-5.82,2.07-8.78.11-.59-.16-1.33.1-1.8,3.45-6.11,3.94-11.75-2.19-16.62a1.32,1.32,0,0,1,.22-2.29,5.67,5.67,0,0,1,5.25.48c5.56,3.61,7.4,3.54,12.3-1.43,1.7-1.72,3-1.28,5.07-1.05,8.5,1,9.55,8.62,12.43,14s6,9.34,11.32,11.75c2.82,1.26,4.62,2.71,2.6,6.18-1.41,2.43-.23,3.67,2.52,3.53a36.51,36.51,0,0,1,4.56,0c1.28.1,3-.72,3.72.77.58,1.22-.8,2.27-1.51,3.08a28.39,28.39,0,0,0-6.19,12.94c-.8,3.52-2.35,5-5.89,2.2-2.57-2.06-5.23-5.08-8.4-5.1-4,0-3.39,5.13-5.73,7.38-13.91,13.39-21.68,30.91-31.64,47-1.53,2.47-1.58,4.1,1,5.57,2,1.13,2.73,2.21,1.2,4.65-1.94,3.09.24,6.47.65,9.68.69,5.41-.07,6.89-5.37,7.62-5.72.79-10.63,3.57-15.35,6.56-3.9,2.46-7.9,3.82-12.46,3.4-6.12-.56-10.15,2.11-13.51,7.21-5.46,8.31-4.45,7.62-11.22,1.64-4-3.52-7.94-7-11.21-11.23-1.87-2.43-4.61-3.66-7.69-4.44-6.5-1.62-7.52-3.32-6.69-9.68V487c1.12-.65,1-1.74.93-2.77l0,0a8.82,8.82,0,0,0,1.87-6.43l0,.06c1.25-.62,1-1.75,1-2.79l0,.06c3.69-6.29,1.81-12.29-.91-18.25l0,0c0-1,.21-2.13-.93-2.77l0,0c0-.78,0-1.54-.93-1.88l0,.05c0-.79,0-1.54-.93-1.89l0,.06c0-.79-.06-1.54-1-1.88l0,.06c0-.8-.08-1.54-1-1.87l0,.05c0-.79,0-1.54-.94-1.88l0,.05c0-1,.25-2.16-1-2.78l0,.05c.2-4.63-1.5-9.12-.93-13.77Z"/><path class="cls-2" d="M952.94,792.32c7.33,9.61,14.73,19.17,14.89,32.13a107.9,107.9,0,0,0,.39,11.77c.45,3.75-2.74,6.34-5.49,7.72-5.31,2.67-7.27,6.82-5.7,11.87,1.51,4.84,5.54,8.07,10.68,9.4a24,24,0,0,0,2.7.37,19.18,19.18,0,0,1-1.12,9.4c-2.07,5.58,0,11.35-1.5,16.9-.5,1.88,1.49,2.81,2.51,4.07.9,1.11,1.81,3-.31,3-5.38.09-7.8,4.51-11.19,7.22-8.15,6.53-15.82,13.65-23.69,20.53a67.12,67.12,0,0,0-9.23,10.63c-1.62,2.15-2.59,2.19-4,0a11.72,11.72,0,0,0-2.41-2.71c-3.76-3.11-6.17-6.17-1.32-10.5,1.73-1.54,1.59-3.5-1-4.55a26.25,26.25,0,0,1-12.24-9.12c-1.07-1.53-2.33-1.54-3.35-.25-1.91,2.41-3.59,1.34-5.43,0-4.8-3.44-9.67-6.79-14.44-10.27a6.64,6.64,0,0,0-6.37-1.17c-3.38,1-6.94.41-10.42.47-3,.06-6,0-9,.79-6.42,1.76-9.77-.22-11.89-6.58-1-3-1.9-6.08-3-9.06-1.49-4,0-7.27,3.34-8.8,5.65-2.57,8.2-7.88,12.07-12,2.7-2.87,5.18-5.93,7.7-9,1.67-2,3.13-2.06,5.4-.55,7.19,4.75,9.74,4.32,15.48-1.82.4-.43.89-1.14,1.34-1.14,7.06,0,7.58-5.78,9.4-10.44,5.46,9,13.22,12.68,23.63,10.3,1.63,1.4,2.08,0,2.65-1.12l0,0c1.73-.7,3.69-1.17,3.69-3.62v0c2-.62,2.07-2.55,2.44-4,.88-3.48,1.43-7,2.12-10.57v0c2.31-4.89,5.25-9.58,6.74-14.7,1.41-4.81,4.5-9,5.09-14C943.28,792.82,943.1,792.8,952.94,792.32Z"/><path class="cls-2" d="M887.31,549.89c1.5,5.75,1,12,4.44,17.29,1,1.62,1.65,3.53,2.61,5.23,3.45,6.16,6.56,12,3.56,19.75-1.68,4.36-.46,9.85-.46,14.83a12.79,12.79,0,0,1-1.09,6.17c-3.47.44-5.57,1.89-6.36,5.77-.45,2.22-3.66,3.57-2.71,6.81.28,1-1.29.7-2.14.51-1.16-.25-2.23-.12-2.38,1.3-.46,4.19-2.74,2.65-4.52,1.29-3.69-2.83-8.34-4.38-11.14-8.37a3,3,0,0,0-2.74-1.22c-5.17,0-10.33-.15-15.5-.12-2.3,0-5.7,6-4.4,8.5,2.68,5.22-1.48,8.29-3.63,11.57-1.34,2-3.59-.21-4.84-2-2.17-3.16-3.77-3-5.79.37-2.49,4.21-2.41,9.8-7.4,12.72-1.54.9.38,2.1,1.22,2.69,1.29.92,2.86,1.76,2.06,3.52-.89,1.93-3,1.4-4.41.9-2-.73-3.82-1.45-6-.71-1.47.49-2.56-.6-3.45-1.7-2.25-2.79-5.25-5.56-6.56-8.36-1.42-3-5.55-7-1.21-11.57,2.44-2.55,1.07-4.6-2.1-6-5.39-2.39-10.45-5.57-16.78-4.4-.61.11-2.11-1-2.06-1.45.63-5.41-4.13-4.31-6.75-5.72-2.09-1.12-4.65-1.28-7.11-3.47,3.1.14,5.09-.73,6.64-2.71,2.59-3.31,7.24-3.38,10.44-4.15,4.16-1,5.87-3.58,8.45-5.77,2.23-1.91,3.24-5.88,7.72-3.82,1.09.5,3.68-.63,3.52-2.67-.26-3.46,2.9-4.75,3.81-8,2.84,4.52,4.89,2.68,6.86,0,.71-1,1.53-1.89,2.22-2.88a24.11,24.11,0,0,0,2.44-3.81c1.91-4.29-2.26-9.63,2.26-13.52-1.65-1.76-3.22-3.6-5-5.27-3.11-3-4.26.76-5.61,2.09-2.08,2-3.41,1.82-5.11-.18s-3.49-3.81-5.32-5.79c-.06.11,0-.17.23-.36,7.29-7.1,6.49-5.44.82-12.35-1.48-1.81-1.7-2.94-.24-5,3-4.23,6.23-7.24,11.93-6.21,4.38.8,6-3.1,7-5.82.88-2.4-.6-5.6-3.6-6.82-1.33-.55-2-1-.84-2.08a80.59,80.59,0,0,1,7.1-6.36,6.42,6.42,0,0,1,6.06-.73c1.29.45,2.33,1.66.64,2.56-4.5,2.4-1.91,4.42.09,6.58.61.67,1.26,1.31,1.87,2,1.41,1.59,1.91,2.63-.77,3.78-5.49,2.33-5.47,2.56-2.24,7.83a17.16,17.16,0,0,1,2.38,5.85c.79,4.21,3.65,6.05,7.5,6.69,2,.33,4.27,1.13,5.39-1.71.87-2.17,2.7-4.24-.5-6.19a3.34,3.34,0,0,1-1.1-3.59c3.91.41,7.36,2.33,10.94,3.66,3.19,1.18,5.81,2,6.59-2.89,4.08,3.47,9,5.9,6.11,12.26a3.69,3.69,0,0,0,.05,2.25c.74,2.81,9.75,9.4,12.6,9.52,2,.08,2-1.51,2.57-2.62C884.85,555.11,884.38,551.68,887.31,549.89Z"/><path class="cls-2" d="M896.71,438.64a8,8,0,0,1,.65,7c-1.78,5.65-1.79,11.91-4.15,17.11-3.51,7.75-3.46,15.89-4.93,23.86a43,43,0,0,0,.81,18.89c1,3.67-.85,7.17-.69,10.83a207.31,207.31,0,0,1-1.1,29c-3-1.39-4.52-.11-5.29,2.77a41.16,41.16,0,0,1-1.42,4.32c-.75,2-1.7,2.33-3.13.44-2.23-3-5.44-5.23-3.83-10,1.12-3.29-2.16-5.19-4.33-6.85a13.37,13.37,0,0,1-5.5-8c-.23-1-.41-2.31-1.67-2.44s-1.51,1.29-1.9,2.2c-2.93,6.79-2.92,6.8-10,4.43-2-.68-4-1.34-6-2.14-1.53-.62-3.07-.71-2.11-3.61.7-2.16-2.35-4.26-4-6.12s-2.67-3.28.16-5c1.88-1.12,1.6-2.41.18-4.05-5.67-6.55-10.76-7.09-17.51-1.25-2.93,2.53-6.46,1-9.65,1.9-1.75.49-1.72-2.53-.11-4.05a63.38,63.38,0,0,1,12.41-9.12c3.56-2,8.88-3,10-6.57,1.22-3.91-3.66-6.82-6.37-9.54-9.83-9.88-14.24-22.75-19.93-34.9-3.19-6.83-2.89-7.21,3.29-11.85a83.81,83.81,0,0,1,16-9.47c8.14-3.67,16.27-7.47,23.54-12.84,3.45-2.55,6.86-3.24,10.16,1,4.64,5.91,10.82,10.11,17.4,13.67,2.48,1.34,4.22,3.46,6.15,5.37C887.43,437.3,891.31,439.92,896.71,438.64Z"/><path class="cls-2" d="M1492.91,390.82c-7.6-4.45-11.58-1.14-15.48,4.39s-8.08,11-11.42,16.93c-1.43,2.56-2.78,5-6,6.44-2.47,1.11-3.76,4.37-4.64,7.08-3.6,11.18-12.69,17.37-21.32,24-1.91,1.47-3.14,1-4.5-.86-4.24-5.72-8.79-11.22-12.86-17.05-1.84-2.65-3.43-2.45-5.6-.91-1.23.89-2.43,1.83-3.73,2.6-2.51,1.49-2.36,3-.63,5.15,3.66,4.44,7.1,9.06,10.69,13.57,1.62,2,1.71,3.17-1.23,4.05-6.39,1.91-12.7,4.08-19,6.33-2.16.77-3.8.86-5-1.3-.16-.26-.33-.68-.54-.72-5-.86-4.86-2.88-2-6.43,1.39-1.7-.91-3.21-2.17-4.45-1.47-1.43-3.22-1.46-4.37.13-3,4.11-5.6,2-8.26-.21-3.17-2.62-6.17-5.13-10.86-4.61-2.77.31-4.49,1.55-4.92,3.8-.69,3.61-3.08,7.08-1.27,11a1.82,1.82,0,0,1-.73,2.37c-5.92,4.27-13.65,3.3-18.7-2.34-1.07-1.19-1.68-2.75-3.68-3.1s-1.5-2.07-.9-3.31c2.84-5.86.6-9.65-4.71-12.44-1.32-.69-2.23-2.12-3.53-2.86-2.17-1.22-2.24-2.61-1.54-4.89,2.9-9.42,4.23-10.59-6.79-7.64-2.65.71-6.54,2.33-8-.37s2.59-4.23,4.28-6.21c3.05-3.56,6.15-7.07,9.37-10.47,2.15-2.26.39-3-1.19-4-9.37-6.2-18.64-12.52-28.09-18.59-2.72-1.74-3.52-3-1.39-5.95a135.63,135.63,0,0,0,14.24-25.34c.94-2.14,1.52-2.63,3.34-.85q20.75,20.16,41.6,40.2c1.54,1.48,1.2,2.92.6,4.54-1.25,3.41-2.21,7-3.83,10.21-1.75,3.52-.92,5.38,2.74,6.31,7.9,2,13.69,6.94,18.29,13.43a24.63,24.63,0,0,1,3.15,5.49c1.28,3.46,3.19,4.84,6.28,2.23,4.54-3.84,10.54-2.07,15.51-4.38a63,63,0,0,0,12.21-6.86c5.36-4.13,11.16-7.69,18.48-7.32a3.92,3.92,0,0,0,3.52-5.69c-1-2.23-.23-3.1,1.39-4.38,4.45-3.5,9.77-4.69,15-6.1a14.42,14.42,0,0,0,6.39-3.17c3.16-2.9,5-5.34.07-8.2-1.75-1-2.32-2.5,0-3.69,14.73-7.63,23-20.84,29.37-35.24,2.68-6,8.88-7.44,12.46-12a1.38,1.38,0,0,1,2.3.47c.93,1.77,3.88,2.53,3,5.2-1.84,5.34-.91,11.57-5.28,16.16-.79.83-1.28,2.11-2.36,2.64-2.59,1.28-2,3.46-2.59,5.74-1.75,6.87,3,11.78,3.89,17.74C1492.14,387.93,1492.41,388.77,1492.91,390.82Z"/><path class="cls-2" d="M799.19,435.22c-.48,4.21-.57,9,2.92,14.1,4.24,6.18,7.09,13.39,9.93,20.41,2.71,6.71,7.92,11.37,12.34,16.67,3.69,4.42,4,4.72-1.17,7.5-6.33,3.4-11.81,7.88-17.39,12.3-2.55,2-4,3.77-.88,6.82,3.65,3.59,6.79,7.72,10.14,11.62,1,1.18,3,2.14,1,4.08s-3.06.57-4-.93c-1.55-2.51-3-1.41-4.28.07-1.83,2-3.55,4.14-5.31,6.22s-3.11,4.7-7.27,3.67c-2.21-.54-4.23,3-5.26,5.58-2,5.14-7,7-11,10-1.33,1-2.61-1.1-4-1.6-1.71-.61-3.31-2.64-5.25-.44-1.72,2-4,4.12-2.25,6.77,2.21,3.4.58,5.25-1.74,7.3-1.36,1.21-2.58,2.58-3.86,3.87-7.79,7.88-7.78,7.87-17.93,2.92-2.27-1.1-3.47-2.2-.61-4,.74-.47,1.76-1,1.1-2.08a2.35,2.35,0,0,0-2-.56c-4.76,1-7.55-1.62-10.12-5-1.91-2.54-4.27-4.74-6.06-7.35s-5-4.32-3.48-8.62c.5-1.45-1.8-4-3-5.88-1.65-2.63-1.65-5.14,1.09-6.67,6.54-3.66,8.43-10.72,12.43-16.23.34-.48.89-1.17.76-1.58-2.82-8.76,5.27-11.18,9.44-15.49,5.77-5.95,12.37-11.12,18.77-16.43,3.35-2.78,3.87-5.7,1.22-9s-2.07-6,1.06-8.92c5.14-4.87,9.32-10.84,14.12-15.83,5.52-5.73,11.41-11.62,18.16-16.25.63-.44,1.29-.9,2.08-.51C800.06,432.25,799.64,433.2,799.19,435.22Z"/><path class="cls-2" d="M974.18,865.6a84.76,84.76,0,0,1,12.44-4.23,25.09,25.09,0,0,0,11.29-6.46c3.73-3.53,7.54-7.14,11.89-9.78,3.19-2,7.24-4.17,11-.2,1.06,1.12,2.79,1,4.24,1.41,2.87.78,5.94,1.36,7.61,4.32,1.64,7.72,0,15.65,3.56,23.49,2.88,6.32,2.47,14.16,3.44,21.33.75,5.53,1,11.18,2.2,16.59.82,3.58-.43,5.69-2.58,8.07-10,11-22.48,18.86-34.46,27.33-3.81,2.7-6.6,6.15-9.68,9.47-2.56,2.75-5.14,5.78-9.55,2.63-.94-.67-2.65-.24-4.32-.34,2.32-3.62-.23-6.31-1.91-8.83-1.45-2.16-4.11-.92-6.31-.6-9.41,1.39-18.82,2.73-28.23,4.08-3.85.56-7.21-.21-9.6-3.62a16,16,0,0,0-1.91-2c-6.33-6.32-6.32-6.3,1-11.65a5.51,5.51,0,0,0,2.08-2.36c3.08-9.95,12.87-13.54,19.26-20.33,2.58-2.74,5.89-4.77,8.58-7.41,2.39-2.35,4.68-3.64,8.06-2.12,1.51.68,2.42-.14,2.78-1.91.72-3.55,2.29-7.12-2-9.66-1-.59-.94-1.88-.81-2.94.88-6.94-.16-14.1,2.31-20.86A4,4,0,0,0,974.18,865.6Z"/><path class="cls-2" d="M678.53,987.66c-4.27,6.4-9.79,10.72-12.9,16.85-.62,1.2-1.66,1.17-3.08.54-7.47-3.29-8.75-2.94-13.74,3.22-.39-5.65-5.17-8-8-11.73-1.15-1.5-3.06-.46-4.68-.06q-31.92,7.78-63.88,15.47a10.38,10.38,0,0,1-1.87,0c3.95-7.33,5.22-15.2,6.95-22.92A49.67,49.67,0,0,0,579,977.89c-.06-8.65,1.63-17.22,1-25.87-.17-2.4-.2-4.48,3.06-4.88,1.32-.16,2-1.72,2.78-2.86s1.77-2.54,2.75-2.06c4.85,2.37,6.28-1.83,8.67-4.17,2-1.91,3.89-3.85,5.69-5.9,1-1.11,2.41-2.66,1.38-4-2.55-3.36-.11-4.39,2.16-5.79,3.35-2.06,6.64-4.23,10-6.34.72-.46,1.42-1.47,2.34-.71a2,2,0,0,1,.21,2.54c-.62,1.29-2.31,2.38-1.13,4,2.18,3.08,3.84,6.65,7.07,8.81,1.91,1.28,3.08-.64,4.15-1.78a122.67,122.67,0,0,1,24.3-19.72c2-1.24,2.92-1.61,4.67.65,6.76,8.74,13.83,17.23,20.89,25.72,1.2,1.46,1.29,2.4.12,3.89-2.24,2.86-4,6.12-6.41,8.81-3.76,4.19-5,9.22-5.8,14.5-.45,2.86,2,3.47,3.63,4.6,5.58,3.77,5.55,3.72,2.17,9.48-1.54,2.61-2.57,5.55-4.29,8-2.67,3.83-.41,3.9,2.48,3.67C673.1,988.34,675.33,988,678.53,987.66Z"/><path class="cls-2" d="M561.8,1007.68c-21-4.13-41.75-9.86-63.44-10.26-7.1-.13-14.24-.43-21.36-.7-2.5-.09-4.25.56-5.64,2.86-4.38,7.28-9.1,14.35-13.44,21.65-2.11,3.54-2.56,7.74-3.22,11.75-1.06,6.49-3.52,12.63-3.82,19.39-.18,3.9-4.66,6.48-7.17,9.67-.63.81-1.71.2-2.43-.42s-1.58-1.42-2.34-2.17c-5.7-5.67-6.43-5.61-10.44.62a9.65,9.65,0,0,1-6.69,4.29c-5.73,1.05-7.41,6.81-11,10.31-4.61,4.42-6.48,10.42-8.21,16.68-2-1.15-1.28-2.8-1.34-4.1-.1-2.38.58-5-2.66-6-1.22-.41-.8-1.79-1-2.8-.25-1.53.93-3.37-2.14-4.07-1.87-.43,1-3.15-.13-5.18-2.15-.19-3.29,2.26-5.71,2.55.51-4.82-1.3-6.1-6.35-5.59-2,.2-8.66.64-7.61-5.93.19-1.24-1-1.51-1.83-.77-4.54,4-9.31,2-14.11.71-.23-1.92,1.45-2.54,2.38-3.62,13-15.14,29.7-25.85,45.75-37.27,3.75-2.67,5.11-4.85,3.35-9.21-1.57-3.9,2.9-9.33,6.86-8.3,2.3.6,3.38-.2,4.71-1.51,1.72-1.71,3.49-3.39,5.24-5.07,6.63-6.39,15.09-5.5,20.48,2.19,2.52,3.6,5.06,7.19,7.46,10.88,1.68,2.57,2.61,2,4.08-.31,6.18-9.57,11.19-19.81,17-29.61.07-.13.2-.28.19-.41-.95-8,6.26-9,10.73-12,6.92-4.63,14.37-8.47,21.54-12.73,2-1.18,3.41-1.16,5.19.55q19.25,18.43,38.68,36.66a15.5,15.5,0,0,1,4.59,8.2c.72,3.33,3.38,5.74,3.86,9.11Z"/><path class="cls-2" d="M1132.72,318.38c6-3.14,12.68-4.59,19.22-6.1a15.77,15.77,0,0,0,6.33-3.06c1.38.77.67-.57.94-.92l0,.05c2.06-3.12,4.13-6.23,4.59-10.08l0,0,.37-.18-.26-.54a25.5,25.5,0,0,1,3.43-6.56c2.39,3.9,7.87,4.61,9.59,9.3.21.59,1.52,1.05,2.36,1.1,6.56.37,10.26,4.36,13,9.83,1.61,3.27,4.91,4.5,8,5.69a8.05,8.05,0,0,1,5.61,7c.21,1.46,1.08,2.81,1.51,4.25.74,2.51,2.64,3,4,1.25,6.89-9,16.08-6.15,25-5.46,7.24.56,13.39,3,18.39,8.35,2,2.19,4.87,3.85,4,7.57-.09.4,0,1.09.22,1.29,4.42,3.41,7.14,10.19,14.4,8.1s13.44.58,19.52,3.69c3.45,1.77,6.45,2.55,9.6-1.27.51,2.37-.54,3.8-1.15,5.08a148.53,148.53,0,0,1-13,21.85c-1.44,2-2.72,2.91-5.11,1.28-7.58-5.16-15.87-6-24.75-4.23-4.12.85-8.43.14-12.68.7-3.2.42-5.11,1.48-5.92,4.43-.72,2.67-2.33,2.69-4.52,2-9.6-3.1-13-1.79-18,7.41-1.45,2.67-2.9,4.19-6.22,3.93-2.75-.22-4.85,0-3.61-3.84.75-2.32-1.45-3.17-3-4-10.83-5.72-16.28-15-18.12-26.79-.43-2.74-.46-5-5.19-5.18-8.56-.29-15.81-5.46-21.81-11.19-2.89-2.75-4.23-7.13-7.53-10.27A92.38,92.38,0,0,0,1132.72,318.38Z"/><path class="cls-2" d="M963.21,292.11A108.26,108.26,0,0,0,956.46,314c-1.27,6.1-5.88,9.48-11,12.44-14.87,8.63-23.62,22.69-32.2,36.83-1.53,2.52-4.11,4.59-4.06,7.94a7.92,7.92,0,0,1-6.22-2c-8.59-7.27-19.42-10.48-29.19-15.6-4.1-2.15-6.79-4.15-4.86-9.42.83-2.28.22-5.12.13-7.69a4.64,4.64,0,0,0-3.34-4.42c-1.56-.58-3.06-1.36-4.66-1.8-3.22-.89-4.71-2.43-2.94-5.84,1.25-2.41.52-3.45-2.35-3.48-4.25-.05-6.69-2.95-6.67-7.18,0-1.58.3-2.74,2.16-2.72a3.16,3.16,0,0,0,3.27-2c3.34-7.56,7.59-14.66,10.83-22.29,1.88-4.43-1.65-4.58-3.95-6.25.78-1.49,1.76-3.25,3.45-2.9,6.68,1.41,9.1-3.83,12.49-7.59.71-.78,1.23-1.72,1.93-2.51,2.44-2.72,4.64-2.9,7,.28,2.54,3.38,5.38,6.55,8.22,9.69,3.42,3.78,12.94,6.12,17.27,3.3,9.3-6.06,17.62-4.72,26.9.41A123.48,123.48,0,0,0,963.21,292.11Z"/><path class="cls-2" d="M1210.67,619.38c-.92,2.6.33,3.38,2.17,3.94,5.07,1.54,10.11,3.2,15.18,4.75a6.31,6.31,0,0,0,2.13.13c.67-4.69,6.95-4.88,7.56-9.86.81-6.64,1.51-6.9,8-5.3a22.48,22.48,0,0,1,3.79,1.54c3,1.4,5.49,1.47,6.75-2.38.71-2.2,2.32-2.56,4.34-1.52,2.17,1.11,4.37,2.13,6.53,3.25a10.17,10.17,0,0,0,6.86,1.12,8.22,8.22,0,0,1,8.8,4.21c.81,1.48,1.54,3.25,3.07,3.85,5.36,2.09,3.69,5.27,2.3,9.25-3.87,11.13-12.91,17.78-21.09,25.14-3.83,3.45-3.92,7.57-3.83,12,0,1.51,1.34,1.89,2.36,2.49,3.53,2.09,7,4.26,10.62,6.18a6.12,6.12,0,0,1,3.34,5.05c.63,4.9.08,5.51-4.83,4.72a6.42,6.42,0,0,0-3.47.69c-2.11.78-4.14,2.06-5.71-1.12-.73-1.48-2.92-1-4.22-.64-3.09.93-5.13-.23-7.27-2.28-8.56-8.22-21.25-7-28.61,2.65-.73,1-1.57,2.35-2.53,2.51-3.6.63-5.89,1.93-6.6,6-.34,2-3.46,1.15-5.27,1.64-2,.56-3.85.59-3.51,3.47.28,2.35-1.19,3.22-3.37,3.22a11.31,11.31,0,0,0-2.26.17c-6.65,1.41-7.19,1.6-9.22-4.82-3.43-10.84-10.55-19-18.13-26.84-3.71-3.84-5.2-8.39-6.11-13.36-.33-1.81.62-2.7,2-3.7a21.89,21.89,0,0,0,6.48-7.51c1.63-3.07,3.09-5.9,7.06-7.6,3.35-1.43,5.41-5.92,8-9.11q5.24-6.57,10.34-13.25c1.89-2.49,4.37-1.63,6.68-1.22C1210.33,617.1,1211.59,618,1210.67,619.38Z"/><path class="cls-2" d="M1095.92,328.73c4.15-1.81,6.68-5.71,10.74-7.87,5-2.65,9.81-1.63,14.78-1.58,2,0,3.91,0,5.86.05a6,6,0,0,0,3.74,3.14c8.24,3.13,14,9.47,20,15.49.32.32.85.62.91,1,1.38,8.57,9.59,10.17,15,14.64,1.34,1.12,4.09,1.27,2.28,4.2-1.53,2.46-2.49,5.31-6.48,3.92a54,54,0,0,0-9.24-2.2c-1.46-.24-3.53-.93-4.26,1.37s-3.42,4.81-1.07,6.65c6.17,4.87,3.34,10.46,2.61,16.31-1.29,10.33-7.71,18.31-11.56,27.44-1.06,2.52-2.45,4.89-3.63,7.35-.75,1.55-1.43,3.06-3.59,2.81a2.56,2.56,0,0,0-2.46.93c-1.89,2.69-3.68,4.14-7.26,2-2-1.23-7.4,3.47-7.72,6.13-.63,5.29-1.21,5.13-6.23,3.07-4.35-1.79-4.59-6.47-7.89-8.86-1.32-1,.22-2.42,1.07-3.47,3.27-4-.78-5.66-2.75-7.71-2.59-2.7-3.18.65-4.2,1.88-3.78,4.5-7.24,9.28-11.18,13.63a3.41,3.41,0,0,1-5.25-.6c-1.82-3.06-4.67-2.88-7.41-3.38-.25-3.26,1-6.24,1.78-9.3,3.3-12.24,7.49-24.31,7.35-37.21a38.74,38.74,0,0,1,2.32-13.77c3.77-10.52,7.63-21,10.46-31.84h0l.92-.92,0,0a2.56,2.56,0,0,0,1.77-2.62l.3-.28A.64.64,0,0,0,1095.92,328.73Z"/><path class="cls-2" d="M620.91,758.12c4.79,7.15,9,13.29,13,19.49,2.34,3.55,2.14,7.2-.23,10.65-2.81,4.08-3.08,7.85.2,12,2.72,3.42,3.25,8.29,7.91,10.63,1.79.9,2,4.12,0,6.07-2.63,2.57-1.36,4.19,1.11,5.67a11,11,0,0,0,1.9,1.24c3.06,1.06,3.46,2.6,2,5.56-2.31,4.56-.78,11,2.08,12.55,5.78,3.22,5.68,8.54,7.89,13.08,1.12,2.3,2.76,1.06,4.25.46,2.56-1,5-3.37,7.79-.34s1.51,5.82.08,8.78c-.67,1.38-2.07,2.79,1,3.59,2.09.53,3.21,3.35,3,5.07-.47,4.46,2.37,6.67,5,9.11,2.11,2,3.33,3.59-.23,5.31-4,1.92-2.88,4.52-.36,6.65,3.54,3,3.78,5.17-.44,7.86a73.93,73.93,0,0,0-9.87,8c-1.88,1.71-3,1.31-4.4-.45-5.76-7-5.84-7.09-13.16-2.05-7.12,4.9-14.34,9.67-20.15,16.22-.94,1.06-1.94,3.27-4,1.5-1.59-1.37-3.47-2.78-1.36-5.26,1.61-1.89.61-3.75-.47-5.44-2-3.06-4.16-6-6-9.08-1.43-2.36-3.06-2.58-5.29-1.3-1.45.84-3,1.52-4.49,2.23-4.58,2.18-8,.73-9.18-4.26-.64-2.66-1.32-4-4.52-4.46-3.4-.44-5-4.14-7-6.63-1.65-2-2.93-3-5.2-1.33-1.65,1.19-3.08.95-4.4-.54-1.65-1.86.26-2.66,1.11-3.73a9.47,9.47,0,0,0,1.77-9.72c-3.54-10.47-3.39-10.46,5.47-17.19,2.23-1.69,5-3.13,5.34-6.42.08-.74.26-1.76-.13-2.23-4.88-5.95,1.13-5.51,3.89-6.18,9.93-2.37,20.13-2.16,30.24-2.26,4.14,0,5.6-1.05,5.3-5.31-.67-9.36.63-18.78-.79-28.17-.66-4.38-3.48-7.33-5.63-10.73-4.44-7-9.74-13.43-11.37-22-.72-3.82-.51-6.56,2.94-8.53C618.2,764.63,619.73,762.12,620.91,758.12Z"/><path class="cls-2" d="M719.43,705.87c2.37-4.59,5.63-5.86,10.41-3.86,5,2.09,10,4.33,15,6.5a27.88,27.88,0,0,0,10.64,1.85c13.24.34,25.77,3,36.23,11.86l-4.56,16.13c-.56,2-1,3.7-2.78,5.36-2.24,2.08-.42,4.72,1.85,5.84,3.19,1.57,3.18,3.56,1.88,6.28-2.08,4.37-4,8.85-6.15,13.17a19.31,19.31,0,0,0-2.25,9.13c0,7.32-1.75,8.51-8.85,6.34-5.48-1.67-7.83-.63-10.21,4.25a4.53,4.53,0,0,0,0,4.71c1.85,3.12.72,5-2.45,6.33-2.66,1.1-5.21,2.46-7.77,3.79-1.71.9-3.74,1.44-5.26.58-4.15-2.33-8-.75-11.66.65-8.75,3.3-8.59.83-13-5.27-1.39-1.92-3.61-4.17-4-5.73a54,54,0,0,0-4-11.33c6.82-3.38-.56-9.65,3.31-14.17-4,.08-5.1-2.51-6.33-5.35-3.6-8.29-6.28-17-11.67-24.48a4.71,4.71,0,0,1-1-3.39c1.25-2.31,4.11-3.52,4.46-6.45v0a12.09,12.09,0,0,0,4.58-7.3v0a4,4,0,0,0,2.74-3.67v0c1.59-.72,2.71-1.79,2.75-3.66h0C714,711.33,717.87,709.73,719.43,705.87Z"/><path class="cls-2" d="M843.05,781.39a18,18,0,0,1,2.42,3.23c3.55,7.78,10,10.39,18,11.7,9.64,1.57,19.26,1.63,28.93,1.79,2.82,0,4.38,1.4,5.07,4.2a24.13,24.13,0,0,1-.14,13c-1.81,5.77-2,11.56-2,17.46a16,16,0,0,1-.8,3.52,4,4,0,0,0-2.2,2.78c-1.41,4.36-3.16,8.21-8.82,7.8a3.25,3.25,0,0,0-2.06.83c-5.59,4.75-5.72,5-11.6,1.1-2.82-1.86-4.35-1.41-6.52.82a140.37,140.37,0,0,0-13.07,15.14c-3.19,4.41-7.93,7-11.84,10.51-2.77,2.52-3.21,4.6-2,7.86,1.93,5.2,4,10.41,4.59,16.59-3.76-2.73-4-7-4.7-9.9-1.35-5.4-6.66-9.72-4.69-16a1.81,1.81,0,0,0-1.25-2.19c-6.6-2.47-8.5-8.82-11.81-14-3.92-6.2-4-6.14-10.58-3.21V832.47c0-3.2,0-6.39,0-9.58,0-1.69-.43-3-2.12-3.6a3.79,3.79,0,0,0-4.17.91c-1.55,1.33-2.63,3.4-5.58,3.56.54-7.79-.21-15.46-1.14-23-1-7.92-.25-14.08,7.61-18.16,2.55-1.33,4.34-3.64,7.67-4.21s5.63-3.39,8-5.71,4.19-2.53,5.93.88a38,38,0,0,0,5.89,8.06c2.2,2.46,5.53,2.62,8.19,4.2S841,782.51,843.05,781.39Z"/><path class="cls-2" d="M771.66,424.27c.29-1.17-1.88-2.88.17-4.23,3.43-2.24,5.77-5.91,9.6-7.56,1.47-.63,2.25.83,2.61,1.93a97.41,97.41,0,0,0,5.58,14.36,3.24,3.24,0,0,1-.66,3.82c-2.82,2.75-5.06,6.27-8.63,8a14.22,14.22,0,0,0-6.94,6.76c-3.11,6.3-8.68,10.48-13.54,15.22-3.44,3.36-3.84,6.8-1.58,10.56,1.75,2.9,1.41,4.82-1.11,7-8.34,7.26-16.52,14.69-24.77,22-2.83,2.53-5.06,4.6-4,9.51.85,4.13-2.36,8.61-5.14,12-4.06,5-10.36,7.2-15.64,10.68-9.76,6.43-19.4,13-21.7,25.85-1,5.45-1.35,5.42-6.26,3.09-1.27-.6-2.28-.93-2.89.72-1.36,3.67-3.43,2.11-5.21.56-2.61-2.26-4.34-1.49-6.27,1-4.9,6.28-6.45,6.58-13.69,3.63-6.17-2.52-12.4-4.89-18.54-7.48-5.39-2.28-5.28-2.31-1.36-6.43,5.33-5.59,11.83-10.22,15.94-16.79,4.3-6.88,10.13-12,16.32-16.86.47-.37,1.22-.59,1.44-1.07,3.46-7.6,11.5-11.4,15.44-18.61.63-1.16,2-1.92,2.71-3,2.41-3.66,7.38-5.06,7.65-11,.1-2.28,3.26-6.42,6.49-8.59,3.93-2.63,7.12-6.14,10.33-9.57,2-2.14,3.43-1.95,5.1.17.66.83,1.54,1.47,2.23,2.28,2.29,2.7,4.29,2.41,6.85,0,15-13.95,30.07-27.73,45.06-41.65C769,429,771.54,427.64,771.66,424.27Z"/><path class="cls-2" d="M691.3,740.34l.63-.74c5.42,2.57,7.09,8,9.13,12.84,2.89,6.77,4.79,13.92,8.85,20.22,1.26,2,2.93,4.85-1.27,6-2.7.75-1.63,2.34-.91,3.87,1.37,2.94,2.59,5.6,2.4,9.3a10,10,0,0,0,5.71,9c3.64,1.84,3.76,4.62,1.86,8.3a20.66,20.66,0,0,0-1.65,16.16c.31,1,1,2.41.6,3-3.2,4.78.48,7.31,3,10.34,1.25,1.47,4.24,3,2.44,5-1.66,1.82-4,5.34-7.62,1.94-.93-.89-2.53-1.63-3.82-1-3.23,1.6-5.5-.13-7.82-1.86s-3.69-1.37-4.74,1.45c-.94,2.55-2.35,4.92-3.53,7.39a4.41,4.41,0,0,1-4.29,2.8c-2.26,0-2.49-1.73-2.82-3.44-.39-2.08-1.66-3.15-3.88-2.84a51.35,51.35,0,0,0-7.17,1c-3.11.9-6.05,3.39-9.22.05-.3-.32-1.56-.09-2.13.28-4.34,2.78-6.13.81-7.28-3.44-.85-3.16-1.18-6.59-5.63-7.8-2.71-.75-1.88-7.87,1-9.74,1.65-1.09,3.91-1.91,3.32-4.3-.63-2.59-3.26-2.26-5.27-2.44-3.18-.28-4.38-.88-4.11-5s.16-9.45-5.48-12c-4.62-2.11-6.43-11-3.69-16.36,2.42-4.72,1.82-9.06-.85-13.27-3.17-5-6.25-10.07-9.87-14.73-2.26-2.92-2.08-4.95.49-7.19,3.22.16,5.38,2.59,8.13,3.79,14.37,6.26,28,6.39,40.84-3.87,2.82-2.26,5.93-4.17,8.91-6.25l1.13-.93,0,0,.94-1,0,0,.94-.94,0,0,.94-.94,0,0,.92-.94,0,0C691.23,742,691.33,741.18,691.3,740.34Z"/><path class="cls-2" d="M804.37,823.41c0,9.83.2,18.74-.1,27.63a7.83,7.83,0,0,1-5.45,7.21c-4.1,1.52-2.41,4-1.05,6.51,1.59,3,3.57,3,5.81.91,2.46-2.26,4.86-4.59,7.17-7,1.61-1.68,2.89-1.41,4,.39,1.35,2.19,3,4.31,3.77,6.7,1,3.21,1.35,6.51,5.8,6.63.55,0,1.56,1,1.53,1.53-.37,6.61,6.31,10.67,6.14,17.23,0,2-3,7-4.91,7-2.28-.08-1.09-1.31-.61-2.41,2.37-5.38,1.87-7.24-2.21-9.4-3.23-1.71-5.52-.76-7.07,2.38a32.46,32.46,0,0,0-1.66,3.72c-1,3-2.55,3.75-5.37,1.87-8.43-5.61-18-9.53-25.3-16.83-2.33-2.33-4.16.09-6.11.88s-3.33,3.44-6,1.85c-3.85-2.25-9-3.31-10.05-8.45s-3.7-6.69-8.61-6.33-9.74-.75-13.72,3.2c-1,1-2.59.78-3.74-.29-4.09-3.78-9.08-6.54-12.36-11.26-2.75-3.95-2-8.85,2.48-10.34,3.65-1.22,3.32-2.42,1.1-4.43-6.9-6.25-7.67-14.72-8.2-23.13-.35-5.67,2.44-8.09,8.27-8.47,2.71-.18,5.15-1.51,7.91-1.87,8.06-1,16.32-.19,24-4.38,6.24-3.39,7.52-4.49,5.68-11.28-1-3.64.42-5.23,4-4.84,5,.54,10,1.69,15.21.63,3.91-.8,5.83.42,6.18,5.15.72,9.5,1,19,1.67,28.52.12,1.8-1.17,4.34,1.3,5.22a7,7,0,0,0,6.88-1.27C801.71,825.78,802.6,825,804.37,823.41Z"/><path class="cls-2" d="M388.45,788.37c1.67-3.76,4.7-6.51,7.24-9.63a1.06,1.06,0,0,0,.39.23c.12,0,.37-.05.38-.12,1.34-6.15,2.6-12.3-.72-18.26l0,0-.95-1,.05.06c-.05-.79-.13-1.55-1.05-1.84-5.14-4.39-5.28-6.22-2.64-13,3.45-8.85,10.22-14.86,17.08-20.8a6.12,6.12,0,0,1,6.78-1c7,3,13.8,6.24,18.77,12.37,3.21,4,8.3,5.23,12.42,7.9,3,2,6.26,3.47,9,6,5.24,4.7,12.29,5.65,18.73,7.5,11.08,3.17,22.58,1.78,33.92,1.91.38,4.48-2.73,7.32-5.28,10.13-6.32,7-13.17,13.43-21.59,17.91-2.56,1.37-2.79,2.63-.1,4.05.67.35,1.36.68,2,1.08,8.79,5.35,8.71,5.32,4,14.52-1.27,2.49-2.78,3.83-5.63,3.41a22.36,22.36,0,0,0-4.06-.36c-8.19.35-14.49-2.06-16.89-10.81-.52-1.91-2.71-1.81-4.23-2.23-2.42-.68-4.95-.27-7.37-1.78-1.81-1.13-3.51,1-5,2.29-5.24,4.34-10.58,8.57-15.68,13.07-1.75,1.55-3,1.44-4.77.37-11-6.73-21.6-14.08-33.35-19.49A2.52,2.52,0,0,1,388.45,788.37Z"/><path class="cls-2" d="M1043.62,749.71c-1-.11-1.54,0-1.87-.23-5.23-3.51-7.06-.53-8.21,4.14a10.13,10.13,0,0,1-2.51,4.28c-3.49,3.88-2.26,8.35,2.87,10,2.45.8,2.13,2.61,2.17,4.39,0,2.29,0,4.74-1.92,6.22-1.12.87-2.2-.65-3-1.5-4.54-5.09-11.74-7.1-15.34-13.3-.65-1.12-1.89-1.64-3-.26-2.64,3.33-5.16,1.35-7.46-.32a13.24,13.24,0,0,1-2.77-3.55c-4.44-6.68-7.87-7.83-15.59-5.19a3.18,3.18,0,0,1-1.7.29c-3.48-1-4.76-4.44-7.23-6.58-1.35-1.18.57-3,1.25-4.48,3.12-6.72,8.85-12.48,9.9-19.83,1.92-13.48,11.32-21.56,19.93-30.28,2.16-2.18,2.89-3.54,1-6-.76-1-1.9-2.26-.64-3.65,1.1-1.21,2.46-.71,3.8-.28,5.9,1.92,11.88,3.6,17.7,5.75,3.48,1.29,5.93.63,8.51-2,7-7,7.15-7,16.31-2.28a4.27,4.27,0,0,0,4.69-.19c8.75-5.61,18.64-8.75,28-13a3.68,3.68,0,0,1,2.12-.53c2.53.74,3,4,5.17,4.86,3.26,1.4,2.23,3.39,1.47,5.55a9.78,9.78,0,0,0,1.35,9c2.07,3.21,1.49,5.37-2.67,6-2.06.32-3.91.86-4.87,3.35a4.92,4.92,0,0,1-5.62,3c-5.89-.88-8.62,3.45-10.81,7.38a11.37,11.37,0,0,1-4.88,4.88c-3,1.58-5.28,3.05-3.91,7.34,1,3.21-1.28,5.6-4.21,7.26-5.14,2.9-6,5-5,11.06.22,1.23.61,2.69-.68,3.28C1051.86,746.33,1047.51,748.06,1043.62,749.71Z"/><path class="cls-2" d="M819.1,681.39c-3.24,5.87-8.72,6-14.61,6.61a79.08,79.08,0,0,0-28.11,8c-7.72,4-15,2.12-22.38.12-9.58-2.58-18.88-6.22-28.78-7.56-4.22-12.05,2.8-21,9.28-29.32,8.87-11.34,14.35-24.34,20.74-36.92,2.08-4.1,4-5.38,8.68-4,6.44,1.9,12.44,4.09,17.26,9,2.07,2.12,4.45,3.53,8.08,2.14,3.81-1.47,6.79,1.72,9.83,3.65a1.26,1.26,0,0,1,.33,1.16c-3.14,4.49.72,9,0,13.47-.29,1.81,1.28,3,3,3.34a4.18,4.18,0,0,1,3.14,2.3c2.79,5.1,6.56,8.43,12.93,8,2.09-.16,4.58,1.7,2.74,3.66-2.79,3-2.2,7.22-5,10-2.27,2.32-3,4.53,1.71,4.56C818.82,679.65,818.94,680.65,819.1,681.39Z"/><path class="cls-2" d="M1018.66,833.41c-8.74.32-16.68,2.75-22.51,9.62C990,850.25,981.88,853.46,973,855.5l-3.55-.09,0,0c.28-1.25.57-2.49.85-3.73v0l.93-.91h0l.92-.92h0c4.56-2.94,7.1-7.06,6.37-12.53-1-7.36-.2-14.79-1-22.08-.6-5.21-2.14-10.58-6.24-14.57l0,0-.9-1v0c-.15-3.51-2.06-6-4.6-8.2h0c-.18-1.71-.54-3.3-2.62-3.66l-1.87-2.42-.95-1.28,0,.05-.95-1,0,0a55.07,55.07,0,0,1,1.25-9.21c.67-2.77-.34-6.3.53-9.53.36-1.32.15-2.35,2.13-1.56,3.4,1.36,9.55-1.11,10.4-4.41.62-2.42,1.53-2.42,3.41-1.79,2.15.72,4.35,1.32,6.56,1.83s4,.9,6.4-.34c2.91-1.49,6.62-1.5,8.41,2.59,2.24,5.09,6.61,6.76,11.51,8.84,5.81,2.46,12.43,3.91,17,9.18,1.69,2,2,3.47,1.15,5.64a26.62,26.62,0,0,1-5.09,8.5c-2,2.18-3,4.17-1.48,7.29,1.37,2.93,1.48,6.24-2.59,7.72-1.38.49-1.36,1.6-1,2.6,1.14,3.72,1.36,7.81,4.56,10.69a4.2,4.2,0,0,1-.31,6.65C1020,829.53,1019.75,831.59,1018.66,833.41Z"/><path class="cls-2" d="M955.72,782.44c-4.83.11-9.65.51-14.46.77s-7.86,2.74-8.1,6.91c-.74,13.07-7.85,23.86-11.9,35.73-1,2.87-2,5.61-2.16,8.73a7.89,7.89,0,0,1-4.56,7.3l-3.45-.13,0,0a2.8,2.8,0,0,0-1.86-1.85l0,0-.94-.94,0,0a1.6,1.6,0,0,0-1.83-1l0,0c-.62-3.39-1.9-7-.9-10.24,2.44-8,1.6-16.12,2.1-24.19.25-4,.2-8.06-3.07-11.16l0,0-1.11-.89c-5.62-2.94-11.92-1.71-17.83-2.84-2.85-3.75-2.88-7.51.29-12.47,1.35-2.13,2-3.68.22-6.07s-.95-5.2.22-7.78c1.55-3.44,3.72-6.65,3.68-10.64,0-.29.07-.75.26-.84,6.5-3.24,3.36-8.91,2-12.75-1.1-3.17.29-6.48-1.68-9.29-1-1.45.24-2.49,1.13-3.55,2.28-2.74,5.6-4.1,8.35-6.22,1.24-1,8.73,2.81,9.74,5,1.32,2.84,4.4,5.29,2.2,9.1-.51.89.51,1.52,1.44,1.9,4.13,1.71,7.27,4.89,10.93,7.3,2.46,1.63,4.29,3.13,3,6.47-.41,1.08-.11,2.74,1.65,2.51,2.82-.37,5.11,2.88,8.51.44,2.09-1.5,6.83,3.81,6.31,6.79-.92,5.36,2.75,8.46,7.87,6.61.95-.34,1.77-1.3,2.88-.33,1.32,1.16.1,2.13-.08,3.24-.56,3.42,1.23,6.72.69,10.21A17.94,17.94,0,0,0,955.72,782.44Z"/><path class="cls-2" d="M1251.26,174.24c1.58-1.86,3.15-3.73,4.73-5.58,2.17-.22,2.3-1.94,2.6-3.53v0c4.25-5.36,4.34-12,5.41-18.27.17-4.59,3.89-7,6.37-10.12a36.74,36.74,0,0,0,8.23-22,30.8,30.8,0,0,1,3-12.61c5.47-1.78,8.29,3.35,12.52,4.74,3.11,1,6.27,1.35,8.18,4.78,1.37,2.47,1.22,3.84-1.46,4.18-3.21.4-4,3-4.4,5.11-.56,2.62,2.24,3.19,4.1,4,4,1.82,4.49,3.69,1.59,7.07-1.07,1.25-1.92,2.15-.54,3.85,1.63,2-2.07,3.7-.52,6.27,1,1.63,1.19,3.26,3.6,3,.93-.09,2.4-.59,2.73.8.29,1.2-.53,2.27-1.45,3.15-4.61,4.37-4.44,9.2.39,13.23a2.38,2.38,0,0,0,2.47.61c4.78-1.49,3.74,1.15,2.43,3.63-2,3.84-1.27,6,3.19,7.11,4.15,1.05,5.18,4.18,2.86,7.78-1.11,1.73-2.06,3.61-2,5.46.24,5.4-3.26,6.73-7.41,7.33-2.94.42-5.93,0-4.93,4.81.47,2.28-2.76,2.34-4.3,3.15s-2.37,1.22-3.09,2.77c-1.82,3.91-7.72,4.76-10,1-7.91-12.57-21.53-17.87-32.67-26.29-1.91-1.45-2.92-2.41-1.57-4.6l0,.06C1252,174.87,1251.93,174.55,1251.26,174.24Z"/><path class="cls-2" d="M829,731.43l-32.86-21.74a1.29,1.29,0,0,0-1.23-1h-.35a2.18,2.18,0,0,0-2.07-1l.06,0-1-.91,0,0a1.88,1.88,0,0,0-1.87-1l.06,0A1.78,1.78,0,0,0,788,705l0,0c0-2.9,4-2.46,4.28-5.09,9.27-3,18.84-3.39,28.47-3.25,1.95,1.91,1,4.32.93,6.48,0,2.69.68,4,3.57,3.69,1.81-.2,3.87.4,5.42-.27,5.44-2.35,9.16,2,13.67,3.12,1.34.34.92,1.7,1.14,2.69,1,4.54,4.15,8.45,3.85,13.41-.07,1.11,1.29,1.37,2.11,1,2.1-.95,4.88-.77,6-3.48a11.3,11.3,0,0,0,.81-4.9,16.6,16.6,0,0,1,1.69-7.56,38.61,38.61,0,0,0,13.19,12.74c1.85,1.11,5.12.54,7.68,1.39,1.37.45,3.48-.76,4.21.76.89,1.82,2,4.84,1.14,6-3.31,4.49,1.2,7.23,2.1,10.51.76,2.76,1.12,4.41-1.09,6.24-.56.47-1.27,1.17-1.3,1.79-.43,8.5-6.29,15.81-4.58,25,.78,4.18-2,9-3.12,13.55-4.9.49-9.51-1.26-14.29-1.79a2.05,2.05,0,0,0-2-.9l.06,0a1.78,1.78,0,0,0-1.87-1l.06.05-1-.94,0,.05a5.28,5.28,0,0,0-2.77-2.77h0c-1.25-5.24-3.32-10.29-3.63-15.76a16.51,16.51,0,0,0-2.76-8.88v0c-.72-4.72-3.26-8.47-6.4-11.88l0,0a1.67,1.67,0,0,0-.94-1.85l0,0c-.32-.31-.63-.63-.94-.95l0,0-.94-.95,0,0-.94-1,0,0-1-.94,0,0-1-.94,0,0c-.31-.32-.63-.63-.95-.94l0,0a1.66,1.66,0,0,0-1.84-1l0,0-1-.93,0,0-.94-.93,0,0a2.67,2.67,0,0,0-1.86-1.84l0,0-1-.94.05,0A1.69,1.69,0,0,0,829,731.43Z"/><path class="cls-2" d="M700.19,636.63a7.82,7.82,0,0,0-5.38,1.56c-3,1.79-5,1.7-6.67-2.1-2.35-5.32-2.36-9.73,1.28-14.65,5.15-7,4-14.39-2.2-20.48-1.52-1.49-4-2.43-3.75-5.26.52-6.1,2.08-7.12,7.87-4.81,19.55,7.83,39.07,15.74,58.64,23.55,2.56,1,3.53,2,2,4.88-4.3,8-8.74,15.95-13,23.93-5.19,9.72-12.88,17.81-17.15,28-.68,1.64-1.5,3.65-3.73,3.46s-2.58-2.33-3-4c-.87-3.22-2.3-5.9-5.57-7.28-1.86-.79-3.18-1.75-1.39-4.06,1.22-1.57-.42-2.48-1.51-3.19a43.4,43.4,0,0,0-5.88-3.44c-3.75-1.68-3.48-3.59-.77-6a13,13,0,0,0,2.55-3.18c.76-1.33,3.2-2.12,2-4.11A6.26,6.26,0,0,0,700.19,636.63Z"/><path class="cls-2" d="M1113.61,676.46c-.5,6.74-1.53,13.36-4.88,19.38a3.58,3.58,0,0,0,.36,4.21c1.87,2.64,2.72,5.72,3.81,8.72.71,2,.83,3.56-1.11,4.72-2.61,1.56-2,3.31-.52,5.26,2.23,2.88,1.4,4.83-1.71,6.48-4.23,2.24-8.24,4.53-6.1,10.79,1,2.91-2.34,3.45-4.18,3.43-5.09-.08-7.09,2.3-8,7.12-1.25,6.52-3.38,12.87-5.06,19.31-.75,2.83-1.67,4.83-5.26,3.18-2.1-1-4-.1-4.51,2.32-.63,3.08-2.45,2.44-4.39,1.67a30.31,30.31,0,0,1-2.9-1.32c-6.48-3.41-12.83-5-19.13.55-1.94,1.71-4.63,1.05-7,1.14s-3.31-.8-3.27-3.18c.06-3.09-.6-5.8-4.48-6.18a2.11,2.11,0,0,1-1.38-1c-.74-1.36,4.78-10,6.09-9.44,3.64,1.53,6.45-.84,9.58-1.62,1.75-.44,3.38-1.34,5.1-1.93,6.9-2.36,6.81-2.34,6.24-9.75-.21-2.62.54-5.26,3-6.72a13,13,0,0,0,6.83-11.57c0-3.05,2.16-3.54,4.14-3.87,2.37-.4,3.12-1.32,3.37-3.76.4-4,2.42-6.53,7-6.76,3.85-.2,7.88-.86,9.78-5.22.66-1.53,2.31-1.8,3.75-2.3,5.52-1.91,6.83-4.7,4.64-10.06-2.66-6.52-1.11-13,.47-19.34.63-2.54,3.09-5.46,6-4.46a6.35,6.35,0,0,1,3.81,7.06A22.62,22.62,0,0,0,1113.61,676.46Z"/><path class="cls-2" d="M947.59,667.44c.24-.25.49-.5.73-.76a1.73,1.73,0,0,0,2-1.89l0,.05,1-1,0,0,.95-.95,0,0a18,18,0,0,0,7.3-6.44l0,0a2.69,2.69,0,0,0,1.88-1.83l0,.05a45.12,45.12,0,0,0,8.25-8.26l0,0,.94-1,0,0c1.59.12,2.41-1.34,3.71-1.82,1.16.94,4.22,1.14,1.13,3.58-2.69,2.12-.24,3.82.95,5.27,4.74,5.79,5,6-.6,11-4.9,4.34-5.49,9.09-2.94,14.57,1,2.1-.06,3.12-1.33,4.25-2.83,2.51-5.55,5.19-8.6,7.41-2.8,2-3.23,3.89-.62,6.17s2.22,4.18-.59,6.06c-3.5,2.33-6.16,5.12-4.66,10,.53,1.7-1.44,1.29-2.16,1.44a38.08,38.08,0,0,1-14,.3,59.26,59.26,0,0,0-20.75.33c-1.74.33-3.56.66-4.7,2.4-2.63,4-5.45,2.69-8.21.13-1.11-1-2.14-2.15-3.2-3.25-.81-.84-1.31-2.53-.55-2.8,5.88-2,1.3-10.2,7.24-12.1.24-.07.38-1.49.27-1.53-3.61-1.43-2.11-4.6-2.66-7.14A9.76,9.76,0,0,0,904,684c-2.2-1.55-4.49-3.08-5.94-5.49,10.87.48,21.62-1.07,32.42-1.77a12.37,12.37,0,0,0,5.46-2c3.61-2.11,7.17-4.31,10.75-6.47Z"/><path class="cls-2" d="M896.4,618.21c1.05.92,1,2.18.91,3.38-.3,7.42.43,14.8,1.06,22.17a10.8,10.8,0,0,1-2.51,8.42,22.21,22.21,0,0,0-3,4.53c-4.26,8.53-12.16,10.66-20.6,11.72-2,.26-3.9.6-5.43,2-3.67,3.22-8.58,4.29-12.42,7.23a4.88,4.88,0,0,1-3.93.78c-6.94-1.26-13.81-1.43-20.64.79-1.53.5-3.31.23-5,.31-3.77-7.33,2.82-12.24,4.41-18.32.24-.93.87-1.89.78-2.91-.23-2.62.26-4.7,2.91-6,2.18-1.06,1.28-3.53,1.91-5.32.71-2,1.11-3.63,4-2.45s4.91.09,6.6-2.86c2.75-4.82,5.27-9.56,4.68-15.32-.25-2.42.93-3.28,3.16-3.32,5.42-.1,10.18-.16,14.55,4.91,3.84,4.43,10,6.91,15.23,10.07,2.06,1.23,2.53-.42,2.77-2.12.45-3.13,1.26-5.4,5.33-3.39,2.45,1.22,2.81-.47,2.18-2.57C892,625.39,893.75,621.67,896.4,618.21Z"/><path class="cls-2" d="M949.4,758.74c1.4-7.62.85-8.27-5.1-9.19-3.39-.53-6.21-4.14-10.16-1.92-.12.07-.87-.5-.9-.81-.57-6.07-6.55-6.91-9.92-10.26-1.82-1.81-4-2.84-1.9-6.26a5.18,5.18,0,0,0-2.87-7.46c-4.18-1.3-1.07-2.73-.32-3.3a12.8,12.8,0,0,1,9-2.28,124.17,124.17,0,0,0,28.77.36c5.24-.56,6.48-4.84,7.44-8.56a12.78,12.78,0,0,1,4.23-7.14c2-1.66,2.51-3.33.37-5.27-2.63-2.39-2.34-4.44.47-6.62,5.61-4.34,10.53-9.68,17.66-11.73,1.41-.4,2.92-1.62,4,.24,1,1.64-.25,2.84-1.37,3.92a29.75,29.75,0,0,1-2.61,2.54c-3,2.34-3.94,4.56.29,6.52-5.91,6.83-6,7,.65,13.34,2.62,2.52,3.05,4.6.57,7.29s-3.32,5.36-2.16,9.1c.76,2.41-1.12,4.91-2.37,7.14-3.2,5.68-6.61,11.25-9.63,17-1.69,3.22-1.49,7.17-4.27,10.15-2.09,2.24-3.46,4.32-6.22.94-1.89-2.32-3.64-4.4-6.51-.41C955.44,757.66,951.82,754.62,949.4,758.74Z"/><path class="cls-2" d="M772.47,557.23a2,2,0,0,1,2.58,0c4.79,2.15,8.83,1.42,12.21-2.61,2.34-2.79,4.69-5,8.7-3.73,1.09.33,2-.44,2.83-1.16s1.41-1.82,2.68-1a1.88,1.88,0,0,1,.88,2.36,3.43,3.43,0,0,1-2.57,2.34c-.85.12-1.79-.5-2.63-.39a5.33,5.33,0,0,0-4.12,2.55c-.94,1.65,1,2.24,1.57,3.38,2.83,6,9.87,6.37,14.13,10.63,1.95,1.95,5.15.15,7.09-2.18a5.14,5.14,0,0,1,1.5-.84c1,1.57-.1,2.51-.75,3.35-1.39,1.79-1.71,3.39-.24,5.33,1.86,2.47.74,4.52-1.19,6.39-2.22,2.15-3.21-.15-4.38-1.25-1.84-1.71-3.07-1.54-4.16.75a9.86,9.86,0,0,0-1.34,4.28,4.2,4.2,0,0,1-3,4.14c-4.08.7-6.1,3.8-8.52,6.37-4.73,5-11.1,6.92-17,10-4.52,2.35-6.63,1-9.2-2a1.64,1.64,0,0,0-2.74-.12c-1.91,2.26-5.16,3.61-5.62,6.84-.27,1.91-1.27,1.42-2.14,1.18-8.95-2.47-17.29-6.51-25.71-10.3-2.34-1.05-1.44-2.28,0-3.31,7.38-5.45,14.33-11.35,23.11-14.95,5.15-2.12,8.42-7.69,12.39-11.87,1.24-1.32,2.3-2.82,3.6-4.08C773.41,564.29,776.82,561.52,772.47,557.23Z"/><path class="cls-2" d="M648.16,747.88l-.24,0-.24-.06a2.06,2.06,0,0,0-2-.9l.05,0a1.74,1.74,0,0,0-1.87-.94l0,0a1.7,1.7,0,0,0-1.85-.95l0,0a1.66,1.66,0,0,0-1.81-1h0a1.63,1.63,0,0,0-1.89-1.79l0,0c-.33-2.11-1.43-3.45-3.65-3.67h0a12.41,12.41,0,0,1,.85-10.11v0l.92-.92h0l.92-.92h0l1-1c1.43-.53,1.79-2.52,3.53-2.65.37.66.69.7,1-.06l0,0a1.64,1.64,0,0,0,1-1.84l0,0c2.38-1.72,1.88-4.29,1.85-6.65,0-2.08.63-4.31,2.69-3.9,8.23,1.63,11.51-5.19,16.52-9.07,2.74-2.14,5.54-4.22,8.19-6.47,2-1.73,3.22-1.23,4.76.79,2.56,3.36,5.48,6.45,8.28,9.63s6,2.5,8.95.42,1.7-4.73.5-7.31-3.15-4-5.2-5.57c-1.18-.93-3.7-1.71-3-3.37.77-2,2.61-4.2,5.09-3.94,3.28.33,5.07-1.12,6.65-3.6.63-1,1.58-2.22,2.87-2,3.6.74,5.67-1,7.42-3.8.43-.68,1.62-1.85,2.1-.87,1.59,3.24,5,2.88,7.26,4.37s2,5.43,1.65,8.49c-10.19,3.65-17.74,10.58-24,19.18-4.95,6.85-9,14.23-13.14,21.57a56.56,56.56,0,0,1-16,17.58c-4.72,3.41-10.45,3.67-16.1,1.78C650.39,747.62,649.25,747.86,648.16,747.88Z"/><path class="cls-2" d="M657.51,648.52c0-.15,0-.41.12-.42,9.5-2,12-12.89,20.69-16.09,2.37-.87,3-1.24,4,1.45,3.38,9.92,3.49,9.88,14.09,9.91-1.36,1.84-2.39,3.75-3.9,5.12-2.75,2.5-1.87,4,.94,5.34,1,.46,1.81,1.11,2.75,1.61,5.72,3.09,7.52,7.2,5.42,13.31-1,3,1.17,4,3.7,6.08-4.92-.58-7.09,2.73-9.89,4-5.83,2.59-10.33,6.53-15.21,10.19-.42.32-1.38.53-1.68.29-3.51-2.9-5.51.2-7.64,2-5.43,4.55-11.87,7.9-16.16,13.84-.73,1-2.69,1.34-4.15,1.59-4.42.76-5.47-.5-4.59-4.9,1.65-8.29,3.58-16.5,6.95-24.31l0,.1.93-1,0,0c4-5.28,4.95-11.54,5.45-17.83.27-3.51.9-7.3-1.77-10.4Z"/><path class="cls-2" d="M827.12,689.4c7.54-2.67,15.34-2.94,23.23-2.65,4.09.15,8.17.29,11.86-2.19,1-.68,2.65-.62,4-.57a32.94,32.94,0,0,0,17.11-3.8c3-1.59,6.14-1.14,9.28-.81,2.06,3.74,6.06,5.37,9,8.18,2,1.93,3,3.74,1.33,6.33-.47.74-1.23,1.67-.61,2.51,2.86,3.92,0,6.76-1.92,9.57-1.32,2-1.64,4.2-2.57,6.25-1,2.24-2.44,3.77-4.89,2.1-3.49-2.39-5.46-.5-6.87,2.33-2,4-4.4,4.56-8.44,2.66-2.64-1.23-5.85-1.26-8.05-3.6-1.49-1.57-3.38-2.54-2.39-5.63.92-2.86-2.44-3.86-4.4-4.87s-6.8,2.5-7.27,4.92c-.62,3.19-1,6.44-1.53,9.75a2.55,2.55,0,0,1-2-2.57c-.19-6.25-3.67-10.41-8.27-14.1a4.49,4.49,0,0,0-3.26-1c-2.89,0-5.88-.47-8.64.15-5.38,1.2-6.12-1.3-5.54-5.68a50.11,50.11,0,0,0,0-6.37l0,0,1.26-.27Z"/><path class="cls-2" d="M795.37,723.77c7.44,3.88,13.65,9.39,19.64,15.13a56.08,56.08,0,0,0,11.13,8.44c4.85,2.77,9.05,6.59,11,12.18,2.11,6.09,5.24,11.89,5.46,18.53-2.07.4-4.11,1-6.26.72-1.53-.23-3.71-.61-3.91-1.87-.76-4.77-6.22-5.74-7.53-10-.78-2.58-2.94-1.94-4.35-.6-7.11,6.75-17.7,8.31-24.08,16.18-.75.93-2.39,1.33-3.69,1.57-2.9.52-6.71,2.83-8.55.39-2.08-2.73-1.39-7-.06-10.43,1.48-3.79,3.49-7.37,5.32-11,2.65-5.27,5.7-10.49.89-16.16,1.63-3.9.79-8.18,1.92-12.16Z"/><path class="cls-2" d="M697.37,588.32l-33.58-14.07c3-2.69,4.82-7.52,9.17-2.19.53.65,1.3.35,2.08.07a11.78,11.78,0,0,1,7.69-.55c2.81.84,4.68-.52,5.66-3.16a15.19,15.19,0,0,0,1-3.48c1.09-10.35,7.23-17.31,15.28-23a11.86,11.86,0,0,0,2.16-1.65c1.94-2.26,4.45-3,6.93-1.67,2.25,1.19,3.26,3.34,2.23,6.18-.61,1.69.67,3.17,1.6,4.56,5.38,8.08,12.17,15,18.08,22.72,2.51,3.26,6,4.35,9.76,5.27,1.13.28,2.64.46,2.92,1.79s-1.18,1.94-2.13,2.63c-7.89,5.67-7.93,5.7-14.65-1.18-2.86-2.92-5.62-6-8.23-9.09-2-2.37-3.88-2.69-6.08-.51-1.38,1.38-2.7,2.51-4.64.79-1.48-1.31-2.48-.09-3.45.88-3.55,3.54-7,7.17-10.67,10.59C696.88,584.76,696.78,586.17,697.37,588.32Z"/><path class="cls-2" d="M298.17,838c-9.5,5.33-19.34,4.29-29.2,1.39a92.28,92.28,0,0,0-13.3-2.42c-8.63-1.23-17.14-3.38-26-2.79,3-4.18,7.75-2.34,11.66-3.17,2.75-.59,5.23.07,5-4.27-.18-3.7,4.06-3,5.53-2.67,7.91,2.08,16.23,1.16,24,3.69,4.46,1.44,7.37-.85,8.71-5.47,2.95-10.17,2.49-20.95,6-31,1.35-3.87,2.2-3.5,4.61-1.12,4.5,4.45,8,9.71,4.7,15.72C294.08,816.51,294.42,827.05,298.17,838Z"/><path class="cls-2" d="M721.58,597.41a56.58,56.58,0,0,1-14.79-5.83c-2.24-1.22-3.95-5.19-2-7.51s3.11-7.5,8.15-4.73c1.74.95,2.56-.14,3.45-1.09,2.76-2.92,4.85-2.2,6.88.91s4.88,5.33,7.82,7.49c2.16,1.58,2.5,3.18.2,5C728.53,593.93,726.62,597.44,721.58,597.41Z"/></g></g></g></svg>