<?xml version="1.0" encoding="UTF-8" standalone="no"?>
<svg
   xmlns:dc="http://purl.org/dc/elements/1.1/"
   xmlns:cc="http://creativecommons.org/ns#"
   xmlns:rdf="http://www.w3.org/1999/02/22-rdf-syntax-ns#"
   xmlns:svg="http://www.w3.org/2000/svg"
   xmlns="http://www.w3.org/2000/svg"
   xmlns:sodipodi="http://sodipodi.sourceforge.net/DTD/sodipodi-0.dtd"
   xmlns:inkscape="http://www.inkscape.org/namespaces/inkscape"
   version="1.1"
   xml:space="preserve"
   viewBox="0 0 133.33333 133.33333"
   x="0px"
   y="0px"
   id="svg929"
   sodipodi:docname="cargo.svg"
   inkscape:version="1.0.2 (e86c870879, 2021-01-15)"><metadata
   id="metadata935"><rdf:RDF><cc:Work
       rdf:about=""><dc:format>image/svg+xml</dc:format><dc:type
         rdf:resource="http://purl.org/dc/dcmitype/StillImage" /><dc:title></dc:title></cc:Work></rdf:RDF></metadata><defs
   id="defs933">
    
  
      
    </defs><sodipodi:namedview
   pagecolor="#ffffff"
   bordercolor="#666666"
   borderopacity="1"
   objecttolerance="10"
   gridtolerance="10"
   guidetolerance="10"
   inkscape:pageopacity="0"
   inkscape:pageshadow="2"
   inkscape:window-width="1920"
   inkscape:window-height="968"
   id="namedview931"
   showgrid="false"
   inkscape:zoom="4.051722"
   inkscape:cx="107.83561"
   inkscape:cy="46.463686"
   inkscape:window-x="0"
   inkscape:window-y="34"
   inkscape:window-maximized="1"
   inkscape:current-layer="g917" />
  <g
   transform="translate(3410.7578,-876.85843)"
   id="g919">
        <g
   transform="translate(-642.05097,-0.24515095)"
   id="g917">
          
          
          
          
          
          
          
        <g
   id="g1371"><path
     style="color:#000000;font-style:normal;font-variant:normal;font-weight:normal;font-stretch:normal;font-size:medium;line-height:normal;font-family:sans-serif;font-variant-ligatures:normal;font-variant-position:normal;font-variant-caps:normal;font-variant-numeric:normal;font-variant-alternates:normal;font-variant-east-asian:normal;font-feature-settings:normal;font-variation-settings:normal;text-indent:0;text-align:start;text-decoration:none;text-decoration-line:none;text-decoration-style:solid;text-decoration-color:#000000;letter-spacing:normal;word-spacing:normal;text-transform:none;writing-mode:lr-tb;direction:ltr;text-orientation:mixed;dominant-baseline:auto;baseline-shift:baseline;text-anchor:start;white-space:normal;shape-padding:0;shape-margin:0;inline-size:0;clip-rule:nonzero;display:inline;overflow:visible;visibility:visible;isolation:auto;mix-blend-mode:normal;color-interpolation:sRGB;color-interpolation-filters:linearRGB;solid-color:#000000;solid-opacity:1;vector-effect:none;fill:#000000;fill-opacity:1;fill-rule:nonzero;stroke:none;stroke-linecap:round;stroke-linejoin:round;stroke-miterlimit:4;stroke-dasharray:none;stroke-dashoffset:0;stroke-opacity:1;color-rendering:auto;image-rendering:auto;shape-rendering:auto;text-rendering:auto;enable-background:accumulate;stop-color:#000000;stop-opacity:1;opacity:1"
     d="M -2730.3066 928.78906 A 1.578885 1.578885 0 0 0 -2731.6953 929.6875 L -2743.2793 953.9043 A 1.5790428 1.5790428 0 0 0 -2741.8555 956.16406 L -2702.3379 956.16406 A 1.578885 1.578885 0 0 0 -2700.7598 954.58594 A 1.578885 1.578885 0 0 0 -2702.3379 953.00781 L -2739.3516 953.00781 L -2728.8477 931.04883 A 1.578885 1.578885 0 0 0 -2729.5898 928.94336 A 1.578885 1.578885 0 0 0 -2730.3066 928.78906 z "
     id="path903" /><path
     style="color:#000000;font-style:normal;font-variant:normal;font-weight:normal;font-stretch:normal;font-size:medium;line-height:normal;font-family:sans-serif;font-variant-ligatures:normal;font-variant-position:normal;font-variant-caps:normal;font-variant-numeric:normal;font-variant-alternates:normal;font-variant-east-asian:normal;font-feature-settings:normal;font-variation-settings:normal;text-indent:0;text-align:start;text-decoration:none;text-decoration-line:none;text-decoration-style:solid;text-decoration-color:#000000;letter-spacing:normal;word-spacing:normal;text-transform:none;writing-mode:lr-tb;direction:ltr;text-orientation:mixed;dominant-baseline:auto;baseline-shift:baseline;text-anchor:start;white-space:normal;shape-padding:0;shape-margin:0;inline-size:0;clip-rule:nonzero;display:inline;overflow:visible;visibility:visible;isolation:auto;mix-blend-mode:normal;color-interpolation:sRGB;color-interpolation-filters:linearRGB;solid-color:#000000;solid-opacity:1;vector-effect:none;fill:#000000;fill-opacity:1;fill-rule:nonzero;stroke:none;stroke-linecap:round;stroke-linejoin:round;stroke-miterlimit:4;stroke-dasharray:none;stroke-dashoffset:0;stroke-opacity:1;color-rendering:auto;image-rendering:auto;shape-rendering:auto;text-rendering:auto;enable-background:accumulate;stop-color:#000000;stop-opacity:1;opacity:1"
     d="M -2708.0859 919.13477 A 1.578885 1.578885 0 0 0 -2709.6875 920.68945 A 1.578885 1.578885 0 0 0 -2708.1328 922.29102 C -2706.7173 922.31281 -2705.7621 922.47757 -2705.2129 922.69141 C -2704.6637 922.90524 -2704.4999 923.07232 -2704.3008 923.45508 C -2703.9026 924.2206 -2703.7853 926.29202 -2703.7402 929.54688 L -2703.7344 936.91797 A 1.578885 1.578885 0 0 0 -2703.7402 937.03711 A 1.578885 1.578885 0 0 0 -2703.7344 937.17383 L -2703.7227 954.58789 A 1.5790428 1.5790428 0 0 0 -2702.1445 956.16406 L -2690.5488 956.16406 A 1.578885 1.578885 0 0 0 -2688.9707 954.58594 A 1.578885 1.578885 0 0 0 -2690.5488 953.00781 L -2700.5664 953.00781 L -2700.5781 938.61719 L -2649.9785 938.61719 L -2649.9785 953.00781 L -2661.6719 953.00781 A 1.578885 1.578885 0 0 0 -2663.252 954.58594 A 1.578885 1.578885 0 0 0 -2661.6719 956.16406 L -2648.4004 956.16406 A 1.5790428 1.5790428 0 0 0 -2646.8203 954.58594 L -2646.8203 937.03711 A 1.5790428 1.5790428 0 0 0 -2648.4004 935.45898 L -2700.5801 935.45898 L -2700.584 929.52539 A 1.5790428 1.5790428 0 0 0 -2700.584 929.50391 C -2700.6285 926.28583 -2700.4582 923.99728 -2701.498 921.99805 C -2702.018 920.99843 -2702.947 920.18391 -2704.0664 919.74805 C -2705.1858 919.31218 -2706.475 919.15957 -2708.0859 919.13477 z "
     id="path905" /><path
     style="color:#000000;font-style:normal;font-variant:normal;font-weight:normal;font-stretch:normal;font-size:medium;line-height:normal;font-family:sans-serif;font-variant-ligatures:normal;font-variant-position:normal;font-variant-caps:normal;font-variant-numeric:normal;font-variant-alternates:normal;font-variant-east-asian:normal;font-feature-settings:normal;font-variation-settings:normal;text-indent:0;text-align:start;text-decoration:none;text-decoration-line:none;text-decoration-style:solid;text-decoration-color:#000000;letter-spacing:normal;word-spacing:normal;text-transform:none;writing-mode:lr-tb;direction:ltr;text-orientation:mixed;dominant-baseline:auto;baseline-shift:baseline;text-anchor:start;white-space:normal;shape-padding:0;shape-margin:0;inline-size:0;clip-rule:nonzero;display:inline;overflow:visible;visibility:visible;isolation:auto;mix-blend-mode:normal;color-interpolation:sRGB;color-interpolation-filters:linearRGB;solid-color:#000000;solid-opacity:1;vector-effect:none;fill:#000000;fill-opacity:1;fill-rule:nonzero;stroke:none;stroke-linecap:round;stroke-linejoin:miter;stroke-miterlimit:4;stroke-dasharray:none;stroke-dashoffset:0;stroke-opacity:1;color-rendering:auto;image-rendering:auto;shape-rendering:auto;text-rendering:auto;enable-background:accumulate;stop-color:#000000;stop-opacity:1;opacity:1"
     d="M -2729.7773 929.0332 A 1.578775 1.578775 0 0 0 -2730.3438 929.13477 A 1.578775 1.578775 0 0 0 -2731.2617 931.16992 L -2722.1953 955.14453 A 1.578775 1.578775 0 0 0 -2720.1602 956.0625 A 1.578775 1.578775 0 0 0 -2719.2422 954.02734 L -2728.3086 930.05273 A 1.578775 1.578775 0 0 0 -2729.7773 929.0332 z "
     id="path907" /><path
     style="color:#000000;font-style:normal;font-variant:normal;font-weight:normal;font-stretch:normal;font-size:medium;line-height:normal;font-family:sans-serif;font-variant-ligatures:normal;font-variant-position:normal;font-variant-caps:normal;font-variant-numeric:normal;font-variant-alternates:normal;font-variant-east-asian:normal;font-feature-settings:normal;font-variation-settings:normal;text-indent:0;text-align:start;text-decoration:none;text-decoration-line:none;text-decoration-style:solid;text-decoration-color:#000000;letter-spacing:normal;word-spacing:normal;text-transform:none;writing-mode:lr-tb;direction:ltr;text-orientation:mixed;dominant-baseline:auto;baseline-shift:baseline;text-anchor:start;white-space:normal;shape-padding:0;shape-margin:0;inline-size:0;clip-rule:nonzero;display:inline;overflow:visible;visibility:visible;isolation:auto;mix-blend-mode:normal;color-interpolation:sRGB;color-interpolation-filters:linearRGB;solid-color:#000000;solid-opacity:1;vector-effect:none;fill:#000000;fill-opacity:1;fill-rule:nonzero;stroke:none;stroke-linecap:butt;stroke-linejoin:round;stroke-miterlimit:4;stroke-dasharray:none;stroke-dashoffset:0;stroke-opacity:1;color-rendering:auto;image-rendering:auto;shape-rendering:auto;text-rendering:auto;enable-background:accumulate;stop-color:#000000;stop-opacity:1;opacity:1"
     d="M -2741.373 938.31055 C -2750.1319 938.31055 -2757.2598 945.47389 -2757.2598 954.26172 C -2757.2598 963.04955 -2750.1319 970.21484 -2741.373 970.21484 C -2732.6142 970.21484 -2725.4883 963.04955 -2725.4883 954.26172 C -2725.4883 945.47389 -2732.6142 938.31055 -2741.373 938.31055 z M -2741.373 941.46484 C -2734.3277 941.46484 -2728.6445 947.17158 -2728.6445 954.26172 C -2728.6445 961.35186 -2734.3277 967.05859 -2741.373 967.05859 C -2748.4184 967.05859 -2754.1035 961.35186 -2754.1035 954.26172 C -2754.1035 947.17158 -2748.4184 941.46484 -2741.373 941.46484 z "
     id="ellipse909" /><path
     style="color:#000000;font-style:normal;font-variant:normal;font-weight:normal;font-stretch:normal;font-size:medium;line-height:normal;font-family:sans-serif;font-variant-ligatures:normal;font-variant-position:normal;font-variant-caps:normal;font-variant-numeric:normal;font-variant-alternates:normal;font-variant-east-asian:normal;font-feature-settings:normal;font-variation-settings:normal;text-indent:0;text-align:start;text-decoration:none;text-decoration-line:none;text-decoration-style:solid;text-decoration-color:#000000;letter-spacing:normal;word-spacing:normal;text-transform:none;writing-mode:lr-tb;direction:ltr;text-orientation:mixed;dominant-baseline:auto;baseline-shift:baseline;text-anchor:start;white-space:normal;shape-padding:0;shape-margin:0;inline-size:0;clip-rule:nonzero;display:inline;overflow:visible;visibility:visible;isolation:auto;mix-blend-mode:normal;color-interpolation:sRGB;color-interpolation-filters:linearRGB;solid-color:#000000;solid-opacity:1;vector-effect:none;fill:#000000;fill-opacity:1;fill-rule:nonzero;stroke:none;stroke-linecap:round;stroke-linejoin:round;stroke-miterlimit:4;stroke-dasharray:none;stroke-dashoffset:0;stroke-opacity:1;color-rendering:auto;image-rendering:auto;shape-rendering:auto;text-rendering:auto;enable-background:accumulate;stop-color:#000000;stop-opacity:1;opacity:1"
     d="M -2676.3516 946.49609 C -2682.9053 946.49609 -2688.2539 951.84466 -2688.2539 958.39844 C -2688.2539 964.95222 -2682.9053 970.30078 -2676.3516 970.30078 C -2669.7978 970.30078 -2664.4492 964.95222 -2664.4492 958.39844 C -2664.4492 951.84466 -2669.7978 946.49609 -2676.3516 946.49609 z M -2676.3516 949.82422 C -2671.5961 949.82422 -2667.7754 953.64299 -2667.7754 958.39844 C -2667.7754 963.15388 -2671.5961 966.97266 -2676.3516 966.97266 C -2681.107 966.97266 -2684.9258 963.15388 -2684.9258 958.39844 C -2684.9258 953.64299 -2681.107 949.82422 -2676.3516 949.82422 z "
     id="circle913" /><circle
     style="color:#000000;clip-rule:nonzero;display:inline;overflow:visible;visibility:visible;opacity:1;isolation:auto;mix-blend-mode:normal;color-interpolation:sRGB;color-interpolation-filters:linearRGB;solid-color:#000000;solid-opacity:1;fill:#000000;fill-opacity:1;fill-rule:evenodd;stroke:none;stroke-width:1.25039;stroke-linecap:round;stroke-linejoin:round;stroke-miterlimit:4;stroke-dasharray:none;stroke-dashoffset:0;stroke-opacity:1;color-rendering:auto;image-rendering:auto;shape-rendering:auto;text-rendering:auto;enable-background:accumulate"
     cx="-2676.3538"
     cy="958.59662"
     r="1.5124999"
     id="circle915" /><path
     style="color:#000000;font-style:normal;font-variant:normal;font-weight:normal;font-stretch:normal;font-size:medium;line-height:normal;font-family:sans-serif;font-variant-ligatures:normal;font-variant-position:normal;font-variant-caps:normal;font-variant-numeric:normal;font-variant-alternates:normal;font-variant-east-asian:normal;font-feature-settings:normal;font-variation-settings:normal;text-indent:0;text-align:start;text-decoration:none;text-decoration-line:none;text-decoration-style:solid;text-decoration-color:#000000;letter-spacing:normal;word-spacing:normal;text-transform:none;writing-mode:lr-tb;direction:ltr;text-orientation:mixed;dominant-baseline:auto;baseline-shift:baseline;text-anchor:start;white-space:normal;shape-padding:0;shape-margin:0;inline-size:0;clip-rule:nonzero;display:inline;overflow:visible;visibility:visible;isolation:auto;mix-blend-mode:normal;color-interpolation:sRGB;color-interpolation-filters:linearRGB;solid-color:#000000;solid-opacity:1;vector-effect:none;fill:#000000;fill-opacity:1;fill-rule:nonzero;stroke-width:1;stroke-linecap:butt;stroke-linejoin:miter;stroke-miterlimit:4;stroke-dasharray:none;stroke-dashoffset:0;stroke-opacity:1;color-rendering:auto;image-rendering:auto;shape-rendering:auto;text-rendering:auto;enable-background:accumulate;stop-color:#000000;stop-opacity:1;stroke:none;opacity:1"
     d="m -2719.9145,925.23212 c 0,1.69675 -4.6154,3.07223 -10.3089,3.07223 -5.6935,0 -10.3089,-1.37548 -10.3089,-3.07223 0,-1.69675 4.6154,-3.07224 10.3089,-3.07224 5.6935,0 10.3089,1.37549 10.3089,3.07224 z"
     id="path1227" /></g></g>
      </g>
  
  
</svg>
