<svg xmlns="http://www.w3.org/2000/svg" viewBox="0 0 366.61 209.74"><defs><style>.cls-1{fill:#69f7dc;}.cls-2{fill:#fc32c3;}</style></defs><title>Asset 10</title><g id="Layer_2" data-name="Layer 2"><g id="Layer_1-2" data-name="Layer 1"><rect class="cls-1" width="366.61" height="209.74"/><path class="cls-2" d="M196.71,91.12l-2.51,2.31c-.57.52-1.11,1.07-1.7,1.56a23.78,23.78,0,0,0-2,1.91,7.37,7.37,0,0,0-1.84,3.8,1.79,1.79,0,0,0,0,.76,3.58,3.58,0,0,0,2,2.47,2.16,2.16,0,0,0,.73.24c.8.07,1.6.18,2.41.17,2.75-.06,5.51-.09,8.26-.11,2.46,0,4.92,0,7.38,0a8.34,8.34,0,0,0,1.65-.12,10.7,10.7,0,0,0,3.94-1.61,37.86,37.86,0,0,0,4.62-3.56L232.62,87.2l3.67-3.32,6.11-5.56c2.17-2,4.36-3.93,6.53-5.92A15.15,15.15,0,0,0,251.81,69a3.21,3.21,0,0,0,.47-1.11c.06-.36.14-.71.19-1.08a2.31,2.31,0,0,0-.61-2.22,1.22,1.22,0,0,1-.15-.17,2.44,2.44,0,0,0-1.21-.71,11.74,11.74,0,0,0-2.83-.36c-2.72,0-5.44,0-8.16.05H234c-1.17,0-2.34,0-3.52.07a3.59,3.59,0,0,0-1,.17,11.06,11.06,0,0,0-3.29,1.47,19.53,19.53,0,0,0-3.92,2.64c-.72.62-1.48,1.2-2.19,1.84-2,1.82-4,3.67-6,5.51l-11,10.18C201,87.21,198.85,89.16,196.71,91.12Zm9,1.75c.78-.72,1.53-1.47,2.3-2.21a32,32,0,0,1,2.42-2.23,14,14,0,0,0,1.09-1.09,24.32,24.32,0,0,1,2.43-2.22l.16-.15c.94-1.08,2-2,3.07-3,1.29-1.24,2.61-2.47,3.92-3.7s2.44-2.22,3.62-3.37c.82-.8,1.69-1.52,2.56-2.24a3.34,3.34,0,0,1,1.14-.66c.34-.11.67-.3,1-.43a5.87,5.87,0,0,1,2.35-.47c1.39,0,2.79.06,4.18.05a9.87,9.87,0,0,1,1.73.24.41.41,0,0,1,.2.63,5.35,5.35,0,0,1-.94,1.07c-1.72,1.44-3.32,3-5,4.52-.8.75-1.62,1.49-2.43,2.23L222,86.76,217.41,91c-1.69,1.57-3.39,3.14-5.1,4.69a9,9,0,0,1-1.05.79,2.3,2.3,0,0,1-1.13.4c-.4,0-.8.08-1.21.08-.91,0-1.83,0-2.75,0v0h-2.53l-.77,0a.52.52,0,0,1-.45-.63,1.31,1.31,0,0,1,.4-.77l1.52-1.43C204.8,93.75,205.22,93.3,205.68,92.87Z"/><path class="cls-2" d="M150.75,102.17a4,4,0,0,0,1.08,1.51,3.24,3.24,0,0,0,1.81.72c.4,0,.81,0,1.21.09a8.23,8.23,0,0,0,1.64.11l7.74,0,6.37-.1c.33,0,.66,0,1,0a3.76,3.76,0,0,0,.74-.16,15.29,15.29,0,0,0,4.11-2.08c.66-.47,1.29-1,1.92-1.48a14,14,0,0,0,1.16-1q3.87-3.77,7.72-7.55L197.64,82c.1-.1.19-.21.29-.32a.25.25,0,0,0-.12-.36,7.49,7.49,0,0,0-1.64-.18l-10.9,0c-.48,0-1,0-1.44,0a1.55,1.55,0,0,0-1,.39l-.41.38c-.52.51-1,1-1.57,1.54-1.38,1.31-2.72,2.67-4.18,3.91-.47.4-.9.86-1.34,1.3a.2.2,0,0,0,0,.2.2.2,0,0,0,.15.13l2.31.08c.51,0,1,0,1.54,0a2,2,0,0,1,.52.14.11.11,0,0,1,.06.18c-.42.46-.83.92-1.26,1.37-1.17,1.22-2.43,2.34-3.59,3.57-.66.7-1.34,1.36-2,2a2,2,0,0,1-.51.41,4,4,0,0,1-1.58.42c-2.35,0-4.7,0-7,0l-.77,0a.9.9,0,0,1-.58-.27.58.58,0,0,1-.1-.8,3.92,3.92,0,0,1,.51-.57l3.51-3.34c.71-.69,1.43-1.37,2.15-2.05l1.61-1.5,1.94-1.79c1.26-1.18,2.51-2.38,3.77-3.55s2.73-2.45,4-3.81a4.64,4.64,0,0,1,.39-.38c.92-.85,1.84-1.69,2.73-2.56,1.08-1.06,2.26-2,3.36-3a19.12,19.12,0,0,1,1.74-1.34,4.21,4.21,0,0,1,2.56-.85,18.62,18.62,0,0,0,2-.07c.92-.1,1.83-.1,2.75-.13a3.9,3.9,0,0,1,1.4.25.86.86,0,0,1,.48,1.09,2.35,2.35,0,0,1-.28.46c-.24.28-.5.54-.76.8-.78.78-1.57,1.55-2.36,2.32a3.17,3.17,0,0,0-.28.34.26.26,0,0,0,.13.35,4.78,4.78,0,0,0,.65.07h8a1,1,0,0,0,.7-.29l.31-.3,5.73-5.64.24-.24a4.47,4.47,0,0,0,1.22-3.2c0-.22,0-.45,0-.66a2.69,2.69,0,0,0-1.29-2.3,7,7,0,0,0-1-.5,4.57,4.57,0,0,0-1.72-.28c-3,0-6.1,0-9.15,0-1.39,0-2.79,0-4.19,0a19,19,0,0,0-3.27.39,14.07,14.07,0,0,0-2.92,1,15.91,15.91,0,0,0-4.65,2.89,1.49,1.49,0,0,1-.35.27,4.79,4.79,0,0,0-1.12.88l-6.7,6.22L153.05,94.78a13.59,13.59,0,0,0-1.42,1.52,14.35,14.35,0,0,0-1,1.47,1.15,1.15,0,0,0-.13.42c-.1.54-.19,1.08-.27,1.63a1.24,1.24,0,0,0,0,.43A10.38,10.38,0,0,0,150.75,102.17Z"/><path class="cls-2" d="M222.36,130.22c-.22-.12-.46-.22-.7-.33a3.81,3.81,0,0,0-1.7-.38c-.4,0-.81,0-1.21,0-1.94-.08-3.89-.05-5.83,0h-2.87a1.8,1.8,0,0,1-.32-.06c-.12,0-.23-.27-.15-.35a5,5,0,0,1,.44-.48c1-.94,2.08-1.87,3.09-2.82,1.42-1.33,2.83-2.68,4.23-4a13,13,0,0,1,2.11-1.58,2,2,0,0,1,.61-.24,15.86,15.86,0,0,1,2.84-.35h16.87l6.93-6.45c.37-.35.73-.72,1.1-1.08.11-.11,0-.4-.16-.45a1.11,1.11,0,0,0-.31-.09h-2.09l-14.65.16-7,.06a10.15,10.15,0,0,0-1.74.16,14.68,14.68,0,0,1-1.75.22,4.62,4.62,0,0,0-.65.07,10.88,10.88,0,0,0-5.32,2.47c-.31.27-.6.54-.9.82L199,129.2c-.11.1-.2.21-.32.3a10.13,10.13,0,0,0-2.13,2.35,5.79,5.79,0,0,0-.85,2.36,2.09,2.09,0,0,0,0,.66,2.26,2.26,0,0,0,1.49,2,4.75,4.75,0,0,0,1.39.31l1,0,7.05,0a22.94,22.94,0,0,1,2.63.23.48.48,0,0,1,.37.58,1.9,1.9,0,0,1-.42.88c-.34.39-.68.78-1,1.13-.73.72-1.48,1.43-2.23,2.14l-1.75,1.67a4.54,4.54,0,0,1-1.95,1.19,9.6,9.6,0,0,1-1.84.33c-1.42.1-2.85.18-4.28.2-3,0-6,0-9,0h-3.74a3.69,3.69,0,0,0-2.77,1.11c-1.63,1.64-3.31,3.23-5,4.84-.27.25-.53.51-.79.78a2.93,2.93,0,0,0-.19.26.25.25,0,0,0,.08.28,2.38,2.38,0,0,0,1.29.18l20.17,0c1.83,0,3.67,0,5.5,0a2.49,2.49,0,0,0,.55,0,16,16,0,0,0,1.81-.47,11.79,11.79,0,0,0,3.27-1.77c.32-.24.65-.47,1-.73a23.17,23.17,0,0,0,1.91-1.66c.63-.67,1.24-1.36,1.91-2,1-.91,2-1.89,2.92-2.84,1.15-1.14,2.31-2.26,3.45-3.4,1.38-1.38,2.72-2.79,4.09-4.17a4.71,4.71,0,0,0,.77-1.06,5.5,5.5,0,0,0,.54-1.55,2.76,2.76,0,0,0-.16-1.83A3,3,0,0,0,222.36,130.22Z"/><path class="cls-2" d="M137.55,137.41c.37,0,.74,0,1.11,0a1,1,0,0,0,.7-.25c.76-.64,1.5-1.29,2.2-2s1.19-1.19,1.81-1.77l3.56-3.29c.1-.1.19-.22.28-.33s0-.26-.08-.27-.44-.06-.66-.06c-.95,0-1.9,0-2.86,0l-5.72,0h-2.21l-6.83,0-.22,0a.12.12,0,0,1-.14-.13c0-.07,0-.17,0-.2.9-.87,1.78-1.76,2.7-2.6,2.25-2,4.41-4.2,6.6-6.32,1-1,.8-.84,2-.84l14.66,0c1,0,2,0,3,0a1.45,1.45,0,0,0,1.08-.44c.26-.26.53-.51.8-.76l5.88-5.64a5.58,5.58,0,0,0,.53-.56.21.21,0,0,0,0-.19.2.2,0,0,0-.15-.12c-.77-.05-1.53-.12-2.3-.12-2.65,0-5.29,0-7.93.07-1.33,0-2.65.07-4,.07h-5.72c-1.55,0-3.09,0-4.63,0a11.38,11.38,0,0,0-1.31.11,14.36,14.36,0,0,0-4.21,1.23,16.83,16.83,0,0,0-4,2.35,8.11,8.11,0,0,1-1.4,1.07,2,2,0,0,0-.41.36c-2.12,2-4.25,4-6.32,6-1,1-2,2-3,2.88-.22.19-.42.41-.62.62s-.55.6-.83.88l-1.73,1.7c-.93.94-2,1.75-2.87,2.73a1.92,1.92,0,0,1-.17.13q-1.74,1.53-3.34,3.2c-.37.4-.77.79-1.16,1.17l-2.54,2.45-1.9,1.82-2.17,2.05-3,2.91-6.81,6.57c-.19.18-.37.37-.54.56a.46.46,0,0,0-.16.38c0,.09.19.2.36.2l1,0h8.48a1.54,1.54,0,0,0,1.17-.52c1.09-1.08,2.21-2.14,3.33-3.2.82-.79,1.66-1.55,2.47-2.35s1.75-1.57,2.52-2.46a1.79,1.79,0,0,1,.25-.22c.68-.56,1.31-1.18,1.94-1.79s1.29-1.21,1.91-1.83c1.08-1.1,2.32-2,3.44-3.09a.83.83,0,0,1,.6-.2l3-.07a8.54,8.54,0,0,1,1.75-.06,11.49,11.49,0,0,1,1.76,0c1.07.08,2.13.06,3.2.07C132.34,137.37,135,137.32,137.55,137.41Z"/><path class="cls-2" d="M172.36,131.29l0,0h0Z"/><path class="cls-2" d="M181.82,130.42q3.72-4.72,7.41-9.45c1.5-1.9,3-3.82,4.48-5.73.29-.37.57-.76.89-1.12a27.72,27.72,0,0,0,1.85-2.46c0-.06.06-.13.1-.19s-.05-.35-.17-.36a4.93,4.93,0,0,0-.54,0c-2.32-.06-4.63.09-6.94.08h-.22a1.24,1.24,0,0,0-.72.26l-.52.4L183,115.09l-17.79,13c-3.17,2.32-6.35,4.62-9.53,6.93-.33.24-.66.46-1,.71-1,.75-2,1.52-3,2.26q-6.79,5-13.6,10c-1.83,1.35-3.67,2.68-5.51,4-.27.19-.52.41-.77.62a1.08,1.08,0,0,0-.11.18c0,.06,0,.28.1.29a3,3,0,0,0,.43.06l3.2,0,6.49,0a3.83,3.83,0,0,0,2.65-.89c.3-.27.64-.49.95-.75,1.1-.92,2.25-1.77,3.31-2.73l.09-.07c1.94-1.5,3.94-2.94,5.88-4.45,1.07-.83,2.16-1.64,3.24-2.46l3.26-2.45c.17-.14.36-.26.53-.39.36-.26.72-.51,1.07-.78.52-.41,1-.82,1.56-1.22s.94-.7,1.41-1.06c1.71-1.33,3.46-2.6,5.22-3.85l.72-.52a.8.8,0,0,1,.48-.11l0,0h0c-.05,0-.06,0,0,0l0,0,0,0v0h0l-.11.09-3.73,4.76c-.41.52-.8,1.06-1.2,1.58l-4.6,5.91q-2.94,3.78-5.86,7.57c-.32.41-.6.84-.89,1.26-.09.14.63.47.85.47l5.73-.11,1.65,0a.88.88,0,0,0,.59-.25,6.27,6.27,0,0,0,.82-.89c.86-1.19,1.66-2.42,2.58-3.56a1.22,1.22,0,0,0,.12-.19,15.29,15.29,0,0,1,1.52-2.16c1.46-1.88,2.94-3.75,4.41-5.63,1.08-1.39,2.15-2.79,3.24-4.18Z"/><path class="cls-2" d="M288.1,111.5c-.22,0-.44,0-.66,0-1.17,0-2.35,0-3.52,0-1.4,0-2.79,0-4.19,0H272l-12.89,0c-.33,0-.66,0-1,0a.88.88,0,0,0-.69.28c-.19.18-.39.34-.57.52-2,2-4,4-6.13,5.86-.32.3-.6.65-.89,1a.22.22,0,0,0,.12.35c.33,0,.65.06,1,.06l6.28,0c.51,0,1,0,1.54,0a5.09,5.09,0,0,1,.55,0,.12.12,0,0,1,.13.14.17.17,0,0,1,0,.1c-.07.08-.13.17-.21.25l-4.26,4c-1.08,1-2.17,2-3.24,3s-2.23,2-3.31,3.06c-1.45,1.4-3,2.74-4.44,4.12l-3.44,3.25q-2.85,2.67-5.72,5.32c-1.47,1.38-3,2.75-4.43,4.12l-3.87,3.6c-.43.4-.84.83-1.28,1.21a1.27,1.27,0,0,0-.39.88.31.31,0,0,0,.27.29h.22l4.19,0c1.35,0,2.71,0,4.07,0a6.06,6.06,0,0,0,1.2-.15,1.14,1.14,0,0,0,.57-.31l.41-.37c1.12-1.06,2.2-2.16,3.38-3.15l.24-.23L241,147.2c.21-.2.44-.39.63-.61a13.71,13.71,0,0,1,1-1c.95-.86,1.89-1.74,2.82-2.62,1.39-1.31,2.77-2.63,4.16-3.93,1.13-1.05,2.27-2.08,3.4-3.14,1.84-1.73,3.67-3.48,5.52-5.22s3.85-3.61,5.78-5.41c1.6-1.51,3.2-3,4.84-4.5l1.15-1a1.23,1.23,0,0,1,.92-.29c.36,0,.73,0,1.1,0,2.42,0,4.83-.06,7.25,0h.22a1.2,1.2,0,0,0,1-.39c.33-.35.67-.68,1-1l6.19-6a1.81,1.81,0,0,0,.28-.34.23.23,0,0,0,0-.2A.27.27,0,0,0,288.1,111.5Z"/><path class="cls-2" d="M319.92,81.14c-.58,0-1.17,0-1.76,0h-7.82l-15.86,0h-2.87l-6.49.05v0l-18.51,0H251.18l-.88,0a1.41,1.41,0,0,0-.81.3,2.79,2.79,0,0,0-.4.37l-5.83,5.54-1.1,1.08a1.74,1.74,0,0,0-.24.36.29.29,0,0,0,.18.35,2.2,2.2,0,0,0,.44,0,11.77,11.77,0,0,1,2-.08c1.18,0,2.35.06,3.53,0,3.08-.07,6.17-.08,9.25,0,1.47,0,2.94,0,4.41,0a8,8,0,0,1,1.09.06,4.32,4.32,0,0,0,.88,0c.44,0,.88-.07,1.32-.07h12.33l10.36,0h23.58c.29,0,.58,0,.88,0a1.11,1.11,0,0,0,.69-.3l2.83-2.78c.58-.57,1.14-1.15,1.71-1.71l2.15-2.06a6.09,6.09,0,0,0,.58-.66s0-.14,0-.2S320,81.14,319.92,81.14Z"/><path class="cls-2" d="M172.36,131.29h0l0,0Z"/><path class="cls-2" d="M172.36,131.29l0,0C172.3,131.31,172.31,131.32,172.36,131.29Z"/><path class="cls-2" d="M172.38,131.27l0,0v0Z"/><path class="cls-2" d="M283.6,94.55a107.54,107.54,0,0,1-9.7,11.14H286a102.86,102.86,0,0,0,8.57-11.14Z"/><path class="cls-2" d="M293.13,75.28h9.92c6.13-29.9-27.13-45.52-55.21-45.52-27.66,0-43.14,7.06-63,16.73-18,8.77-39.34,1.13-53.13,1.09-17.46,0-37.24,19-53.06,19.35,19.72,9.19,62-2.68,56.41,12.83-5.85,16.26-33.35-1.52-51-1.05-25,.68-34.65,21.4-68.36,20.8,15.24,10,45.74,7.26,60,18,10.3,7.8,14.18,17.61,25.38,18.93l7-6.81c-14-1-15.47-10.46-27.51-18.74-8.5-5.86-24.2-9.08-38.19-9.21C59.6,99.81,69,87,83.77,86.43c12-.48,26.85,6.25,35.17,7.6,13.29,2.16,21.44-4.33,24.23-12.45,4.75-13.86-9.68-21.41-38.85-16.86,11.17-3.39,17.43-9.53,28.77-9.31,17.77.33,33.81,8.23,54-1,21.09-9.68,31.28-15.67,60.75-15.67C269.49,38.71,298.32,50.47,293.13,75.28Z"/></g></g></svg>